<svg width="26" height="26" viewBox="0 0 26 26" fill="none" xmlns="http://www.w3.org/2000/svg">
<path d="M24.4599 17.8995L18.373 15.1757C18.137 15.0736 17.8793 15.0319 17.6232 15.0544C17.3671 15.0769 17.1206 15.1629 16.906 15.3046C16.8889 15.3155 16.8725 15.3276 16.857 15.3407L13.6602 18.0658C13.589 18.1092 13.5083 18.1344 13.4251 18.1391C13.3419 18.1438 13.2588 18.1279 13.1832 18.0929C11.0898 17.0823 8.92287 14.9321 7.91224 12.8632C7.87649 12.7881 7.8599 12.7054 7.86395 12.6224C7.868 12.5394 7.89256 12.4587 7.93544 12.3875L10.6683 9.13776C10.6811 9.1223 10.6927 9.10554 10.7044 9.08878C10.8456 8.87454 10.9314 8.62852 10.9539 8.37288C10.9764 8.11725 10.9349 7.86003 10.8333 7.6244L8.10431 1.54776C7.97257 1.23999 7.74453 0.983274 7.45445 0.816151C7.16437 0.649028 6.82789 0.580524 6.49556 0.620928C4.87337 0.834809 3.3845 1.63189 2.30705 2.8633C1.2296 4.0947 0.637248 5.67622 0.640639 7.31245C0.640639 17.264 8.73595 25.3593 18.6875 25.3593C20.3237 25.3627 21.9053 24.7704 23.1367 23.6929C24.3681 22.6155 25.1652 21.1266 25.379 19.5044C25.4191 19.1736 25.3514 18.8387 25.1857 18.5495C25.0201 18.2603 24.7656 18.0323 24.4599 17.8995ZM24.3594 19.3755C24.1774 20.7493 23.5012 22.0098 22.4573 22.9213C21.4134 23.8328 20.0733 24.3329 18.6875 24.3281C9.30572 24.3281 1.67189 16.6942 1.67189 7.31245C1.66709 5.92664 2.16718 4.58652 3.07868 3.54264C3.99017 2.49877 5.25066 1.82261 6.62447 1.64058C6.64507 1.63934 6.66574 1.63934 6.68634 1.64058C6.78807 1.64144 6.88726 1.67238 6.97144 1.7295C7.05562 1.78661 7.12103 1.86735 7.15943 1.96155L9.88064 8.03819C9.91239 8.11246 9.92625 8.19315 9.9211 8.27376C9.91595 8.35436 9.89193 8.43263 9.85099 8.50226L7.11947 11.7507C7.10658 11.7675 7.09369 11.7829 7.08208 11.801C6.93656 12.0235 6.85086 12.2798 6.83324 12.5451C6.81563 12.8104 6.86671 13.0758 6.98154 13.3156C8.10173 15.6089 10.4117 17.9021 12.7308 19.0223C12.9722 19.1364 13.2391 19.186 13.5054 19.1664C13.7718 19.1467 14.0285 19.0584 14.2506 18.9101L14.2983 18.8741L17.499 16.1516C17.5675 16.1097 17.6449 16.0848 17.7249 16.0787C17.8049 16.0727 17.8852 16.0857 17.9592 16.1167L24.0449 18.8444C24.1476 18.8872 24.2337 18.962 24.2904 19.0577C24.3471 19.1534 24.3713 19.2649 24.3594 19.3755Z" fill="black"/>
</svg>
