<svg width="89" height="97" viewBox="0 0 89 97" fill="none" xmlns="http://www.w3.org/2000/svg">
<path d="M77.875 84.875H11.125C8.05728 84.875 5.5625 82.156 5.5625 78.8125V60.625H11.125V78.8125H77.875V60.625H83.4375V78.8125C83.4375 82.156 80.9427 84.875 77.875 84.875Z" fill="black"/>
<path d="M47.2812 51.5312V63.6562C47.2812 64.4602 47.5743 65.2312 48.0959 65.7997C48.6174 66.3681 49.3249 66.6875 50.0625 66.6875H61.1875C61.9251 66.6875 62.6326 66.3681 63.1541 65.7997C63.6757 65.2312 63.9688 64.4602 63.9688 63.6562V51.5312C63.9688 50.7273 63.6757 49.9563 63.1541 49.3878C62.6326 48.8194 61.9251 48.5 61.1875 48.5H50.0625C49.3249 48.5 48.6174 48.8194 48.0959 49.3878C47.5743 49.9563 47.2812 50.7273 47.2812 51.5312ZM52.8438 54.5625H58.4062V60.625H52.8438V54.5625ZM25.0312 51.5312V63.6562C25.0312 64.4602 25.3243 65.2312 25.8459 65.7997C26.3674 66.3681 27.0749 66.6875 27.8125 66.6875H38.9375C39.6751 66.6875 40.3826 66.3681 40.9041 65.7997C41.4257 65.2312 41.7188 64.4602 41.7188 63.6562V51.5312C41.7188 50.7273 41.4257 49.9563 40.9041 49.3878C40.3826 48.8194 39.6751 48.5 38.9375 48.5H27.8125C27.0749 48.5 26.3674 48.8194 25.8459 49.3878C25.3243 49.9563 25.0312 50.7273 25.0312 51.5312ZM30.5938 54.5625H36.1562V60.625H30.5938V54.5625ZM47.2812 27.2812V39.4062C47.2812 40.2102 47.5743 40.9812 48.0959 41.5497C48.6174 42.1181 49.3249 42.4375 50.0625 42.4375H61.1875C61.9251 42.4375 62.6326 42.1181 63.1541 41.5497C63.6757 40.9812 63.9688 40.2102 63.9688 39.4062V27.2812C63.9688 26.4773 63.6757 25.7063 63.1541 25.1378C62.6326 24.5694 61.9251 24.25 61.1875 24.25H50.0625C49.3249 24.25 48.6174 24.5694 48.0959 25.1378C47.5743 25.7063 47.2812 26.4773 47.2812 27.2812ZM52.8438 30.3125H58.4062V36.375H52.8438V30.3125ZM13.9062 15.1562V39.4062C13.9062 40.2102 14.1993 40.9812 14.7209 41.5497C15.2424 42.1181 15.9499 42.4375 16.6875 42.4375H38.9375C39.6751 42.4375 40.3826 42.1181 40.9041 41.5497C41.4257 40.9812 41.7188 40.2102 41.7188 39.4062V15.1562C41.7188 14.3523 41.4257 13.5813 40.9041 13.0128C40.3826 12.4444 39.6751 12.125 38.9375 12.125H16.6875C15.9499 12.125 15.2424 12.4444 14.7209 13.0128C14.1993 13.5813 13.9062 14.3523 13.9062 15.1562ZM19.4688 18.1875H36.1562V36.375H19.4688V18.1875Z" fill="black"/>
</svg>
