<svg width="24" height="24" viewBox="0 0 24 24" fill="none" xmlns="http://www.w3.org/2000/svg">
<path d="M7.24 1.99316H5.34C3.15 1.99316 2 3.14316 2 5.32316V7.22316C2 9.40316 3.15 10.5532 5.33 10.5532H7.23C9.41 10.5532 10.56 9.40316 10.56 7.22316V5.32316C10.57 3.14316 9.42 1.99316 7.24 1.99316Z" fill="#F6F6F6"/>
<path d="M18.6704 1.99316H16.7704C14.5904 1.99316 13.4404 3.14316 13.4404 5.32316V7.22316C13.4404 9.40316 14.5904 10.5532 16.7704 10.5532H18.6704C20.8504 10.5532 22.0004 9.40316 22.0004 7.22316V5.32316C22.0004 3.14316 20.8504 1.99316 18.6704 1.99316Z" fill="#F6F6F6"/>
<path d="M18.6704 13.4233H16.7704C14.5904 13.4233 13.4404 14.5733 13.4404 16.7533V18.6533C13.4404 20.8333 14.5904 21.9833 16.7704 21.9833H18.6704C20.8504 21.9833 22.0004 20.8333 22.0004 18.6533V16.7533C22.0004 14.5733 20.8504 13.4233 18.6704 13.4233Z" fill="#F6F6F6"/>
<path d="M7.24 13.4233H5.34C3.15 13.4233 2 14.5733 2 16.7533V18.6533C2 20.8433 3.15 21.9933 5.33 21.9933H7.23C9.41 21.9933 10.56 20.8433 10.56 18.6633V16.7633C10.57 14.5733 9.42 13.4233 7.24 13.4233Z" fill="#F6F6F6"/>
</svg>
