<svg width="22" height="23" viewBox="0 0 22 23" fill="none" xmlns="http://www.w3.org/2000/svg">
<path d="M15.6242 20.3703H5.87562C5.28131 20.3703 4.71134 20.1343 4.2911 19.714C3.87085 19.2938 3.63477 18.7238 3.63477 18.1295V17.3882C3.63477 13.8306 6.82664 10.9346 10.7499 10.9346C14.6732 10.9346 17.8651 13.8288 17.8651 17.3882V18.1295C17.8651 18.7238 17.629 19.2938 17.2088 19.714C16.7885 20.1343 16.2185 20.3703 15.6242 20.3703ZM10.7499 11.8327C7.32052 11.8327 4.53111 14.3245 4.53111 17.39V18.1313C4.53111 18.4879 4.67276 18.8299 4.92491 19.082C5.17705 19.3341 5.51903 19.4758 5.87562 19.4758H15.6242C15.9808 19.4758 16.3228 19.3341 16.5749 19.082C16.8271 18.8299 16.9687 18.4879 16.9687 18.1313V17.3882C16.9687 14.3245 14.1793 11.8327 10.7499 11.8327ZM10.7499 9.59095C10.0542 9.59112 9.37413 9.38499 8.7956 8.99862C8.21708 8.61225 7.76612 8.06299 7.49978 7.42031C7.23343 6.77764 7.16365 6.07041 7.29926 5.38807C7.43487 4.70573 7.76978 4.07894 8.26164 3.58695C8.7535 3.09497 9.38022 2.75989 10.0625 2.62411C10.7448 2.48832 11.4521 2.55792 12.0948 2.82411C12.7376 3.09029 13.2869 3.54111 13.6734 4.11953C14.06 4.69796 14.2663 5.37802 14.2663 6.0737C14.2656 7.00616 13.8949 7.90024 13.2356 8.55967C12.5764 9.2191 11.6824 9.59 10.7499 9.59095ZM10.7499 3.4537C10.2315 3.45352 9.72463 3.6071 9.29349 3.89503C8.86235 4.18295 8.52628 4.59227 8.3278 5.07121C8.12932 5.55015 8.07734 6.0772 8.17844 6.58569C8.27954 7.09418 8.52918 7.56126 8.89577 7.92786C9.26236 8.29445 9.72945 8.54409 10.2379 8.64518C10.7464 8.74628 11.2735 8.69431 11.7524 8.49583C12.2314 8.29734 12.6407 7.96128 12.9286 7.53014C13.2165 7.09899 13.3701 6.59214 13.3699 6.0737C13.3692 5.37905 13.093 4.71306 12.6018 4.22187C12.1106 3.73067 11.4446 3.45441 10.7499 3.4537Z" fill="#992B1C"/>
</svg>
