<svg width="1016" height="166" viewBox="0 0 1016 166" fill="none" xmlns="http://www.w3.org/2000/svg">
<g filter="url(#filter0_d_556_7484)">
<rect y="0.0322266" width="317" height="151" rx="5" fill="white"/>
<rect x="0.5" y="0.532227" width="316" height="150" rx="4.5" stroke="#C842CD"/>
<path d="M37.1814 31.8322V39.8322C37.1814 41.6322 36.7014 42.9856 35.7414 43.8922C34.7814 44.7856 33.3814 45.2322 31.5414 45.2322C29.7014 45.2322 28.3014 44.7856 27.3414 43.8922C26.3814 42.9856 25.9014 41.6322 25.9014 39.8322V31.8322H28.6614V39.7122C28.6614 40.8189 28.8947 41.6389 29.3614 42.1722C29.8414 42.7056 30.5681 42.9722 31.5414 42.9722C32.5147 42.9722 33.2347 42.7056 33.7014 42.1722C34.1681 41.6389 34.4014 40.8189 34.4014 39.7122V31.8322H37.1814ZM40.022 49.2322V35.0322H42.482L42.662 38.2122L42.322 37.8522C42.442 37.2656 42.662 36.7456 42.982 36.2922C43.3154 35.8389 43.7354 35.4856 44.242 35.2322C44.7487 34.9656 45.3154 34.8322 45.942 34.8322C46.7554 34.8322 47.482 35.0389 48.122 35.4522C48.762 35.8656 49.262 36.4589 49.622 37.2322C49.9954 37.9922 50.182 38.9189 50.182 40.0122C50.182 41.1056 49.9954 42.0456 49.622 42.8322C49.2487 43.6056 48.7354 44.1989 48.082 44.6122C47.442 45.0256 46.7087 45.2322 45.882 45.2322C45.002 45.2322 44.2687 44.9856 43.682 44.4922C43.1087 43.9989 42.7154 43.3789 42.502 42.6322L42.762 42.2122V49.2322H40.022ZM45.082 43.1322C45.8154 43.1322 46.3887 42.8722 46.802 42.3522C47.2287 41.8189 47.442 41.0456 47.442 40.0322C47.442 39.0189 47.2354 38.2522 46.822 37.7322C46.422 37.1989 45.8554 36.9322 45.122 36.9322C44.6554 36.9322 44.242 37.0589 43.882 37.3122C43.5354 37.5522 43.262 37.9056 43.062 38.3722C42.862 38.8256 42.762 39.3789 42.762 40.0322C42.762 40.6722 42.8554 41.2256 43.042 41.6922C43.2287 42.1589 43.4954 42.5189 43.842 42.7722C44.202 43.0122 44.6154 43.1322 45.082 43.1322ZM57.1011 34.8322C57.9944 34.8322 58.7478 34.9656 59.3611 35.2322C59.9878 35.4856 60.4878 35.8389 60.8611 36.2922C61.2478 36.7322 61.5211 37.2256 61.6811 37.7722L59.1211 38.6922C58.9878 38.0922 58.7611 37.6389 58.4411 37.3322C58.1211 37.0256 57.6878 36.8722 57.1411 36.8722C56.6344 36.8722 56.2011 36.9922 55.8411 37.2322C55.4811 37.4589 55.2078 37.8122 55.0211 38.2922C54.8344 38.7589 54.7411 39.3456 54.7411 40.0522C54.7411 40.7589 54.8344 41.3456 55.0211 41.8122C55.2211 42.2789 55.5011 42.6256 55.8611 42.8522C56.2344 43.0789 56.6678 43.1922 57.1611 43.1922C57.5611 43.1922 57.9011 43.1256 58.1811 42.9922C58.4611 42.8456 58.6878 42.6389 58.8611 42.3722C59.0478 42.1056 59.1744 41.7856 59.2411 41.4122L61.7211 42.2122C61.5744 42.8122 61.3011 43.3389 60.9011 43.7922C60.5011 44.2456 59.9878 44.5989 59.3611 44.8522C58.7344 45.1056 58.0078 45.2322 57.1811 45.2322C56.1544 45.2322 55.2478 45.0256 54.4611 44.6122C53.6744 44.1989 53.0678 43.6056 52.6411 42.8322C52.2144 42.0589 52.0011 41.1256 52.0011 40.0322C52.0011 38.9389 52.2144 38.0056 52.6411 37.2322C53.0678 36.4589 53.6678 35.8656 54.4411 35.4522C55.2144 35.0389 56.1011 34.8322 57.1011 34.8322ZM68.4102 34.8322C69.4235 34.8322 70.3102 35.0389 71.0702 35.4522C71.8435 35.8656 72.4435 36.4589 72.8702 37.2322C73.3102 38.0056 73.5302 38.9389 73.5302 40.0322C73.5302 41.1122 73.3102 42.0456 72.8702 42.8322C72.4435 43.6056 71.8435 44.1989 71.0702 44.6122C70.3102 45.0256 69.4235 45.2322 68.4102 45.2322C67.4102 45.2322 66.5235 45.0256 65.7502 44.6122C64.9768 44.1989 64.3702 43.6056 63.9302 42.8322C63.5035 42.0456 63.2902 41.1122 63.2902 40.0322C63.2902 38.9389 63.5035 38.0056 63.9302 37.2322C64.3702 36.4589 64.9768 35.8656 65.7502 35.4522C66.5235 35.0389 67.4102 34.8322 68.4102 34.8322ZM68.4102 36.8722C67.9035 36.8722 67.4702 36.9922 67.1102 37.2322C66.7635 37.4589 66.4968 37.8056 66.3102 38.2722C66.1235 38.7389 66.0302 39.3256 66.0302 40.0322C66.0302 40.7389 66.1235 41.3256 66.3102 41.7922C66.4968 42.2589 66.7635 42.6122 67.1102 42.8522C67.4702 43.0789 67.9035 43.1922 68.4102 43.1922C68.9035 43.1922 69.3235 43.0789 69.6702 42.8522C70.0302 42.6122 70.3035 42.2589 70.4902 41.7922C70.6768 41.3256 70.7702 40.7389 70.7702 40.0322C70.7702 39.3256 70.6768 38.7389 70.4902 38.2722C70.3035 37.8056 70.0302 37.4589 69.6702 37.2322C69.3235 36.9922 68.9035 36.8722 68.4102 36.8722ZM75.8228 45.0322V35.0322H78.2828L78.3828 36.8322C78.7161 36.1656 79.1695 35.6656 79.7428 35.3322C80.3295 34.9989 80.9761 34.8322 81.6828 34.8322C82.4028 34.8322 83.0495 34.9989 83.6228 35.3322C84.2095 35.6656 84.6495 36.1589 84.9428 36.8122C85.1561 36.3722 85.4428 36.0056 85.8028 35.7122C86.1628 35.4189 86.5628 35.1989 87.0028 35.0522C87.4428 34.9056 87.8895 34.8322 88.3428 34.8322C88.9961 34.8322 89.5895 34.9656 90.1228 35.2322C90.6695 35.4989 91.1028 35.8989 91.4228 36.4322C91.7428 36.9656 91.9028 37.6456 91.9028 38.4722V45.0322H89.1628V39.0122C89.1628 38.2789 89.0028 37.7589 88.6828 37.4522C88.3628 37.1456 87.9495 36.9922 87.4428 36.9922C87.0428 36.9922 86.6695 37.0922 86.3228 37.2922C85.9895 37.4922 85.7228 37.7922 85.5228 38.1922C85.3361 38.5789 85.2428 39.0656 85.2428 39.6522V45.0322H82.5028V39.0122C82.5028 38.2789 82.3361 37.7589 82.0028 37.4522C81.6828 37.1456 81.2695 36.9922 80.7628 36.9922C80.4161 36.9922 80.0695 37.0856 79.7228 37.2722C79.3895 37.4589 79.1095 37.7522 78.8828 38.1522C78.6695 38.5522 78.5628 39.0789 78.5628 39.7322V45.0322H75.8228ZM96.1091 33.5922C95.5357 33.5922 95.1091 33.4722 94.8291 33.2322C94.5491 32.9789 94.4091 32.6122 94.4091 32.1322C94.4091 31.6389 94.5491 31.2722 94.8291 31.0322C95.1091 30.7789 95.5357 30.6522 96.1091 30.6522C96.6824 30.6522 97.1091 30.7789 97.3891 31.0322C97.6691 31.2722 97.8091 31.6389 97.8091 32.1322C97.8091 32.6122 97.6691 32.9789 97.3891 33.2322C97.1091 33.4722 96.6824 33.5922 96.1091 33.5922ZM97.4691 35.0322V45.0322H94.7291V35.0322H97.4691ZM100.374 45.0322V35.0322H102.834L102.994 38.0322L102.654 37.7122C102.814 37.0589 103.067 36.5189 103.414 36.0922C103.76 35.6656 104.18 35.3522 104.674 35.1522C105.18 34.9389 105.734 34.8322 106.334 34.8322C107.027 34.8322 107.64 34.9656 108.174 35.2322C108.72 35.4989 109.147 35.9056 109.454 36.4522C109.774 36.9856 109.934 37.6589 109.934 38.4722V45.0322H107.194V39.2522C107.194 38.3989 107.027 37.8122 106.694 37.4922C106.36 37.1589 105.927 36.9922 105.394 36.9922C105.02 36.9922 104.654 37.0856 104.294 37.2722C103.947 37.4456 103.66 37.7322 103.434 38.1322C103.22 38.5322 103.114 39.0656 103.114 39.7322V45.0322H100.374ZM121.976 32.6522L122.296 34.6122C122.243 34.6122 122.183 34.6122 122.116 34.6122C122.063 34.5989 122.003 34.5922 121.936 34.5922C121.323 34.5922 120.863 34.7322 120.556 35.0122C120.25 35.2789 120.096 35.6522 120.096 36.1322L118.976 35.6722C118.976 35.1389 119.083 34.6456 119.296 34.1922C119.51 33.7256 119.823 33.3522 120.236 33.0722C120.663 32.7922 121.17 32.6522 121.756 32.6522C121.783 32.6522 121.816 32.6522 121.856 32.6522C121.896 32.6522 121.936 32.6522 121.976 32.6522ZM118.696 43.1522C119.776 43.1522 120.61 43.3856 121.196 43.8522C121.783 44.3189 122.076 44.9722 122.076 45.8122C122.076 46.5722 121.856 47.2122 121.416 47.7322C120.976 48.2656 120.356 48.6656 119.556 48.9322C118.77 49.1989 117.856 49.3322 116.816 49.3322C115.096 49.3322 113.836 49.0922 113.036 48.6122C112.25 48.1322 111.856 47.5056 111.856 46.7322C111.856 46.1856 112.063 45.7256 112.476 45.3522C112.903 44.9789 113.603 44.7722 114.576 44.7322L114.476 45.0522C113.783 44.9322 113.25 44.7056 112.876 44.3722C112.516 44.0256 112.336 43.5522 112.336 42.9522C112.336 42.3389 112.57 41.8389 113.036 41.4522C113.516 41.0522 114.163 40.8189 114.976 40.7522L116.176 41.3122H115.896C115.323 41.3522 114.916 41.4722 114.676 41.6722C114.45 41.8589 114.336 42.0722 114.336 42.3122C114.336 42.5922 114.443 42.8056 114.656 42.9522C114.883 43.0856 115.203 43.1522 115.616 43.1522H118.696ZM116.836 47.4522C117.53 47.4522 118.096 47.3922 118.536 47.2722C118.99 47.1522 119.323 46.9989 119.536 46.8122C119.763 46.6256 119.876 46.4189 119.876 46.1922C119.876 45.9389 119.776 45.7322 119.576 45.5722C119.376 45.4256 119.016 45.3522 118.496 45.3522H115.116C114.796 45.3522 114.53 45.4322 114.316 45.5922C114.116 45.7522 114.016 45.9722 114.016 46.2522C114.016 46.6256 114.263 46.9189 114.756 47.1322C115.263 47.3456 115.956 47.4522 116.836 47.4522ZM116.856 34.8322C117.79 34.8322 118.596 34.9722 119.276 35.2522C119.97 35.5189 120.496 35.9056 120.856 36.4122C121.23 36.9189 121.416 37.5256 121.416 38.2322C121.416 38.9256 121.23 39.5256 120.856 40.0322C120.496 40.5389 119.97 40.9322 119.276 41.2122C118.596 41.4789 117.79 41.6122 116.856 41.6122C115.376 41.6122 114.243 41.3122 113.456 40.7122C112.683 40.0989 112.296 39.2722 112.296 38.2322C112.296 37.5256 112.476 36.9189 112.836 36.4122C113.21 35.9056 113.736 35.5189 114.416 35.2522C115.096 34.9722 115.91 34.8322 116.856 34.8322ZM116.856 36.5522C116.323 36.5522 115.883 36.6989 115.536 36.9922C115.19 37.2856 115.016 37.6922 115.016 38.2122C115.016 38.7322 115.19 39.1456 115.536 39.4522C115.883 39.7456 116.323 39.8922 116.856 39.8922C117.39 39.8922 117.823 39.7456 118.156 39.4522C118.503 39.1456 118.676 38.7322 118.676 38.2122C118.676 37.6922 118.503 37.2856 118.156 36.9922C117.823 36.6989 117.39 36.5522 116.856 36.5522ZM130.126 45.0322V31.8322H140.026V34.0522H132.886V37.3322H138.506V39.4522H132.886V42.8122H140.306V45.0322H130.126ZM148.652 35.0322H151.492L147.692 45.0322H144.532L140.732 35.0322H143.652L146.132 42.9322L148.652 35.0322ZM157.533 45.2322C156.48 45.2322 155.56 45.0256 154.773 44.6122C154 44.1989 153.4 43.6056 152.973 42.8322C152.546 42.0589 152.333 41.1256 152.333 40.0322C152.333 38.9389 152.546 38.0056 152.973 37.2322C153.4 36.4589 153.993 35.8656 154.753 35.4522C155.526 35.0389 156.406 34.8322 157.393 34.8322C158.406 34.8322 159.266 35.0389 159.973 35.4522C160.68 35.8522 161.22 36.4056 161.593 37.1122C161.966 37.8056 162.153 38.5989 162.153 39.4922C162.153 39.7589 162.146 40.0122 162.133 40.2522C162.12 40.4922 162.1 40.7056 162.073 40.8922H154.093V38.9922H160.873L159.553 39.4722C159.553 38.6322 159.36 37.9856 158.973 37.5322C158.6 37.0789 158.066 36.8522 157.373 36.8522C156.866 36.8522 156.426 36.9722 156.053 37.2122C155.693 37.4522 155.42 37.8122 155.233 38.2922C155.046 38.7589 154.953 39.3522 154.953 40.0722C154.953 40.7789 155.053 41.3656 155.253 41.8322C155.466 42.2856 155.76 42.6256 156.133 42.8522C156.52 43.0789 156.98 43.1922 157.513 43.1922C158.1 43.1922 158.573 43.0789 158.933 42.8522C159.293 42.6256 159.573 42.3122 159.773 41.9122L161.953 42.7522C161.74 43.2722 161.413 43.7189 160.973 44.0922C160.546 44.4656 160.033 44.7522 159.433 44.9522C158.846 45.1389 158.213 45.2322 157.533 45.2322ZM164.475 45.0322V35.0322H166.935L167.095 38.0322L166.755 37.7122C166.915 37.0589 167.168 36.5189 167.515 36.0922C167.862 35.6656 168.282 35.3522 168.775 35.1522C169.282 34.9389 169.835 34.8322 170.435 34.8322C171.128 34.8322 171.742 34.9656 172.275 35.2322C172.822 35.4989 173.248 35.9056 173.555 36.4522C173.875 36.9856 174.035 37.6589 174.035 38.4722V45.0322H171.295V39.2522C171.295 38.3989 171.128 37.8122 170.795 37.4922C170.462 37.1589 170.028 36.9922 169.495 36.9922C169.122 36.9922 168.755 37.0856 168.395 37.2722C168.048 37.4456 167.762 37.7322 167.535 38.1322C167.322 38.5322 167.215 39.0656 167.215 39.7322V45.0322H164.475ZM180.32 31.9722V41.7722C180.32 42.2522 180.44 42.6056 180.68 42.8322C180.933 43.0456 181.273 43.1522 181.7 43.1522C182.033 43.1522 182.327 43.1056 182.58 43.0122C182.833 42.9056 183.06 42.7656 183.26 42.5922L183.7 44.4122C183.38 44.6656 182.98 44.8656 182.5 45.0122C182.02 45.1589 181.513 45.2322 180.98 45.2322C180.313 45.2322 179.72 45.1322 179.2 44.9322C178.693 44.7322 178.293 44.4122 178 43.9722C177.72 43.5322 177.58 42.9456 177.58 42.2122V32.7322L180.32 31.9722ZM183.52 35.0322V37.0722H175.74V35.0322H183.52ZM189.374 45.2322C188.36 45.2322 187.434 45.0522 186.594 44.6922C185.767 44.3322 185.094 43.8256 184.574 43.1722L186.154 41.5722C186.474 42.0522 186.9 42.4456 187.434 42.7522C187.967 43.0589 188.6 43.2122 189.334 43.2122C189.854 43.2122 190.267 43.1389 190.574 42.9922C190.894 42.8322 191.054 42.5856 191.054 42.2522C191.054 42.0389 190.98 41.8589 190.834 41.7122C190.687 41.5522 190.394 41.4256 189.954 41.3322L188.194 40.9722C187.034 40.7322 186.207 40.3722 185.714 39.8922C185.234 39.3989 184.994 38.7656 184.994 37.9922C184.994 37.4456 185.154 36.9322 185.474 36.4522C185.807 35.9722 186.3 35.5856 186.954 35.2922C187.607 34.9856 188.42 34.8322 189.394 34.8322C190.394 34.8322 191.26 34.9922 191.994 35.3122C192.74 35.6189 193.327 36.0789 193.754 36.6922L192.114 38.2922C191.82 37.8256 191.434 37.4722 190.954 37.2322C190.487 36.9789 189.994 36.8522 189.474 36.8522C189.1 36.8522 188.78 36.8922 188.514 36.9722C188.247 37.0522 188.047 37.1656 187.914 37.3122C187.78 37.4456 187.714 37.6189 187.714 37.8322C187.714 38.0456 187.807 38.2322 187.994 38.3922C188.18 38.5389 188.52 38.6656 189.014 38.7722L191.054 39.1922C192.04 39.3922 192.747 39.7322 193.174 40.2122C193.6 40.6789 193.814 41.2456 193.814 41.9122C193.814 42.5522 193.64 43.1256 193.294 43.6322C192.96 44.1256 192.46 44.5189 191.794 44.8122C191.14 45.0922 190.334 45.2322 189.374 45.2322Z" fill="#C842CD"/>
<path d="M36.2893 112.452C33.8533 112.452 31.7953 111.948 30.1153 110.94C28.4633 109.932 27.1053 108.392 26.0413 106.32L31.2493 103.716C31.6133 104.948 32.1873 105.942 32.9713 106.698C33.7553 107.454 34.9033 107.832 36.4153 107.832C37.4513 107.832 38.3333 107.65 39.0613 107.286C39.7893 106.922 40.3493 106.39 40.7413 105.69C41.1613 104.99 41.3713 104.136 41.3713 103.128C41.3713 102.12 41.1753 101.28 40.7833 100.608C40.4193 99.9082 39.8873 99.3902 39.1873 99.0542C38.4873 98.6902 37.6053 98.5082 36.5413 98.5082C35.8133 98.5082 35.1273 98.5782 34.4833 98.7182C33.8673 98.8582 33.3073 99.0822 32.8033 99.3902C32.2993 99.6702 31.8513 100.048 31.4593 100.524L26.9233 99.6842L28.6453 84.3122H45.4033V88.9742H33.0133L32.1733 95.7362L32.0473 96.2822H32.1313C32.7193 95.6102 33.5173 95.0922 34.5253 94.7282C35.5613 94.3642 36.7373 94.1822 38.0533 94.1822C39.8733 94.1822 41.4273 94.5462 42.7153 95.2742C44.0033 96.0022 44.9973 97.0242 45.6973 98.3402C46.3973 99.6282 46.7473 101.112 46.7473 102.792C46.7473 104.388 46.4813 105.802 45.9493 107.034C45.4173 108.238 44.6613 109.246 43.6813 110.058C42.7293 110.842 41.6233 111.444 40.3633 111.864C39.1033 112.256 37.7453 112.452 36.2893 112.452Z" fill="#0D0D0D"/>
</g>
<g filter="url(#filter1_d_556_7484)">
<rect x="349" y="0.0322266" width="317" height="151" rx="5" fill="white"/>
<rect x="349.5" y="0.532227" width="316" height="150" rx="4.5" stroke="#42CD87"/>
<path d="M386.098 41.3922C385.845 42.2456 385.445 42.9589 384.898 43.5322C384.351 44.1056 383.705 44.5322 382.958 44.8122C382.211 45.0922 381.391 45.2322 380.498 45.2322C379.191 45.2322 378.058 44.9589 377.098 44.4122C376.151 43.8656 375.418 43.0856 374.898 42.0722C374.391 41.0589 374.138 39.8456 374.138 38.4322C374.138 37.0189 374.391 35.8056 374.898 34.7922C375.418 33.7789 376.151 32.9989 377.098 32.4522C378.058 31.9056 379.178 31.6322 380.458 31.6322C381.365 31.6322 382.185 31.7589 382.918 32.0122C383.651 32.2522 384.271 32.6256 384.778 33.1322C385.298 33.6389 385.678 34.2789 385.918 35.0522L383.418 36.1122C383.191 35.3122 382.845 34.7456 382.378 34.4122C381.911 34.0656 381.311 33.8922 380.578 33.8922C379.858 33.8922 379.225 34.0656 378.678 34.4122C378.145 34.7589 377.731 35.2722 377.438 35.9522C377.145 36.6189 376.998 37.4456 376.998 38.4322C376.998 39.4056 377.131 40.2322 377.398 40.9122C377.678 41.5922 378.085 42.1056 378.618 42.4522C379.151 42.7989 379.805 42.9722 380.578 42.9722C381.298 42.9722 381.918 42.7789 382.438 42.3922C382.971 42.0056 383.345 41.4189 383.558 40.6322L386.098 41.3922ZM392.73 34.8322C393.744 34.8322 394.63 35.0389 395.39 35.4522C396.164 35.8656 396.764 36.4589 397.19 37.2322C397.63 38.0056 397.85 38.9389 397.85 40.0322C397.85 41.1122 397.63 42.0456 397.19 42.8322C396.764 43.6056 396.164 44.1989 395.39 44.6122C394.63 45.0256 393.744 45.2322 392.73 45.2322C391.73 45.2322 390.844 45.0256 390.07 44.6122C389.297 44.1989 388.69 43.6056 388.25 42.8322C387.824 42.0456 387.61 41.1122 387.61 40.0322C387.61 38.9389 387.824 38.0056 388.25 37.2322C388.69 36.4589 389.297 35.8656 390.07 35.4522C390.844 35.0389 391.73 34.8322 392.73 34.8322ZM392.73 36.8722C392.224 36.8722 391.79 36.9922 391.43 37.2322C391.084 37.4589 390.817 37.8056 390.63 38.2722C390.444 38.7389 390.35 39.3256 390.35 40.0322C390.35 40.7389 390.444 41.3256 390.63 41.7922C390.817 42.2589 391.084 42.6122 391.43 42.8522C391.79 43.0789 392.224 43.1922 392.73 43.1922C393.224 43.1922 393.644 43.0789 393.99 42.8522C394.35 42.6122 394.624 42.2589 394.81 41.7922C394.997 41.3256 395.09 40.7389 395.09 40.0322C395.09 39.3256 394.997 38.7389 394.81 38.2722C394.624 37.8056 394.35 37.4589 393.99 37.2322C393.644 36.9922 393.224 36.8722 392.73 36.8722ZM400.143 45.0322V35.0322H402.603L402.703 36.8322C403.036 36.1656 403.49 35.6656 404.063 35.3322C404.65 34.9989 405.296 34.8322 406.003 34.8322C406.723 34.8322 407.37 34.9989 407.943 35.3322C408.53 35.6656 408.97 36.1589 409.263 36.8122C409.476 36.3722 409.763 36.0056 410.123 35.7122C410.483 35.4189 410.883 35.1989 411.323 35.0522C411.763 34.9056 412.21 34.8322 412.663 34.8322C413.316 34.8322 413.91 34.9656 414.443 35.2322C414.99 35.4989 415.423 35.8989 415.743 36.4322C416.063 36.9656 416.223 37.6456 416.223 38.4722V45.0322H413.483V39.0122C413.483 38.2789 413.323 37.7589 413.003 37.4522C412.683 37.1456 412.27 36.9922 411.763 36.9922C411.363 36.9922 410.99 37.0922 410.643 37.2922C410.31 37.4922 410.043 37.7922 409.843 38.1922C409.656 38.5789 409.563 39.0656 409.563 39.6522V45.0322H406.823V39.0122C406.823 38.2789 406.656 37.7589 406.323 37.4522C406.003 37.1456 405.59 36.9922 405.083 36.9922C404.736 36.9922 404.39 37.0856 404.043 37.2722C403.71 37.4589 403.43 37.7522 403.203 38.1522C402.99 38.5522 402.883 39.0789 402.883 39.7322V45.0322H400.143ZM419.049 49.2322V35.0322H421.509L421.689 38.2122L421.349 37.8522C421.469 37.2656 421.689 36.7456 422.009 36.2922C422.343 35.8389 422.763 35.4856 423.269 35.2322C423.776 34.9656 424.343 34.8322 424.969 34.8322C425.783 34.8322 426.509 35.0389 427.149 35.4522C427.789 35.8656 428.289 36.4589 428.649 37.2322C429.023 37.9922 429.209 38.9189 429.209 40.0122C429.209 41.1056 429.023 42.0456 428.649 42.8322C428.276 43.6056 427.763 44.1989 427.109 44.6122C426.469 45.0256 425.736 45.2322 424.909 45.2322C424.029 45.2322 423.296 44.9856 422.709 44.4922C422.136 43.9989 421.743 43.3789 421.529 42.6322L421.789 42.2122V49.2322H419.049ZM424.109 43.1322C424.843 43.1322 425.416 42.8722 425.829 42.3522C426.256 41.8189 426.469 41.0456 426.469 40.0322C426.469 39.0189 426.263 38.2522 425.849 37.7322C425.449 37.1989 424.883 36.9322 424.149 36.9322C423.683 36.9322 423.269 37.0589 422.909 37.3122C422.563 37.5522 422.289 37.9056 422.089 38.3722C421.889 38.8256 421.789 39.3789 421.789 40.0322C421.789 40.6722 421.883 41.2256 422.069 41.6922C422.256 42.1589 422.523 42.5189 422.869 42.7722C423.229 43.0122 423.643 43.1322 424.109 43.1322ZM434.288 30.6522V41.9522C434.288 42.4189 434.368 42.7456 434.528 42.9322C434.688 43.1189 434.955 43.2122 435.328 43.2122C435.555 43.2122 435.742 43.1989 435.888 43.1722C436.035 43.1322 436.222 43.0789 436.448 43.0122L436.208 44.8122C435.982 44.9456 435.695 45.0456 435.348 45.1122C435.015 45.1922 434.682 45.2322 434.348 45.2322C433.375 45.2322 432.662 44.9989 432.208 44.5322C431.768 44.0522 431.548 43.2922 431.548 42.2522V30.6522H434.288ZM442.615 45.2322C441.562 45.2322 440.642 45.0256 439.855 44.6122C439.082 44.1989 438.482 43.6056 438.055 42.8322C437.628 42.0589 437.415 41.1256 437.415 40.0322C437.415 38.9389 437.628 38.0056 438.055 37.2322C438.482 36.4589 439.075 35.8656 439.835 35.4522C440.608 35.0389 441.488 34.8322 442.475 34.8322C443.488 34.8322 444.348 35.0389 445.055 35.4522C445.762 35.8522 446.302 36.4056 446.675 37.1122C447.048 37.8056 447.235 38.5989 447.235 39.4922C447.235 39.7589 447.228 40.0122 447.215 40.2522C447.202 40.4922 447.182 40.7056 447.155 40.8922H439.175V38.9922H445.955L444.635 39.4722C444.635 38.6322 444.442 37.9856 444.055 37.5322C443.682 37.0789 443.148 36.8522 442.455 36.8522C441.948 36.8522 441.508 36.9722 441.135 37.2122C440.775 37.4522 440.502 37.8122 440.315 38.2922C440.128 38.7589 440.035 39.3522 440.035 40.0722C440.035 40.7789 440.135 41.3656 440.335 41.8322C440.548 42.2856 440.842 42.6256 441.215 42.8522C441.602 43.0789 442.062 43.1922 442.595 43.1922C443.182 43.1922 443.655 43.0789 444.015 42.8522C444.375 42.6256 444.655 42.3122 444.855 41.9122L447.035 42.7522C446.822 43.2722 446.495 43.7189 446.055 44.0922C445.628 44.4656 445.115 44.7522 444.515 44.9522C443.928 45.1389 443.295 45.2322 442.615 45.2322ZM452.921 31.9722V41.7722C452.921 42.2522 453.041 42.6056 453.281 42.8322C453.535 43.0456 453.875 43.1522 454.301 43.1522C454.635 43.1522 454.928 43.1056 455.181 43.0122C455.435 42.9056 455.661 42.7656 455.861 42.5922L456.301 44.4122C455.981 44.6656 455.581 44.8656 455.101 45.0122C454.621 45.1589 454.115 45.2322 453.581 45.2322C452.915 45.2322 452.321 45.1322 451.801 44.9322C451.295 44.7322 450.895 44.4122 450.601 43.9722C450.321 43.5322 450.181 42.9456 450.181 42.2122V32.7322L452.921 31.9722ZM456.121 35.0322V37.0722H448.341V35.0322H456.121ZM462.615 45.2322C461.562 45.2322 460.642 45.0256 459.855 44.6122C459.082 44.1989 458.482 43.6056 458.055 42.8322C457.628 42.0589 457.415 41.1256 457.415 40.0322C457.415 38.9389 457.628 38.0056 458.055 37.2322C458.482 36.4589 459.075 35.8656 459.835 35.4522C460.608 35.0389 461.488 34.8322 462.475 34.8322C463.488 34.8322 464.348 35.0389 465.055 35.4522C465.762 35.8522 466.302 36.4056 466.675 37.1122C467.048 37.8056 467.235 38.5989 467.235 39.4922C467.235 39.7589 467.228 40.0122 467.215 40.2522C467.202 40.4922 467.182 40.7056 467.155 40.8922H459.175V38.9922H465.955L464.635 39.4722C464.635 38.6322 464.442 37.9856 464.055 37.5322C463.682 37.0789 463.148 36.8522 462.455 36.8522C461.948 36.8522 461.508 36.9722 461.135 37.2122C460.775 37.4522 460.502 37.8122 460.315 38.2922C460.128 38.7589 460.035 39.3522 460.035 40.0722C460.035 40.7789 460.135 41.3656 460.335 41.8322C460.548 42.2856 460.842 42.6256 461.215 42.8522C461.602 43.0789 462.062 43.1922 462.595 43.1922C463.182 43.1922 463.655 43.0789 464.015 42.8522C464.375 42.6256 464.655 42.3122 464.855 41.9122L467.035 42.7522C466.822 43.2722 466.495 43.7189 466.055 44.0922C465.628 44.4656 465.115 44.7522 464.515 44.9522C463.928 45.1389 463.295 45.2322 462.615 45.2322ZM473.337 45.2322C472.511 45.2322 471.771 45.0256 471.117 44.6122C470.477 44.1989 469.971 43.6056 469.597 42.8322C469.237 42.0589 469.057 41.1322 469.057 40.0522C469.057 38.9456 469.251 38.0056 469.637 37.2322C470.024 36.4456 470.544 35.8522 471.197 35.4522C471.864 35.0389 472.611 34.8322 473.437 34.8322C474.317 34.8322 475.044 35.0856 475.617 35.5922C476.191 36.0989 476.564 36.7522 476.737 37.5522L476.477 37.8722V30.6522H479.217V45.0322H476.757L476.577 41.9922L476.917 42.1522C476.824 42.7789 476.611 43.3256 476.277 43.7922C475.944 44.2456 475.524 44.5989 475.017 44.8522C474.511 45.1056 473.951 45.2322 473.337 45.2322ZM474.137 43.1322C474.617 43.1322 475.031 43.0122 475.377 42.7722C475.724 42.5189 475.991 42.1522 476.177 41.6722C476.377 41.1922 476.477 40.6189 476.477 39.9522C476.477 39.3122 476.384 38.7722 476.197 38.3322C476.011 37.8789 475.744 37.5322 475.397 37.2922C475.051 37.0522 474.644 36.9322 474.177 36.9322C473.431 36.9322 472.844 37.1989 472.417 37.7322C472.004 38.2522 471.797 39.0189 471.797 40.0322C471.797 41.0456 472.004 41.8189 472.417 42.3522C472.831 42.8722 473.404 43.1322 474.137 43.1322ZM488.49 45.0322V31.8322H498.39V34.0522H491.25V37.3322H496.87V39.4522H491.25V42.8122H498.67V45.0322H488.49ZM507.016 35.0322H509.856L506.056 45.0322H502.896L499.096 35.0322H502.016L504.496 42.9322L507.016 35.0322ZM515.896 45.2322C514.843 45.2322 513.923 45.0256 513.136 44.6122C512.363 44.1989 511.763 43.6056 511.336 42.8322C510.91 42.0589 510.696 41.1256 510.696 40.0322C510.696 38.9389 510.91 38.0056 511.336 37.2322C511.763 36.4589 512.356 35.8656 513.116 35.4522C513.89 35.0389 514.77 34.8322 515.756 34.8322C516.77 34.8322 517.63 35.0389 518.336 35.4522C519.043 35.8522 519.583 36.4056 519.956 37.1122C520.33 37.8056 520.516 38.5989 520.516 39.4922C520.516 39.7589 520.51 40.0122 520.496 40.2522C520.483 40.4922 520.463 40.7056 520.436 40.8922H512.456V38.9922H519.236L517.916 39.4722C517.916 38.6322 517.723 37.9856 517.336 37.5322C516.963 37.0789 516.43 36.8522 515.736 36.8522C515.23 36.8522 514.79 36.9722 514.416 37.2122C514.056 37.4522 513.783 37.8122 513.596 38.2922C513.41 38.7589 513.316 39.3522 513.316 40.0722C513.316 40.7789 513.416 41.3656 513.616 41.8322C513.83 42.2856 514.123 42.6256 514.496 42.8522C514.883 43.0789 515.343 43.1922 515.876 43.1922C516.463 43.1922 516.936 43.0789 517.296 42.8522C517.656 42.6256 517.936 42.3122 518.136 41.9122L520.316 42.7522C520.103 43.2722 519.776 43.7189 519.336 44.0922C518.91 44.4656 518.396 44.7522 517.796 44.9522C517.21 45.1389 516.576 45.2322 515.896 45.2322ZM522.838 45.0322V35.0322H525.298L525.458 38.0322L525.118 37.7122C525.278 37.0589 525.532 36.5189 525.878 36.0922C526.225 35.6656 526.645 35.3522 527.138 35.1522C527.645 34.9389 528.198 34.8322 528.798 34.8322C529.492 34.8322 530.105 34.9656 530.638 35.2322C531.185 35.4989 531.612 35.9056 531.918 36.4522C532.238 36.9856 532.398 37.6589 532.398 38.4722V45.0322H529.658V39.2522C529.658 38.3989 529.492 37.8122 529.158 37.4922C528.825 37.1589 528.392 36.9922 527.858 36.9922C527.485 36.9922 527.118 37.0856 526.758 37.2722C526.412 37.4456 526.125 37.7322 525.898 38.1322C525.685 38.5322 525.578 39.0656 525.578 39.7322V45.0322H522.838ZM538.683 31.9722V41.7722C538.683 42.2522 538.803 42.6056 539.043 42.8322C539.296 43.0456 539.636 43.1522 540.063 43.1522C540.396 43.1522 540.69 43.1056 540.943 43.0122C541.196 42.9056 541.423 42.7656 541.623 42.5922L542.063 44.4122C541.743 44.6656 541.343 44.8656 540.863 45.0122C540.383 45.1589 539.876 45.2322 539.343 45.2322C538.676 45.2322 538.083 45.1322 537.563 44.9322C537.056 44.7322 536.656 44.4122 536.363 43.9722C536.083 43.5322 535.943 42.9456 535.943 42.2122V32.7322L538.683 31.9722ZM541.883 35.0322V37.0722H534.103V35.0322H541.883ZM547.737 45.2322C546.724 45.2322 545.797 45.0522 544.957 44.6922C544.13 44.3322 543.457 43.8256 542.937 43.1722L544.517 41.5722C544.837 42.0522 545.264 42.4456 545.797 42.7522C546.33 43.0589 546.964 43.2122 547.697 43.2122C548.217 43.2122 548.63 43.1389 548.937 42.9922C549.257 42.8322 549.417 42.5856 549.417 42.2522C549.417 42.0389 549.344 41.8589 549.197 41.7122C549.05 41.5522 548.757 41.4256 548.317 41.3322L546.557 40.9722C545.397 40.7322 544.57 40.3722 544.077 39.8922C543.597 39.3989 543.357 38.7656 543.357 37.9922C543.357 37.4456 543.517 36.9322 543.837 36.4522C544.17 35.9722 544.664 35.5856 545.317 35.2922C545.97 34.9856 546.784 34.8322 547.757 34.8322C548.757 34.8322 549.624 34.9922 550.357 35.3122C551.104 35.6189 551.69 36.0789 552.117 36.6922L550.477 38.2922C550.184 37.8256 549.797 37.4722 549.317 37.2322C548.85 36.9789 548.357 36.8522 547.837 36.8522C547.464 36.8522 547.144 36.8922 546.877 36.9722C546.61 37.0522 546.41 37.1656 546.277 37.3122C546.144 37.4456 546.077 37.6189 546.077 37.8322C546.077 38.0456 546.17 38.2322 546.357 38.3922C546.544 38.5389 546.884 38.6656 547.377 38.7722L549.417 39.1922C550.404 39.3922 551.11 39.7322 551.537 40.2122C551.964 40.6789 552.177 41.2456 552.177 41.9122C552.177 42.5522 552.004 43.1256 551.657 43.6322C551.324 44.1256 550.824 44.5189 550.157 44.8122C549.504 45.0922 548.697 45.2322 547.737 45.2322Z" fill="#42CD87"/>
<path d="M385.701 112.452C382.929 112.452 380.563 111.878 378.603 110.73C376.671 109.554 375.341 107.874 374.613 105.69L380.073 103.296C380.269 104.304 380.591 105.144 381.039 105.816C381.487 106.46 382.089 106.95 382.845 107.286C383.629 107.622 384.553 107.79 385.617 107.79C386.569 107.79 387.367 107.622 388.011 107.286C388.683 106.95 389.201 106.474 389.565 105.858C389.929 105.242 390.111 104.542 390.111 103.758C390.111 102.918 389.943 102.232 389.607 101.7C389.299 101.168 388.823 100.79 388.179 100.566C387.535 100.314 386.723 100.188 385.743 100.188C385.379 100.188 385.029 100.202 384.693 100.23C384.385 100.23 384.035 100.258 383.643 100.314V96.0722C383.867 96.1002 384.091 96.1282 384.315 96.1562C384.567 96.1562 384.819 96.1562 385.071 96.1562C386.639 96.1562 387.759 95.8482 388.431 95.2322C389.131 94.5882 389.481 93.5662 389.481 92.1662C389.481 91.0182 389.131 90.1362 388.431 89.5202C387.759 88.8762 386.793 88.5542 385.533 88.5542C384.189 88.5542 383.125 88.8902 382.341 89.5622C381.557 90.2062 381.011 91.2002 380.703 92.5442L375.537 90.6122C375.873 89.2122 376.517 88.0082 377.469 87.0002C378.449 85.9922 379.653 85.2222 381.081 84.6902C382.509 84.1302 384.091 83.8502 385.827 83.8502C387.899 83.8502 389.621 84.1722 390.993 84.8162C392.393 85.4602 393.443 86.3422 394.143 87.4622C394.871 88.5822 395.235 89.8702 395.235 91.3262C395.235 92.4742 395.053 93.4542 394.689 94.2662C394.353 95.0502 393.905 95.7222 393.345 96.2822C392.813 96.8142 392.253 97.2202 391.665 97.5002C391.077 97.7802 390.531 97.9482 390.027 98.0042V98.1302C390.671 98.1582 391.329 98.2982 392.001 98.5502C392.673 98.7742 393.289 99.1242 393.849 99.6002C394.437 100.076 394.913 100.692 395.277 101.448C395.641 102.176 395.823 103.044 395.823 104.052C395.823 105.732 395.375 107.216 394.479 108.504C393.611 109.764 392.421 110.744 390.909 111.444C389.397 112.116 387.661 112.452 385.701 112.452ZM400.689 112.032V108.126C403.209 106.418 405.337 104.878 407.073 103.506C408.837 102.106 410.251 100.818 411.315 99.6422C412.407 98.4382 413.191 97.3042 413.667 96.2402C414.171 95.1762 414.423 94.1122 414.423 93.0482C414.423 91.7602 414.031 90.7102 413.247 89.8982C412.463 89.0582 411.357 88.6382 409.929 88.6382C408.361 88.6382 407.129 89.1702 406.233 90.2342C405.365 91.2982 404.889 92.8102 404.805 94.7702L399.807 92.8802C399.947 90.9762 400.451 89.3662 401.319 88.0502C402.215 86.7062 403.419 85.6842 404.931 84.9842C406.471 84.2562 408.235 83.8922 410.223 83.8922C411.931 83.8922 413.401 84.1302 414.633 84.6062C415.893 85.0822 416.929 85.7402 417.741 86.5802C418.581 87.3922 419.211 88.3302 419.631 89.3942C420.051 90.4582 420.261 91.5642 420.261 92.7122C420.261 94.5042 419.813 96.1982 418.917 97.7942C418.049 99.3902 416.705 100.972 414.885 102.54C413.065 104.108 410.755 105.76 407.955 107.496V107.538C408.375 107.51 408.879 107.482 409.467 107.454C410.083 107.426 410.713 107.412 411.357 107.412C412.001 107.384 412.561 107.37 413.037 107.37H420.681V112.032H400.689Z" fill="#0D0D0D"/>
</g>
<g filter="url(#filter2_d_556_7484)">
<rect x="698" y="0.0322266" width="317" height="151" rx="5" fill="white"/>
<rect x="698.5" y="0.532227" width="316" height="150" rx="4.5" stroke="#442277"/>
<path d="M729.736 31.6322C731.043 31.6322 732.17 31.9056 733.116 32.4522C734.063 32.9989 734.79 33.7789 735.296 34.7922C735.816 35.8056 736.076 37.0189 736.076 38.4322C736.076 39.8456 735.816 41.0589 735.296 42.0722C734.79 43.0856 734.063 43.8656 733.116 44.4122C732.17 44.9589 731.043 45.2322 729.736 45.2322C728.43 45.2322 727.296 44.9589 726.336 44.4122C725.39 43.8656 724.656 43.0856 724.136 42.0722C723.63 41.0589 723.376 39.8456 723.376 38.4322C723.376 37.0189 723.63 35.8056 724.136 34.7922C724.656 33.7789 725.39 32.9989 726.336 32.4522C727.296 31.9056 728.43 31.6322 729.736 31.6322ZM729.736 33.8922C728.99 33.8922 728.356 34.0656 727.836 34.4122C727.316 34.7589 726.916 35.2722 726.636 35.9522C726.37 36.6189 726.236 37.4456 726.236 38.4322C726.236 39.4056 726.37 40.2322 726.636 40.9122C726.916 41.5922 727.316 42.1056 727.836 42.4522C728.356 42.7989 728.99 42.9722 729.736 42.9722C730.47 42.9722 731.096 42.7989 731.616 42.4522C732.136 42.1056 732.53 41.5922 732.796 40.9122C733.076 40.2322 733.216 39.4056 733.216 38.4322C733.216 37.4456 733.076 36.6189 732.796 35.9522C732.53 35.2722 732.136 34.7589 731.616 34.4122C731.096 34.0656 730.47 33.8922 729.736 33.8922ZM738.522 45.0322V35.0322H740.982L741.142 38.0322L740.802 37.7122C740.962 37.0589 741.215 36.5189 741.562 36.0922C741.909 35.6656 742.329 35.3522 742.822 35.1522C743.329 34.9389 743.882 34.8322 744.482 34.8322C745.175 34.8322 745.789 34.9656 746.322 35.2322C746.869 35.4989 747.295 35.9056 747.602 36.4522C747.922 36.9856 748.082 37.6589 748.082 38.4722V45.0322H745.342V39.2522C745.342 38.3989 745.175 37.8122 744.842 37.4922C744.509 37.1589 744.075 36.9922 743.542 36.9922C743.169 36.9922 742.802 37.0856 742.442 37.2722C742.095 37.4456 741.809 37.7322 741.582 38.1322C741.369 38.5322 741.262 39.0656 741.262 39.7322V45.0322H738.522ZM760.125 32.6522L760.445 34.6122C760.392 34.6122 760.332 34.6122 760.265 34.6122C760.212 34.5989 760.152 34.5922 760.085 34.5922C759.472 34.5922 759.012 34.7322 758.705 35.0122C758.398 35.2789 758.245 35.6522 758.245 36.1322L757.125 35.6722C757.125 35.1389 757.232 34.6456 757.445 34.1922C757.658 33.7256 757.972 33.3522 758.385 33.0722C758.812 32.7922 759.318 32.6522 759.905 32.6522C759.932 32.6522 759.965 32.6522 760.005 32.6522C760.045 32.6522 760.085 32.6522 760.125 32.6522ZM756.845 43.1522C757.925 43.1522 758.758 43.3856 759.345 43.8522C759.932 44.3189 760.225 44.9722 760.225 45.8122C760.225 46.5722 760.005 47.2122 759.565 47.7322C759.125 48.2656 758.505 48.6656 757.705 48.9322C756.918 49.1989 756.005 49.3322 754.965 49.3322C753.245 49.3322 751.985 49.0922 751.185 48.6122C750.398 48.1322 750.005 47.5056 750.005 46.7322C750.005 46.1856 750.212 45.7256 750.625 45.3522C751.052 44.9789 751.752 44.7722 752.725 44.7322L752.625 45.0522C751.932 44.9322 751.398 44.7056 751.025 44.3722C750.665 44.0256 750.485 43.5522 750.485 42.9522C750.485 42.3389 750.718 41.8389 751.185 41.4522C751.665 41.0522 752.312 40.8189 753.125 40.7522L754.325 41.3122H754.045C753.472 41.3522 753.065 41.4722 752.825 41.6722C752.598 41.8589 752.485 42.0722 752.485 42.3122C752.485 42.5922 752.592 42.8056 752.805 42.9522C753.032 43.0856 753.352 43.1522 753.765 43.1522H756.845ZM754.985 47.4522C755.678 47.4522 756.245 47.3922 756.685 47.2722C757.138 47.1522 757.472 46.9989 757.685 46.8122C757.912 46.6256 758.025 46.4189 758.025 46.1922C758.025 45.9389 757.925 45.7322 757.725 45.5722C757.525 45.4256 757.165 45.3522 756.645 45.3522H753.265C752.945 45.3522 752.678 45.4322 752.465 45.5922C752.265 45.7522 752.165 45.9722 752.165 46.2522C752.165 46.6256 752.412 46.9189 752.905 47.1322C753.412 47.3456 754.105 47.4522 754.985 47.4522ZM755.005 34.8322C755.938 34.8322 756.745 34.9722 757.425 35.2522C758.118 35.5189 758.645 35.9056 759.005 36.4122C759.378 36.9189 759.565 37.5256 759.565 38.2322C759.565 38.9256 759.378 39.5256 759.005 40.0322C758.645 40.5389 758.118 40.9322 757.425 41.2122C756.745 41.4789 755.938 41.6122 755.005 41.6122C753.525 41.6122 752.392 41.3122 751.605 40.7122C750.832 40.0989 750.445 39.2722 750.445 38.2322C750.445 37.5256 750.625 36.9189 750.985 36.4122C751.358 35.9056 751.885 35.5189 752.565 35.2522C753.245 34.9722 754.058 34.8322 755.005 34.8322ZM755.005 36.5522C754.472 36.5522 754.032 36.6989 753.685 36.9922C753.338 37.2856 753.165 37.6922 753.165 38.2122C753.165 38.7322 753.338 39.1456 753.685 39.4522C754.032 39.7456 754.472 39.8922 755.005 39.8922C755.538 39.8922 755.972 39.7456 756.305 39.4522C756.652 39.1456 756.825 38.7322 756.825 38.2122C756.825 37.6922 756.652 37.2856 756.305 36.9922C755.972 36.6989 755.538 36.5522 755.005 36.5522ZM766.441 34.8322C767.455 34.8322 768.341 35.0389 769.101 35.4522C769.875 35.8656 770.475 36.4589 770.901 37.2322C771.341 38.0056 771.561 38.9389 771.561 40.0322C771.561 41.1122 771.341 42.0456 770.901 42.8322C770.475 43.6056 769.875 44.1989 769.101 44.6122C768.341 45.0256 767.455 45.2322 766.441 45.2322C765.441 45.2322 764.555 45.0256 763.781 44.6122C763.008 44.1989 762.401 43.6056 761.961 42.8322C761.535 42.0456 761.321 41.1122 761.321 40.0322C761.321 38.9389 761.535 38.0056 761.961 37.2322C762.401 36.4589 763.008 35.8656 763.781 35.4522C764.555 35.0389 765.441 34.8322 766.441 34.8322ZM766.441 36.8722C765.935 36.8722 765.501 36.9922 765.141 37.2322C764.795 37.4589 764.528 37.8056 764.341 38.2722C764.155 38.7389 764.061 39.3256 764.061 40.0322C764.061 40.7389 764.155 41.3256 764.341 41.7922C764.528 42.2589 764.795 42.6122 765.141 42.8522C765.501 43.0789 765.935 43.1922 766.441 43.1922C766.935 43.1922 767.355 43.0789 767.701 42.8522C768.061 42.6122 768.335 42.2589 768.521 41.7922C768.708 41.3256 768.801 40.7389 768.801 40.0322C768.801 39.3256 768.708 38.7389 768.521 38.2722C768.335 37.8056 768.061 37.4589 767.701 37.2322C767.355 36.9922 766.935 36.8722 766.441 36.8722ZM775.234 33.5922C774.661 33.5922 774.234 33.4722 773.954 33.2322C773.674 32.9789 773.534 32.6122 773.534 32.1322C773.534 31.6389 773.674 31.2722 773.954 31.0322C774.234 30.7789 774.661 30.6522 775.234 30.6522C775.807 30.6522 776.234 30.7789 776.514 31.0322C776.794 31.2722 776.934 31.6389 776.934 32.1322C776.934 32.6122 776.794 32.9789 776.514 33.2322C776.234 33.4722 775.807 33.5922 775.234 33.5922ZM776.594 35.0322V45.0322H773.854V35.0322H776.594ZM779.499 45.0322V35.0322H781.959L782.119 38.0322L781.779 37.7122C781.939 37.0589 782.192 36.5189 782.539 36.0922C782.885 35.6656 783.305 35.3522 783.799 35.1522C784.305 34.9389 784.859 34.8322 785.459 34.8322C786.152 34.8322 786.765 34.9656 787.299 35.2322C787.845 35.4989 788.272 35.9056 788.579 36.4522C788.899 36.9856 789.059 37.6589 789.059 38.4722V45.0322H786.319V39.2522C786.319 38.3989 786.152 37.8122 785.819 37.4922C785.485 37.1589 785.052 36.9922 784.519 36.9922C784.145 36.9922 783.779 37.0856 783.419 37.2722C783.072 37.4456 782.785 37.7322 782.559 38.1322C782.345 38.5322 782.239 39.0656 782.239 39.7322V45.0322H779.499ZM801.101 32.6522L801.421 34.6122C801.368 34.6122 801.308 34.6122 801.241 34.6122C801.188 34.5989 801.128 34.5922 801.061 34.5922C800.448 34.5922 799.988 34.7322 799.681 35.0122C799.375 35.2789 799.221 35.6522 799.221 36.1322L798.101 35.6722C798.101 35.1389 798.208 34.6456 798.421 34.1922C798.635 33.7256 798.948 33.3522 799.361 33.0722C799.788 32.7922 800.295 32.6522 800.881 32.6522C800.908 32.6522 800.941 32.6522 800.981 32.6522C801.021 32.6522 801.061 32.6522 801.101 32.6522ZM797.821 43.1522C798.901 43.1522 799.735 43.3856 800.321 43.8522C800.908 44.3189 801.201 44.9722 801.201 45.8122C801.201 46.5722 800.981 47.2122 800.541 47.7322C800.101 48.2656 799.481 48.6656 798.681 48.9322C797.895 49.1989 796.981 49.3322 795.941 49.3322C794.221 49.3322 792.961 49.0922 792.161 48.6122C791.375 48.1322 790.981 47.5056 790.981 46.7322C790.981 46.1856 791.188 45.7256 791.601 45.3522C792.028 44.9789 792.728 44.7722 793.701 44.7322L793.601 45.0522C792.908 44.9322 792.375 44.7056 792.001 44.3722C791.641 44.0256 791.461 43.5522 791.461 42.9522C791.461 42.3389 791.695 41.8389 792.161 41.4522C792.641 41.0522 793.288 40.8189 794.101 40.7522L795.301 41.3122H795.021C794.448 41.3522 794.041 41.4722 793.801 41.6722C793.575 41.8589 793.461 42.0722 793.461 42.3122C793.461 42.5922 793.568 42.8056 793.781 42.9522C794.008 43.0856 794.328 43.1522 794.741 43.1522H797.821ZM795.961 47.4522C796.655 47.4522 797.221 47.3922 797.661 47.2722C798.115 47.1522 798.448 46.9989 798.661 46.8122C798.888 46.6256 799.001 46.4189 799.001 46.1922C799.001 45.9389 798.901 45.7322 798.701 45.5722C798.501 45.4256 798.141 45.3522 797.621 45.3522H794.241C793.921 45.3522 793.655 45.4322 793.441 45.5922C793.241 45.7522 793.141 45.9722 793.141 46.2522C793.141 46.6256 793.388 46.9189 793.881 47.1322C794.388 47.3456 795.081 47.4522 795.961 47.4522ZM795.981 34.8322C796.915 34.8322 797.721 34.9722 798.401 35.2522C799.095 35.5189 799.621 35.9056 799.981 36.4122C800.355 36.9189 800.541 37.5256 800.541 38.2322C800.541 38.9256 800.355 39.5256 799.981 40.0322C799.621 40.5389 799.095 40.9322 798.401 41.2122C797.721 41.4789 796.915 41.6122 795.981 41.6122C794.501 41.6122 793.368 41.3122 792.581 40.7122C791.808 40.0989 791.421 39.2722 791.421 38.2322C791.421 37.5256 791.601 36.9189 791.961 36.4122C792.335 35.9056 792.861 35.5189 793.541 35.2522C794.221 34.9722 795.035 34.8322 795.981 34.8322ZM795.981 36.5522C795.448 36.5522 795.008 36.6989 794.661 36.9922C794.315 37.2856 794.141 37.6922 794.141 38.2122C794.141 38.7322 794.315 39.1456 794.661 39.4522C795.008 39.7456 795.448 39.8922 795.981 39.8922C796.515 39.8922 796.948 39.7456 797.281 39.4522C797.628 39.1456 797.801 38.7322 797.801 38.2122C797.801 37.6922 797.628 37.2856 797.281 36.9922C796.948 36.6989 796.515 36.5522 795.981 36.5522ZM809.251 45.0322V31.8322H819.151V34.0522H812.011V37.3322H817.631V39.4522H812.011V42.8122H819.431V45.0322H809.251ZM827.777 35.0322H830.617L826.817 45.0322H823.657L819.857 35.0322H822.777L825.257 42.9322L827.777 35.0322ZM836.658 45.2322C835.605 45.2322 834.685 45.0256 833.898 44.6122C833.125 44.1989 832.525 43.6056 832.098 42.8322C831.671 42.0589 831.458 41.1256 831.458 40.0322C831.458 38.9389 831.671 38.0056 832.098 37.2322C832.525 36.4589 833.118 35.8656 833.878 35.4522C834.651 35.0389 835.531 34.8322 836.518 34.8322C837.531 34.8322 838.391 35.0389 839.098 35.4522C839.805 35.8522 840.345 36.4056 840.718 37.1122C841.091 37.8056 841.278 38.5989 841.278 39.4922C841.278 39.7589 841.271 40.0122 841.258 40.2522C841.245 40.4922 841.225 40.7056 841.198 40.8922H833.218V38.9922H839.998L838.678 39.4722C838.678 38.6322 838.485 37.9856 838.098 37.5322C837.725 37.0789 837.191 36.8522 836.498 36.8522C835.991 36.8522 835.551 36.9722 835.178 37.2122C834.818 37.4522 834.545 37.8122 834.358 38.2922C834.171 38.7589 834.078 39.3522 834.078 40.0722C834.078 40.7789 834.178 41.3656 834.378 41.8322C834.591 42.2856 834.885 42.6256 835.258 42.8522C835.645 43.0789 836.105 43.1922 836.638 43.1922C837.225 43.1922 837.698 43.0789 838.058 42.8522C838.418 42.6256 838.698 42.3122 838.898 41.9122L841.078 42.7522C840.865 43.2722 840.538 43.7189 840.098 44.0922C839.671 44.4656 839.158 44.7522 838.558 44.9522C837.971 45.1389 837.338 45.2322 836.658 45.2322ZM843.6 45.0322V35.0322H846.06L846.22 38.0322L845.88 37.7122C846.04 37.0589 846.293 36.5189 846.64 36.0922C846.987 35.6656 847.407 35.3522 847.9 35.1522C848.407 34.9389 848.96 34.8322 849.56 34.8322C850.253 34.8322 850.867 34.9656 851.4 35.2322C851.947 35.4989 852.373 35.9056 852.68 36.4522C853 36.9856 853.16 37.6589 853.16 38.4722V45.0322H850.42V39.2522C850.42 38.3989 850.253 37.8122 849.92 37.4922C849.587 37.1589 849.153 36.9922 848.62 36.9922C848.247 36.9922 847.88 37.0856 847.52 37.2722C847.173 37.4456 846.887 37.7322 846.66 38.1322C846.447 38.5322 846.34 39.0656 846.34 39.7322V45.0322H843.6ZM859.445 31.9722V41.7722C859.445 42.2522 859.565 42.6056 859.805 42.8322C860.058 43.0456 860.398 43.1522 860.825 43.1522C861.158 43.1522 861.452 43.1056 861.705 43.0122C861.958 42.9056 862.185 42.7656 862.385 42.5922L862.825 44.4122C862.505 44.6656 862.105 44.8656 861.625 45.0122C861.145 45.1589 860.638 45.2322 860.105 45.2322C859.438 45.2322 858.845 45.1322 858.325 44.9322C857.818 44.7322 857.418 44.4122 857.125 43.9722C856.845 43.5322 856.705 42.9456 856.705 42.2122V32.7322L859.445 31.9722ZM862.645 35.0322V37.0722H854.865V35.0322H862.645ZM868.499 45.2322C867.485 45.2322 866.559 45.0522 865.719 44.6922C864.892 44.3322 864.219 43.8256 863.699 43.1722L865.279 41.5722C865.599 42.0522 866.025 42.4456 866.559 42.7522C867.092 43.0589 867.725 43.2122 868.459 43.2122C868.979 43.2122 869.392 43.1389 869.699 42.9922C870.019 42.8322 870.179 42.5856 870.179 42.2522C870.179 42.0389 870.105 41.8589 869.959 41.7122C869.812 41.5522 869.519 41.4256 869.079 41.3322L867.319 40.9722C866.159 40.7322 865.332 40.3722 864.839 39.8922C864.359 39.3989 864.119 38.7656 864.119 37.9922C864.119 37.4456 864.279 36.9322 864.599 36.4522C864.932 35.9722 865.425 35.5856 866.079 35.2922C866.732 34.9856 867.545 34.8322 868.519 34.8322C869.519 34.8322 870.385 34.9922 871.119 35.3122C871.865 35.6189 872.452 36.0789 872.879 36.6922L871.239 38.2922C870.945 37.8256 870.559 37.4722 870.079 37.2322C869.612 36.9789 869.119 36.8522 868.599 36.8522C868.225 36.8522 867.905 36.8922 867.639 36.9722C867.372 37.0522 867.172 37.1656 867.039 37.3122C866.905 37.4456 866.839 37.6189 866.839 37.8322C866.839 38.0456 866.932 38.2322 867.119 38.3922C867.305 38.5389 867.645 38.6656 868.139 38.7722L870.179 39.1922C871.165 39.3922 871.872 39.7322 872.299 40.2122C872.725 40.6789 872.939 41.2456 872.939 41.9122C872.939 42.5522 872.765 43.1256 872.419 43.6322C872.085 44.1256 871.585 44.5189 870.919 44.8122C870.265 45.0922 869.459 45.2322 868.499 45.2322Z" fill="#4277CD"/>
<path d="M723.563 84.3122H745.529V88.7222C743.205 91.0462 741.357 93.4402 739.985 95.9042C738.613 98.3682 737.619 100.93 737.003 103.59C736.415 106.25 736.121 109.064 736.121 112.032H730.367C730.367 108.952 730.745 105.998 731.501 103.17C732.285 100.314 733.475 97.5982 735.071 95.0222C736.695 92.4182 738.753 89.9262 741.245 87.5462L742.421 89.0582H723.563V84.3122Z" fill="#0D0D0D"/>
</g>
<defs>
<filter id="filter0_d_556_7484" x="-12" y="-9.96777" width="341" height="175" filterUnits="userSpaceOnUse" color-interpolation-filters="sRGB">
<feFlood flood-opacity="0" result="BackgroundImageFix"/>
<feColorMatrix in="SourceAlpha" type="matrix" values="0 0 0 0 0 0 0 0 0 0 0 0 0 0 0 0 0 0 127 0" result="hardAlpha"/>
<feOffset dy="2"/>
<feGaussianBlur stdDeviation="6"/>
<feComposite in2="hardAlpha" operator="out"/>
<feColorMatrix type="matrix" values="0 0 0 0 0 0 0 0 0 0 0 0 0 0 0 0 0 0 0.08 0"/>
<feBlend mode="normal" in2="BackgroundImageFix" result="effect1_dropShadow_556_7484"/>
<feBlend mode="normal" in="SourceGraphic" in2="effect1_dropShadow_556_7484" result="shape"/>
</filter>
<filter id="filter1_d_556_7484" x="337" y="-9.96777" width="341" height="175" filterUnits="userSpaceOnUse" color-interpolation-filters="sRGB">
<feFlood flood-opacity="0" result="BackgroundImageFix"/>
<feColorMatrix in="SourceAlpha" type="matrix" values="0 0 0 0 0 0 0 0 0 0 0 0 0 0 0 0 0 0 127 0" result="hardAlpha"/>
<feOffset dy="2"/>
<feGaussianBlur stdDeviation="6"/>
<feComposite in2="hardAlpha" operator="out"/>
<feColorMatrix type="matrix" values="0 0 0 0 0 0 0 0 0 0 0 0 0 0 0 0 0 0 0.08 0"/>
<feBlend mode="normal" in2="BackgroundImageFix" result="effect1_dropShadow_556_7484"/>
<feBlend mode="normal" in="SourceGraphic" in2="effect1_dropShadow_556_7484" result="shape"/>
</filter>
<filter id="filter2_d_556_7484" x="686" y="-9.96777" width="341" height="175" filterUnits="userSpaceOnUse" color-interpolation-filters="sRGB">
<feFlood flood-opacity="0" result="BackgroundImageFix"/>
<feColorMatrix in="SourceAlpha" type="matrix" values="0 0 0 0 0 0 0 0 0 0 0 0 0 0 0 0 0 0 127 0" result="hardAlpha"/>
<feOffset dy="2"/>
<feGaussianBlur stdDeviation="6"/>
<feComposite in2="hardAlpha" operator="out"/>
<feColorMatrix type="matrix" values="0 0 0 0 0 0 0 0 0 0 0 0 0 0 0 0 0 0 0.08 0"/>
<feBlend mode="normal" in2="BackgroundImageFix" result="effect1_dropShadow_556_7484"/>
<feBlend mode="normal" in="SourceGraphic" in2="effect1_dropShadow_556_7484" result="shape"/>
</filter>
</defs>
</svg>
