<svg width="24" height="24" viewBox="0 0 24 24" fill="none" xmlns="http://www.w3.org/2000/svg">
<path d="M7 11.9932C3 11.9932 3 13.7832 3 15.9932V16.9932C3 19.7532 3 21.9932 8 21.9932H16C20 21.9932 21 19.7532 21 16.9932V15.9932C21 13.7832 21 11.9932 17 11.9932C16 11.9932 15.72 12.2032 15.2 12.5932L14.18 13.6732C13 14.9332 11 14.9332 9.81 13.6732L8.8 12.5932C8.28 12.2032 8 11.9932 7 11.9932Z" stroke="#292D32" stroke-width="1.5" stroke-miterlimit="10" stroke-linecap="round" stroke-linejoin="round"/>
<path d="M19 11.9932V5.99316C19 3.78316 19 1.99316 15 1.99316H9C5 1.99316 5 3.78316 5 5.99316V11.9932" stroke="#292D32" stroke-width="1.5" stroke-miterlimit="10" stroke-linecap="round" stroke-linejoin="round"/>
<path d="M10.5498 9.22314H13.8798" stroke="#292D32" stroke-width="1.5" stroke-linecap="round" stroke-linejoin="round"/>
<path d="M9.71973 6.22314H14.7197" stroke="#292D32" stroke-width="1.5" stroke-linecap="round" stroke-linejoin="round"/>
</svg>
