<svg width="120" height="150" viewBox="0 0 120 150" fill="none" xmlns="http://www.w3.org/2000/svg">
<path d="M113.674 71.3979H6.32589C4.64874 71.3998 3.04083 72.0594 1.8549 73.2322C0.668975 74.4049 0.00189183 75.9949 0 77.6534V143.745C0.00190683 145.403 0.668988 146.993 1.85491 148.166C3.04083 149.339 4.64874 149.998 6.32589 150H113.674C115.351 149.998 116.959 149.339 118.145 148.166C119.331 146.993 119.998 145.403 120 143.745V77.6534C119.998 75.9949 119.331 74.4049 118.145 73.2321C116.959 72.0594 115.351 71.3997 113.674 71.3979Z" fill="#800000"/>
<path d="M113.674 71.3979H6.32589C4.64874 71.3998 3.04083 72.0594 1.8549 73.2322C0.668975 74.4049 0.00189183 75.9949 0 77.6534V143.745C0.00190683 145.403 0.668988 146.993 1.85491 148.166C3.04083 149.339 4.64874 149.998 6.32589 150H113.674C115.351 149.998 116.959 149.339 118.145 148.166C119.331 146.993 119.998 145.403 120 143.745V77.6534C119.998 75.9949 119.331 74.4049 118.145 73.2321C116.959 72.0594 115.351 71.3997 113.674 71.3979ZM115.75 118.872C115.724 125.601 113.033 132.051 108.253 136.84C103.473 141.629 96.9861 144.374 90.1829 144.487C79.2905 144.628 96.2096 144.682 83.0725 144.682C53.0324 144.682 21.7088 144.398 10.0216 144.214C8.48394 144.183 7.01958 143.558 5.9412 142.474C4.86282 141.39 4.25586 139.931 4.24992 138.41V77.6583C4.25053 77.1137 4.46923 76.5915 4.85819 76.2059C5.24715 75.8203 5.77471 75.6027 6.32546 75.6008H113.67C114.22 75.6014 114.748 75.8177 115.138 76.2022C115.528 76.5868 115.748 77.1083 115.75 77.6528V118.872Z" fill="#800000"/>
<path d="M100.46 33.3389H18.6718C17.9481 33.34 17.2425 33.5618 16.6511 33.9742C16.0597 34.3866 15.6114 34.9694 15.3674 35.6431L2.73583 70.6877C2.5473 71.2108 2.48852 71.771 2.56441 72.3212C2.6403 72.8714 2.84865 73.3956 3.17195 73.8496C3.49525 74.3037 3.92404 74.6743 4.4223 74.9305C4.92055 75.1866 5.47371 75.3207 6.03526 75.3215L115.726 75.514H115.731C116.312 75.514 116.883 75.3715 117.394 75.0993C117.905 74.8272 118.34 74.4338 118.66 73.9546C118.979 73.4754 119.174 72.9252 119.225 72.3534C119.277 71.7816 119.184 71.2061 118.956 70.6785L103.684 35.4414C103.414 34.8171 102.965 34.285 102.391 33.9112C101.818 33.5374 101.146 33.3384 100.46 33.3389Z" fill="#800000"/>
<path d="M119.24 71.4395C119.24 71.9094 119.143 72.3744 118.956 72.8063L103.685 99.9308C103.414 100.554 102.963 101.085 102.39 101.458C101.817 101.831 101.146 102.03 100.46 102.031H18.6735C17.9496 102.03 17.2435 101.809 16.6516 101.397C16.0598 100.984 15.6109 100.402 15.3663 99.728L2.73707 72.797C2.58227 72.3679 2.5145 71.9129 2.53762 71.4579C2.56075 71.003 2.67433 70.5569 2.87186 70.1454C3.06939 69.7339 3.34701 69.3649 3.68883 69.0595C4.03066 68.7541 4.43 68.5183 4.86403 68.3657C5.23948 68.2316 5.63562 68.163 6.03481 68.1628L19.434 68.1379L24.9029 68.1285L96.8659 68.0037L102.338 67.9943L115.728 67.9694H115.731C116.661 67.9695 117.554 68.3352 118.212 68.9859C118.87 69.6366 119.24 70.5192 119.24 71.4395Z" fill="#800000"/>
<path d="M14.3731 120.974C15.9949 120.974 38.2663 122.32 38.2663 123.924C38.2663 125.527 15.9949 126.782 14.3731 126.782C13.5943 126.782 12.8473 126.476 12.2966 125.931C11.7459 125.387 11.4365 124.648 11.4365 123.878C11.4365 123.108 11.7459 122.369 12.2966 121.824C12.8473 121.28 13.5943 120.974 14.3731 120.974Z" fill="#800000"/>
<path d="M95.3666 12.0212H26.4046C24.5564 12.0233 22.7846 12.7502 21.4777 14.0426C20.1709 15.3349 19.4357 17.087 19.4336 18.9146V102.033H100.46C101.125 102.035 101.777 101.847 102.338 101.493V18.9146C102.335 17.087 101.6 15.3349 100.293 14.0426C98.9866 12.7502 97.2148 12.0233 95.3666 12.0212Z" fill="#E6E6E6"/>
<path d="M69.0446 17.61H31.2517C29.5688 17.6116 27.9552 18.2732 26.7649 19.4497C25.5747 20.6261 24.9048 22.2214 24.9023 23.8856V102.032H96.8654V45.1215C96.8569 37.8275 93.9231 30.8348 88.7075 25.6772C83.4919 20.5196 76.4205 17.6184 69.0446 17.61Z" fill="white"/>
<path d="M84.6056 95.0912H37.1625C36.7524 95.0912 36.3591 95.2523 36.0691 95.5391C35.7791 95.8258 35.6162 96.2147 35.6162 96.6203C35.6162 97.0258 35.7791 97.4148 36.0691 97.7015C36.3591 97.9883 36.7524 98.1494 37.1625 98.1494H84.6056C85.0157 98.1494 85.409 97.9883 85.699 97.7015C85.989 97.4148 86.1519 97.0258 86.1519 96.6203C86.1519 96.2147 85.989 95.8258 85.699 95.5391C85.409 95.2523 85.0157 95.0912 84.6056 95.0912Z" fill="#E4E4E4"/>
<path d="M84.6062 89.0428H37.1631C36.7526 89.0428 36.3589 89.2041 36.0686 89.4911C35.7783 89.7782 35.6152 90.1675 35.6152 90.5735C35.6152 90.9794 35.7783 91.3687 36.0686 91.6558C36.3589 91.9429 36.7526 92.1041 37.1631 92.1041H84.6062C85.0168 92.1041 85.4105 91.9429 85.7008 91.6558C85.991 91.3687 86.1541 90.9794 86.1541 90.5735C86.1541 90.1675 85.991 89.7782 85.7008 89.4911C85.4105 89.2041 85.0168 89.0428 84.6062 89.0428Z" fill="#E4E4E4"/>
<path d="M57.7283 82.9982H37.1625C36.7524 82.9982 36.3591 83.1593 36.0691 83.4461C35.7791 83.7329 35.6162 84.1218 35.6162 84.5273C35.6162 84.9329 35.7791 85.3218 36.0691 85.6086C36.3591 85.8953 36.7524 86.0564 37.1625 86.0564H57.7283C58.1385 86.0564 58.5318 85.8953 58.8218 85.6086C59.1117 85.3218 59.2747 84.9329 59.2747 84.5273C59.2747 84.1218 59.1117 83.7329 58.8218 83.4461C58.5318 83.1593 58.1385 82.9982 57.7283 82.9982Z" fill="#E4E4E4"/>
<path d="M84.6062 70.3372H37.1631C36.7526 70.3372 36.3589 70.4984 36.0686 70.7855C35.7783 71.0725 35.6152 71.4619 35.6152 71.8678C35.6152 72.2738 35.7783 72.6631 36.0686 72.9502C36.3589 73.2372 36.7526 73.3985 37.1631 73.3985H84.6062C85.0168 73.3985 85.4105 73.2372 85.7008 72.9502C85.991 72.6631 86.1541 72.2738 86.1541 71.8678C86.1541 71.4619 85.991 71.0725 85.7008 70.7855C85.4105 70.4984 85.0168 70.3372 84.6062 70.3372Z" fill="#E4E4E4"/>
<path d="M84.6056 64.2926H37.1625C36.7524 64.2926 36.3591 64.4537 36.0691 64.7405C35.7791 65.0272 35.6162 65.4162 35.6162 65.8217C35.6162 66.2273 35.7791 66.6162 36.0691 66.9029C36.3591 67.1897 36.7524 67.3508 37.1625 67.3508H84.6056C85.0157 67.3508 85.409 67.1897 85.699 66.9029C85.989 66.6162 86.1519 66.2273 86.1519 65.8217C86.1519 65.4162 85.989 65.0272 85.699 64.7405C85.409 64.4537 85.0157 64.2926 84.6056 64.2926Z" fill="#E4E4E4"/>
<path d="M57.7289 58.2442H37.1631C36.7526 58.2442 36.3589 58.4055 36.0686 58.6925C35.7783 58.9796 35.6152 59.3689 35.6152 59.7749C35.6152 60.1808 35.7783 60.5702 36.0686 60.8572C36.3589 61.1443 36.7526 61.3055 37.1631 61.3055H57.7289C58.1395 61.3055 58.5332 61.1443 58.8235 60.8572C59.1138 60.5702 59.2768 60.1808 59.2768 59.7749C59.2768 59.3689 59.1138 58.9796 58.8235 58.6925C58.5332 58.4055 58.1395 58.2442 57.7289 58.2442Z" fill="#E4E4E4"/>
<path d="M84.6062 45.5792H37.1631C36.7526 45.5792 36.3589 45.7405 36.0686 46.0275C35.7783 46.3146 35.6152 46.7039 35.6152 47.1099C35.6152 47.5159 35.7783 47.9052 36.0686 48.1922C36.3589 48.4793 36.7526 48.6406 37.1631 48.6406H84.6062C85.0168 48.6406 85.4105 48.4793 85.7008 48.1922C85.991 47.9052 86.1541 47.5159 86.1541 47.1099C86.1541 46.7039 85.991 46.3146 85.7008 46.0275C85.4105 45.7405 85.0168 45.5792 84.6062 45.5792Z" fill="#800000"/>
<path d="M84.6062 39.5366H37.1631C36.7526 39.5366 36.3589 39.6979 36.0686 39.9849C35.7783 40.272 35.6152 40.6613 35.6152 41.0673C35.6152 41.4732 35.7783 41.8626 36.0686 42.1496C36.3589 42.4367 36.7526 42.598 37.1631 42.598H84.6062C85.0168 42.598 85.4105 42.4367 85.7008 42.1496C85.991 41.8626 86.1541 41.4732 86.1541 41.0673C86.1541 40.6613 85.991 40.272 85.7008 39.9849C85.4105 39.6979 85.0168 39.5366 84.6062 39.5366Z" fill="#800000"/>
<path d="M57.7289 33.4882H37.1631C36.7526 33.4882 36.3589 33.6495 36.0686 33.9365C35.7783 34.2236 35.6152 34.6129 35.6152 35.0189C35.6152 35.4248 35.7783 35.8142 36.0686 36.1012C36.3589 36.3883 36.7526 36.5496 37.1631 36.5496H57.7289C58.1395 36.5496 58.5332 36.3883 58.8235 36.1012C59.1138 35.8142 59.2768 35.4248 59.2768 35.0189C59.2768 34.6129 59.1138 34.2236 58.8235 33.9365C58.5332 33.6495 58.1395 33.4882 57.7289 33.4882Z" fill="#800000"/>
<path d="M99.7521 23.8184C106.403 23.8184 111.795 18.4865 111.795 11.9092C111.795 5.33193 106.403 0 99.7521 0C93.1009 0 87.709 5.33193 87.709 11.9092C87.709 18.4865 93.1009 23.8184 99.7521 23.8184Z" fill="#800000"/>
<path d="M98.1097 18.1076C97.9017 18.1076 97.6966 18.0597 97.5106 17.9677C97.3246 17.8757 97.1628 17.7421 97.0381 17.5776L93.7525 13.2455C93.6464 13.1064 93.5691 12.9479 93.525 12.7792C93.4809 12.6104 93.4709 12.4348 93.4956 12.2622C93.5203 12.0897 93.5792 11.9236 93.6689 11.7736C93.7586 11.6236 93.8773 11.4926 94.0183 11.388C94.1593 11.2835 94.3198 11.2074 94.4905 11.1643C94.6612 11.1212 94.8389 11.1118 95.0133 11.1367C95.1878 11.1616 95.3555 11.2202 95.507 11.3093C95.6584 11.3984 95.7906 11.5162 95.8959 11.6559L98.0455 14.4899L103.566 6.30092C103.763 6.00858 104.07 5.80563 104.418 5.73673C104.767 5.66782 105.128 5.7386 105.424 5.9335C105.72 6.12839 105.925 6.43143 105.995 6.77596C106.064 7.12048 105.993 7.47827 105.796 7.7706L99.2244 17.5176C99.1056 17.6939 98.9457 17.8395 98.7582 17.942C98.5707 18.0446 98.3611 18.1012 98.147 18.1072C98.1345 18.1074 98.1221 18.1076 98.1097 18.1076Z" fill="white"/>
</svg>
