<svg width="1015" height="152" viewBox="0 0 1015 152" fill="none" xmlns="http://www.w3.org/2000/svg">
<rect x="0.5" y="0.532227" width="491" height="150" rx="4.5" fill="white"/>
<rect x="0.5" y="0.532227" width="491" height="150" rx="4.5" stroke="#E1E1E1"/>
<path d="M29.0606 38.0342V40.0322H19.8986V28.1522H28.8086V30.1502H22.3826V33.1022H27.4406V35.0102H22.3826V38.0342H29.0606ZM39.1456 31.0322L35.7256 40.0322H32.8816L29.4616 31.0322H32.1076L34.3216 38.3042L36.5896 31.0322H39.1456ZM48.7948 35.4962C48.7948 35.8322 48.7708 36.1562 48.7228 36.4682H42.3508C42.6028 37.7402 43.3528 38.3762 44.6008 38.3762C45.1168 38.3762 45.5428 38.2802 45.8788 38.0882C46.2148 37.8962 46.4488 37.6202 46.5808 37.2602L48.5968 37.9982C48.3088 38.7182 47.8228 39.2702 47.1388 39.6542C46.4668 40.0262 45.6208 40.2122 44.6008 40.2122C43.1128 40.2122 41.9608 39.8042 41.1448 38.9882C40.3288 38.1602 39.9208 37.0082 39.9208 35.5322C39.9208 34.0562 40.3168 32.9102 41.1088 32.0942C41.9008 31.2662 43.0168 30.8522 44.4568 30.8522C45.8488 30.8522 46.9168 31.2542 47.6608 32.0582C48.4168 32.8622 48.7948 34.0082 48.7948 35.4962ZM44.4388 32.6702C43.8388 32.6702 43.3588 32.8442 42.9988 33.1922C42.6508 33.5402 42.4288 34.0562 42.3328 34.7402H46.5268C46.4308 34.0682 46.2028 33.5582 45.8428 33.2102C45.4828 32.8502 45.0148 32.6702 44.4388 32.6702ZM56.2293 30.8522C57.2013 30.8522 57.9813 31.1342 58.5693 31.6982C59.1693 32.2622 59.4693 33.0722 59.4693 34.1282V40.0322H57.0033V34.8482C57.0033 33.4802 56.4693 32.7962 55.4013 32.7962C54.8253 32.7962 54.3333 33.0002 53.9253 33.4082C53.5293 33.8162 53.3313 34.4402 53.3313 35.2802V40.0322H50.8653V31.0322H53.0793L53.1513 32.6342C53.4513 32.0462 53.8653 31.6022 54.3933 31.3022C54.9213 31.0022 55.5333 30.8522 56.2293 30.8522ZM68.1136 39.4742C67.8256 39.7022 67.4596 39.8822 67.0156 40.0142C66.5836 40.1462 66.1276 40.2122 65.6476 40.2122C63.6436 40.2122 62.6416 39.3062 62.6416 37.4942V32.8682H61.0036V31.0322H62.6416V28.9622L65.1076 28.2782V31.0322H68.0236V32.8682H65.1076V37.0982C65.1076 37.9262 65.5216 38.3402 66.3496 38.3402C66.8776 38.3402 67.3396 38.1722 67.7356 37.8362L68.1136 39.4742ZM80.0003 28.1522C81.8603 28.1522 83.3003 28.6682 84.3203 29.7002C85.3403 30.7322 85.8503 32.1962 85.8503 34.0922C85.8503 35.9882 85.3403 37.4522 84.3203 38.4842C83.3003 39.5162 81.8603 40.0322 80.0003 40.0322H75.4103V28.1522H80.0003ZM79.8743 38.0522C81.0023 38.0522 81.8483 37.7162 82.4123 37.0442C82.9883 36.3602 83.2763 35.3762 83.2763 34.0922C83.2763 32.8082 82.9883 31.8302 82.4123 31.1582C81.8483 30.4742 81.0023 30.1322 79.8743 30.1322H77.8943V38.0522H79.8743ZM96.5018 35.4962C96.5018 35.8322 96.4778 36.1562 96.4298 36.4682H90.0578C90.3098 37.7402 91.0598 38.3762 92.3078 38.3762C92.8238 38.3762 93.2498 38.2802 93.5858 38.0882C93.9218 37.8962 94.1558 37.6202 94.2878 37.2602L96.3038 37.9982C96.0158 38.7182 95.5298 39.2702 94.8458 39.6542C94.1738 40.0262 93.3278 40.2122 92.3078 40.2122C90.8198 40.2122 89.6678 39.8042 88.8518 38.9882C88.0358 38.1602 87.6278 37.0082 87.6278 35.5322C87.6278 34.0562 88.0238 32.9102 88.8158 32.0942C89.6078 31.2662 90.7238 30.8522 92.1638 30.8522C93.5558 30.8522 94.6238 31.2542 95.3678 32.0582C96.1238 32.8622 96.5018 34.0082 96.5018 35.4962ZM92.1458 32.6702C91.5458 32.6702 91.0658 32.8442 90.7058 33.1922C90.3578 33.5402 90.1358 34.0562 90.0398 34.7402H94.2338C94.1378 34.0682 93.9098 33.5582 93.5498 33.2102C93.1898 32.8502 92.7218 32.6702 92.1458 32.6702ZM104.588 39.4742C104.3 39.7022 103.934 39.8822 103.49 40.0142C103.058 40.1462 102.602 40.2122 102.122 40.2122C100.118 40.2122 99.1162 39.3062 99.1162 37.4942V32.8682H97.4782V31.0322H99.1162V28.9622L101.582 28.2782V31.0322H104.498V32.8682H101.582V37.0982C101.582 37.9262 101.996 38.3402 102.824 38.3402C103.352 38.3402 103.814 38.1722 104.21 37.8362L104.588 39.4742ZM114.445 38.5382C114.697 38.5382 114.901 38.5142 115.057 38.4662L114.877 39.9602C114.541 40.1282 114.151 40.2122 113.707 40.2122C112.555 40.2122 111.865 39.7622 111.637 38.8622C111.373 39.3062 110.965 39.6422 110.413 39.8702C109.861 40.0982 109.207 40.2122 108.451 40.2122C107.575 40.2122 106.891 40.0142 106.399 39.6182C105.907 39.2222 105.661 38.6522 105.661 37.9082C105.661 36.4442 106.831 35.4962 109.171 35.0642L111.331 34.6502V34.2182C111.331 33.7382 111.193 33.3602 110.917 33.0842C110.653 32.7962 110.281 32.6522 109.801 32.6522C109.249 32.6522 108.799 32.7722 108.451 33.0122C108.103 33.2522 107.863 33.6422 107.731 34.1822L105.769 33.3542C105.961 32.5742 106.393 31.9622 107.065 31.5182C107.737 31.0742 108.613 30.8522 109.693 30.8522C110.977 30.8522 111.979 31.1342 112.699 31.6982C113.419 32.2502 113.779 33.0722 113.779 34.1642V37.8542C113.779 38.0942 113.833 38.2682 113.941 38.3762C114.049 38.4842 114.217 38.5382 114.445 38.5382ZM109.225 38.5382C109.753 38.5382 110.233 38.4122 110.665 38.1602C111.109 37.8962 111.331 37.5422 111.331 37.0982V36.1622L109.405 36.5942C108.997 36.6902 108.691 36.8222 108.487 36.9902C108.295 37.1462 108.199 37.3682 108.199 37.6562C108.199 37.9442 108.289 38.1662 108.469 38.3222C108.649 38.4662 108.901 38.5382 109.225 38.5382ZM117.797 29.7362C116.777 29.7362 116.267 29.2982 116.267 28.4222C116.267 27.5342 116.777 27.0902 117.797 27.0902C118.817 27.0902 119.327 27.5342 119.327 28.4222C119.327 29.2982 118.817 29.7362 117.797 29.7362ZM119.021 40.0322H116.555V31.0322H119.021V40.0322ZM124.065 37.1702C124.065 37.6022 124.125 37.9022 124.245 38.0702C124.377 38.2382 124.611 38.3222 124.947 38.3222C125.151 38.3222 125.325 38.3102 125.469 38.2862C125.625 38.2502 125.805 38.1962 126.009 38.1242L125.793 39.8342C125.601 39.9542 125.349 40.0442 125.037 40.1042C124.725 40.1762 124.419 40.2122 124.119 40.2122C123.243 40.2122 122.601 40.0022 122.193 39.5822C121.797 39.1502 121.599 38.4662 121.599 37.5302V27.0902H124.065V37.1702ZM130.875 40.2122C128.871 40.2122 127.479 39.6362 126.699 38.4842L128.139 37.0082C128.379 37.5242 128.721 37.8902 129.165 38.1062C129.621 38.3102 130.179 38.4122 130.839 38.4122C131.367 38.4122 131.775 38.3402 132.063 38.1962C132.351 38.0522 132.495 37.8542 132.495 37.6022C132.495 37.3982 132.357 37.2242 132.081 37.0802C131.817 36.9362 131.355 36.7982 130.695 36.6662C129.315 36.3902 128.343 36.0302 127.779 35.5862C127.227 35.1302 126.951 34.5182 126.951 33.7502C126.951 33.2462 127.107 32.7722 127.419 32.3282C127.731 31.8842 128.193 31.5302 128.805 31.2662C129.417 30.9902 130.149 30.8522 131.001 30.8522C132.009 30.8522 132.825 31.0082 133.449 31.3202C134.073 31.6202 134.595 32.1002 135.015 32.7602L133.485 34.0562C133.221 33.5762 132.891 33.2222 132.495 32.9942C132.111 32.7662 131.625 32.6522 131.037 32.6522C130.545 32.6522 130.149 32.7362 129.849 32.9042C129.561 33.0722 129.417 33.2762 129.417 33.5162C129.417 33.7682 129.561 33.9782 129.849 34.1462C130.137 34.3142 130.647 34.4702 131.379 34.6142C132.687 34.8782 133.611 35.2262 134.151 35.6582C134.703 36.0782 134.979 36.6662 134.979 37.4222C134.979 38.2622 134.619 38.9402 133.899 39.4562C133.191 39.9602 132.183 40.2122 130.875 40.2122Z" fill="#282828"/>
<path d="M33 65.0322V68.0322" stroke="#A0A0A0" stroke-width="1.5" stroke-miterlimit="10" stroke-linecap="round" stroke-linejoin="round"/>
<path d="M41 65.0322V68.0322" stroke="#A0A0A0" stroke-width="1.5" stroke-miterlimit="10" stroke-linecap="round" stroke-linejoin="round"/>
<path d="M28.5 72.1221H45.5" stroke="#A0A0A0" stroke-width="1.5" stroke-miterlimit="10" stroke-linecap="round" stroke-linejoin="round"/>
<path d="M46 71.5322V80.0322C46 83.0322 44.5 85.0322 41 85.0322H33C29.5 85.0322 28 83.0322 28 80.0322V71.5322C28 68.5322 29.5 66.5322 33 66.5322H41C44.5 66.5322 46 68.5322 46 71.5322Z" stroke="#A0A0A0" stroke-width="1.5" stroke-miterlimit="10" stroke-linecap="round" stroke-linejoin="round"/>
<path d="M40.6947 76.7324H40.7037" stroke="#A0A0A0" stroke-width="2" stroke-linecap="round" stroke-linejoin="round"/>
<path d="M40.6947 79.7324H40.7037" stroke="#A0A0A0" stroke-width="2" stroke-linecap="round" stroke-linejoin="round"/>
<path d="M36.9955 76.7324H37.0045" stroke="#A0A0A0" stroke-width="2" stroke-linecap="round" stroke-linejoin="round"/>
<path d="M36.9955 79.7324H37.0045" stroke="#A0A0A0" stroke-width="2" stroke-linecap="round" stroke-linejoin="round"/>
<path d="M33.2943 76.7324H33.3033" stroke="#A0A0A0" stroke-width="2" stroke-linecap="round" stroke-linejoin="round"/>
<path d="M33.2943 79.7324H33.3033" stroke="#A0A0A0" stroke-width="2" stroke-linecap="round" stroke-linejoin="round"/>
<path d="M58.7542 80.0322V70.7922H65.2362V71.8422H59.8742V74.8242H64.0462V75.8742H59.8742V78.9822H65.4462V80.0322H58.7542ZM71.6548 73.0322H72.8308L69.9188 80.0322H68.7988L65.8868 73.0322H67.1608L69.3728 78.8982L71.6548 73.0322ZM77.2202 80.1722C76.5575 80.1722 75.9649 80.0276 75.4422 79.7382C74.9289 79.4489 74.5275 79.0336 74.2382 78.4922C73.9489 77.9416 73.8042 77.2882 73.8042 76.5322C73.8042 75.7762 73.9489 75.1276 74.2382 74.5862C74.5275 74.0356 74.9242 73.6156 75.4282 73.3262C75.9322 73.0369 76.5062 72.8922 77.1502 72.8922C77.8035 72.8922 78.3589 73.0322 78.8162 73.3122C79.2829 73.5922 79.6375 73.9749 79.8802 74.4602C80.1229 74.9362 80.2442 75.4729 80.2442 76.0702C80.2442 76.2289 80.2395 76.3736 80.2302 76.5042C80.2209 76.6349 80.2069 76.7516 80.1882 76.8542H74.5322V75.8602H79.6982L79.1242 75.9722C79.1242 75.3002 78.9375 74.7822 78.5642 74.4182C78.2002 74.0542 77.7195 73.8722 77.1222 73.8722C76.6649 73.8722 76.2682 73.9796 75.9322 74.1942C75.6055 74.3996 75.3489 74.7029 75.1622 75.1042C74.9849 75.4962 74.8962 75.9722 74.8962 76.5322C74.8962 77.0829 74.9895 77.5589 75.1762 77.9602C75.3629 78.3616 75.6242 78.6696 75.9602 78.8842C76.3055 79.0896 76.7162 79.1922 77.1922 79.1922C77.7055 79.1922 78.1209 79.0942 78.4382 78.8982C78.7649 78.7022 79.0262 78.4362 79.2222 78.1002L80.1042 78.6182C79.9269 78.9356 79.6982 79.2109 79.4182 79.4442C79.1475 79.6776 78.8255 79.8596 78.4522 79.9902C78.0882 80.1116 77.6775 80.1722 77.2202 80.1722ZM82.3743 80.0322V73.0322H83.3543L83.4523 74.6002L83.2703 74.4462C83.4196 74.0729 83.6203 73.7742 83.8723 73.5502C84.1243 73.3169 84.4136 73.1489 84.7403 73.0462C85.0763 72.9436 85.4216 72.8922 85.7763 72.8922C86.2803 72.8922 86.7376 72.9902 87.1483 73.1862C87.5589 73.3729 87.8856 73.6622 88.1283 74.0542C88.3803 74.4462 88.5063 74.9456 88.5063 75.5522V80.0322H87.3863V75.9442C87.3863 75.1696 87.2183 74.6329 86.8823 74.3342C86.5556 74.0262 86.1496 73.8722 85.6643 73.8722C85.3283 73.8722 84.9923 73.9516 84.6563 74.1102C84.3203 74.2689 84.0403 74.5256 83.8163 74.8802C83.6016 75.2349 83.4943 75.7109 83.4943 76.3082V80.0322H82.3743ZM92.5985 71.0442V78.1002C92.5985 78.4456 92.6965 78.7022 92.8925 78.8702C93.0885 79.0382 93.3405 79.1222 93.6485 79.1222C93.9192 79.1222 94.1525 79.0756 94.3485 78.9822C94.5445 78.8889 94.7219 78.7629 94.8805 78.6042L95.2725 79.5422C95.0579 79.7382 94.8012 79.8922 94.5025 80.0042C94.2132 80.1162 93.8772 80.1722 93.4945 80.1722C93.1399 80.1722 92.8085 80.1116 92.5005 79.9902C92.1925 79.8596 91.9452 79.6589 91.7585 79.3882C91.5812 79.1082 91.4879 78.7442 91.4785 78.2962V71.3522L92.5985 71.0442ZM95.1465 73.0322V73.9982H90.0785V73.0322H95.1465ZM104.775 70.7922C106.222 70.7922 107.356 71.1936 108.177 71.9962C109.008 72.7896 109.423 73.9282 109.423 75.4122C109.423 76.8962 109.008 78.0396 108.177 78.8422C107.356 79.6356 106.222 80.0322 104.775 80.0322H101.793V70.7922H104.775ZM104.887 78.9822C105.942 78.9822 106.763 78.6696 107.351 78.0442C107.949 77.4096 108.247 76.5322 108.247 75.4122C108.247 74.2922 107.949 73.4196 107.351 72.7942C106.763 72.1596 105.942 71.8422 104.887 71.8422H102.913V78.9822H104.887ZM115.761 75.5102C115.761 74.9876 115.621 74.5862 115.341 74.3062C115.061 74.0169 114.664 73.8722 114.151 73.8722C113.666 73.8722 113.255 73.9796 112.919 74.1942C112.583 74.3996 112.336 74.7356 112.177 75.2022L111.267 74.6422C111.454 74.1196 111.799 73.6996 112.303 73.3822C112.807 73.0556 113.432 72.8922 114.179 72.8922C114.683 72.8922 115.14 72.9809 115.551 73.1582C115.962 73.3262 116.284 73.5876 116.517 73.9422C116.76 74.2876 116.881 74.7356 116.881 75.2862V78.6742C116.881 79.0102 117.058 79.1782 117.413 79.1782C117.59 79.1782 117.763 79.1549 117.931 79.1082L117.875 79.9902C117.688 80.0836 117.446 80.1302 117.147 80.1302C116.876 80.1302 116.634 80.0789 116.419 79.9762C116.204 79.8736 116.036 79.7196 115.915 79.5142C115.794 79.2996 115.733 79.0336 115.733 78.7162V78.5762L116.013 78.6182C115.901 78.9822 115.71 79.2809 115.439 79.5142C115.168 79.7382 114.865 79.9062 114.529 80.0182C114.193 80.1209 113.862 80.1722 113.535 80.1722C113.124 80.1722 112.742 80.1022 112.387 79.9622C112.032 79.8222 111.748 79.6122 111.533 79.3322C111.328 79.0429 111.225 78.6882 111.225 78.2682C111.225 77.7456 111.398 77.3162 111.743 76.9802C112.098 76.6349 112.588 76.4016 113.213 76.2802L115.985 75.7342V76.6582L113.731 77.1202C113.274 77.2136 112.933 77.3442 112.709 77.5122C112.485 77.6802 112.373 77.9136 112.373 78.2122C112.373 78.5016 112.485 78.7396 112.709 78.9262C112.942 79.1036 113.269 79.1922 113.689 79.1922C113.96 79.1922 114.216 79.1596 114.459 79.0942C114.711 79.0196 114.935 78.9122 115.131 78.7722C115.327 78.6229 115.481 78.4409 115.593 78.2262C115.705 78.0022 115.761 77.7409 115.761 77.4422V75.5102ZM120.981 71.0442V78.1002C120.981 78.4456 121.079 78.7022 121.275 78.8702C121.471 79.0382 121.723 79.1222 122.031 79.1222C122.302 79.1222 122.535 79.0756 122.731 78.9822C122.927 78.8889 123.105 78.7629 123.263 78.6042L123.655 79.5422C123.441 79.7382 123.184 79.8922 122.885 80.0042C122.596 80.1162 122.26 80.1722 121.877 80.1722C121.523 80.1722 121.191 80.1116 120.883 79.9902C120.575 79.8596 120.328 79.6589 120.141 79.3882C119.964 79.1082 119.871 78.7442 119.861 78.2962V71.3522L120.981 71.0442ZM123.529 73.0322V73.9982H118.461V73.0322H123.529ZM128.121 80.1722C127.458 80.1722 126.865 80.0276 126.343 79.7382C125.829 79.4489 125.428 79.0336 125.139 78.4922C124.849 77.9416 124.705 77.2882 124.705 76.5322C124.705 75.7762 124.849 75.1276 125.139 74.5862C125.428 74.0356 125.825 73.6156 126.329 73.3262C126.833 73.0369 127.407 72.8922 128.051 72.8922C128.704 72.8922 129.259 73.0322 129.717 73.3122C130.183 73.5922 130.538 73.9749 130.781 74.4602C131.023 74.9362 131.145 75.4729 131.145 76.0702C131.145 76.2289 131.14 76.3736 131.131 76.5042C131.121 76.6349 131.107 76.7516 131.089 76.8542H125.433V75.8602H130.599L130.025 75.9722C130.025 75.3002 129.838 74.7822 129.465 74.4182C129.101 74.0542 128.62 73.8722 128.023 73.8722C127.565 73.8722 127.169 73.9796 126.833 74.1942C126.506 74.3996 126.249 74.7029 126.063 75.1042C125.885 75.4962 125.797 75.9722 125.797 76.5322C125.797 77.0829 125.89 77.5589 126.077 77.9602C126.263 78.3616 126.525 78.6696 126.861 78.8842C127.206 79.0896 127.617 79.1922 128.093 79.1922C128.606 79.1922 129.021 79.0942 129.339 78.8982C129.665 78.7022 129.927 78.4362 130.123 78.1002L131.005 78.6182C130.827 78.9356 130.599 79.2109 130.319 79.4442C130.048 79.6776 129.726 79.8596 129.353 79.9902C128.989 80.1116 128.578 80.1722 128.121 80.1722ZM134.045 72.8922C134.315 72.8922 134.535 72.9762 134.703 73.1442C134.871 73.3122 134.955 73.5316 134.955 73.8022C134.955 74.0729 134.871 74.2922 134.703 74.4602C134.535 74.6282 134.315 74.7122 134.045 74.7122C133.774 74.7122 133.555 74.6282 133.387 74.4602C133.219 74.2922 133.135 74.0729 133.135 73.8022C133.135 73.5316 133.219 73.3122 133.387 73.1442C133.555 72.9762 133.774 72.8922 134.045 72.8922ZM134.045 78.3522C134.315 78.3522 134.535 78.4362 134.703 78.6042C134.871 78.7722 134.955 78.9916 134.955 79.2622C134.955 79.5329 134.871 79.7522 134.703 79.9202C134.535 80.0882 134.315 80.1722 134.045 80.1722C133.774 80.1722 133.555 80.0882 133.387 79.9202C133.219 79.7522 133.135 79.5329 133.135 79.2622C133.135 78.9916 133.219 78.7722 133.387 78.6042C133.555 78.4362 133.774 78.3522 134.045 78.3522ZM147.055 70.7922V76.8682C147.055 77.9042 146.775 78.7162 146.215 79.3042C145.664 79.8829 144.899 80.1722 143.919 80.1722C143.228 80.1722 142.659 80.0416 142.211 79.7802C141.763 79.5189 141.45 79.1502 141.273 78.6742C141.105 78.1889 141.082 77.6242 141.203 76.9802L142.239 76.7702C142.136 77.5636 142.206 78.1562 142.449 78.5482C142.701 78.9309 143.177 79.1222 143.877 79.1222C144.67 79.1222 145.212 78.9076 145.501 78.4782C145.79 78.0396 145.935 77.4096 145.935 76.5882V70.7922H147.055ZM152.188 80.1722C151.74 80.1722 151.315 80.0882 150.914 79.9202C150.522 79.7522 150.2 79.4816 149.948 79.1082C149.705 78.7256 149.584 78.2309 149.584 77.6242V73.0322H150.704V77.3302C150.704 78.0396 150.858 78.5296 151.166 78.8002C151.474 79.0616 151.908 79.1922 152.468 79.1922C152.729 79.1922 152.986 79.1502 153.238 79.0662C153.49 78.9729 153.714 78.8329 153.91 78.6462C154.115 78.4502 154.274 78.2029 154.386 77.9042C154.507 77.6056 154.568 77.2509 154.568 76.8402V73.0322H155.688V80.0322H154.708L154.638 78.9682C154.395 79.3882 154.064 79.6962 153.644 79.8922C153.233 80.0789 152.748 80.1722 152.188 80.1722ZM159.358 69.8122V78.2542C159.358 78.6089 159.424 78.8562 159.554 78.9962C159.685 79.1269 159.895 79.1922 160.184 79.1922C160.371 79.1922 160.525 79.1782 160.646 79.1502C160.768 79.1222 160.931 79.0709 161.136 78.9962L160.954 79.9762C160.805 80.0416 160.642 80.0882 160.464 80.1162C160.287 80.1536 160.105 80.1722 159.918 80.1722C159.349 80.1722 158.924 80.0182 158.644 79.7102C158.374 79.4022 158.238 78.9309 158.238 78.2962V69.8122H159.358ZM167.972 73.0322L164.682 81.2082C164.505 81.6656 164.309 82.0249 164.094 82.2862C163.889 82.5569 163.655 82.7482 163.394 82.8602C163.142 82.9816 162.848 83.0422 162.512 83.0422C162.195 83.0422 161.901 82.9956 161.63 82.9022C161.369 82.8182 161.135 82.7016 160.93 82.5522L161.238 81.5722C161.425 81.7402 161.621 81.8616 161.826 81.9362C162.041 82.0202 162.251 82.0622 162.456 82.0622C162.699 82.0622 162.927 81.9876 163.142 81.8382C163.357 81.6889 163.553 81.3856 163.73 80.9282L164.094 80.0182L163.394 78.3522L161.168 73.0322H162.442L164.192 77.5962L164.626 78.8422L165.13 77.4562L166.768 73.0322H167.972ZM175.189 80.0322V73.2562C175.189 73.0976 175.189 72.9296 175.189 72.7522C175.199 72.5656 175.208 72.3742 175.217 72.1782C174.9 72.4862 174.531 72.7569 174.111 72.9902C173.691 73.2142 173.262 73.3776 172.823 73.4802L172.529 72.4582C172.697 72.4396 172.907 72.3789 173.159 72.2762C173.421 72.1642 173.691 72.0289 173.971 71.8702C174.261 71.7022 174.527 71.5249 174.769 71.3382C175.012 71.1516 175.199 70.9696 175.329 70.7922H176.309V80.0322H175.189ZM182.086 80.1722C181.041 80.1722 180.206 79.7662 179.58 78.9542C178.955 78.1422 178.642 76.9616 178.642 75.4122C178.642 73.8629 178.955 72.6822 179.58 71.8702C180.206 71.0582 181.041 70.6522 182.086 70.6522C183.141 70.6522 183.976 71.0582 184.592 71.8702C185.218 72.6822 185.53 73.8629 185.53 75.4122C185.53 76.9616 185.218 78.1422 184.592 78.9542C183.976 79.7662 183.141 80.1722 182.086 80.1722ZM182.086 79.1642C182.581 79.1642 182.996 79.0242 183.332 78.7442C183.678 78.4549 183.934 78.0302 184.102 77.4702C184.28 76.9102 184.368 76.2242 184.368 75.4122C184.368 74.6002 184.28 73.9142 184.102 73.3542C183.934 72.7942 183.678 72.3742 183.332 72.0942C182.996 71.8049 182.581 71.6602 182.086 71.6602C181.592 71.6602 181.172 71.8049 180.826 72.0942C180.49 72.3742 180.234 72.7942 180.056 73.3542C179.888 73.9142 179.804 74.6002 179.804 75.4122C179.804 76.2242 179.888 76.9102 180.056 77.4702C180.234 78.0302 180.49 78.4549 180.826 78.7442C181.172 79.0242 181.592 79.1642 182.086 79.1642ZM187.962 78.3522C188.186 78.3522 188.372 78.4129 188.522 78.5342C188.68 78.6462 188.802 78.8049 188.886 79.0102C188.97 79.2062 189.012 79.4396 189.012 79.7102C189.012 80.0182 188.956 80.3216 188.844 80.6202C188.741 80.9189 188.578 81.1942 188.354 81.4462C188.13 81.6982 187.84 81.9082 187.486 82.0762L186.898 81.5302C187.15 81.4462 187.369 81.3296 187.556 81.1802C187.752 81.0309 187.91 80.8629 188.032 80.6762C188.153 80.4896 188.232 80.2982 188.27 80.1022L188.214 80.0742C188.176 80.1022 188.13 80.1256 188.074 80.1442C188.018 80.1629 187.934 80.1722 187.822 80.1722C187.71 80.1722 187.593 80.1396 187.472 80.0742C187.36 80.0089 187.262 79.9156 187.178 79.7942C187.094 79.6636 187.052 79.4956 187.052 79.2902C187.052 79.1222 187.094 78.9682 187.178 78.8282C187.262 78.6789 187.369 78.5622 187.5 78.4782C187.64 78.3942 187.794 78.3522 187.962 78.3522ZM195.626 80.0322V79.1222C196.55 78.4409 197.32 77.8436 197.936 77.3302C198.561 76.8169 199.061 76.3502 199.434 75.9302C199.807 75.5102 200.073 75.1136 200.232 74.7402C200.391 74.3576 200.47 73.9609 200.47 73.5502C200.47 72.9996 200.293 72.5562 199.938 72.2202C199.593 71.8749 199.117 71.7022 198.51 71.7022C197.875 71.7022 197.367 71.9122 196.984 72.3322C196.601 72.7429 196.377 73.2936 196.312 73.9842L195.332 73.3962C195.416 72.8549 195.589 72.3789 195.85 71.9682C196.121 71.5576 196.48 71.2356 196.928 71.0022C197.385 70.7689 197.927 70.6522 198.552 70.6522C199.028 70.6522 199.453 70.7222 199.826 70.8622C200.209 71.0022 200.535 71.2029 200.806 71.4642C201.077 71.7162 201.282 72.0196 201.422 72.3742C201.571 72.7289 201.646 73.1209 201.646 73.5502C201.646 74.1289 201.506 74.6982 201.226 75.2582C200.946 75.8089 200.484 76.3876 199.84 76.9942C199.196 77.6009 198.323 78.2729 197.222 79.0102V79.0242C197.325 79.0149 197.465 79.0102 197.642 79.0102C197.829 79.0009 198.011 78.9962 198.188 78.9962C198.375 78.9869 198.515 78.9822 198.608 78.9822H201.842V80.0322H195.626ZM207.106 80.1722C206.061 80.1722 205.225 79.7662 204.6 78.9542C203.975 78.1422 203.662 76.9616 203.662 75.4122C203.662 73.8629 203.975 72.6822 204.6 71.8702C205.225 71.0582 206.061 70.6522 207.106 70.6522C208.161 70.6522 208.996 71.0582 209.612 71.8702C210.237 72.6822 210.55 73.8629 210.55 75.4122C210.55 76.9616 210.237 78.1422 209.612 78.9542C208.996 79.7662 208.161 80.1722 207.106 80.1722ZM207.106 79.1642C207.601 79.1642 208.016 79.0242 208.352 78.7442C208.697 78.4549 208.954 78.0302 209.122 77.4702C209.299 76.9102 209.388 76.2242 209.388 75.4122C209.388 74.6002 209.299 73.9142 209.122 73.3542C208.954 72.7942 208.697 72.3742 208.352 72.0942C208.016 71.8049 207.601 71.6602 207.106 71.6602C206.611 71.6602 206.191 71.8049 205.846 72.0942C205.51 72.3742 205.253 72.7942 205.076 73.3542C204.908 73.9142 204.824 74.6002 204.824 75.4122C204.824 76.2242 204.908 76.9102 205.076 77.4702C205.253 78.0302 205.51 78.4549 205.846 78.7442C206.191 79.0242 206.611 79.1642 207.106 79.1642ZM212.497 80.0322V79.1222C213.421 78.4409 214.191 77.8436 214.807 77.3302C215.432 76.8169 215.932 76.3502 216.305 75.9302C216.678 75.5102 216.944 75.1136 217.103 74.7402C217.262 74.3576 217.341 73.9609 217.341 73.5502C217.341 72.9996 217.164 72.5562 216.809 72.2202C216.464 71.8749 215.988 71.7022 215.381 71.7022C214.746 71.7022 214.238 71.9122 213.855 72.3322C213.472 72.7429 213.248 73.2936 213.183 73.9842L212.203 73.3962C212.287 72.8549 212.46 72.3789 212.721 71.9682C212.992 71.5576 213.351 71.2356 213.799 71.0022C214.256 70.7689 214.798 70.6522 215.423 70.6522C215.899 70.6522 216.324 70.7222 216.697 70.8622C217.08 71.0022 217.406 71.2029 217.677 71.4642C217.948 71.7162 218.153 72.0196 218.293 72.3742C218.442 72.7289 218.517 73.1209 218.517 73.5502C218.517 74.1289 218.377 74.6982 218.097 75.2582C217.817 75.8089 217.355 76.3876 216.711 76.9942C216.067 77.6009 215.194 78.2729 214.093 79.0102V79.0242C214.196 79.0149 214.336 79.0102 214.513 79.0102C214.7 79.0009 214.882 78.9962 215.059 78.9962C215.246 78.9869 215.386 78.9822 215.479 78.9822H218.713V80.0322H212.497ZM224.323 80.0322V77.6102H219.815V76.7842L224.029 70.7922H225.443V76.6442H227.081V77.6102H225.443V80.0322H224.323ZM221.005 76.6442H224.323V73.1862C224.323 72.9436 224.328 72.6962 224.337 72.4442C224.356 72.1922 224.37 71.9449 224.379 71.7022H224.351C224.239 71.9356 224.095 72.1969 223.917 72.4862C223.74 72.7756 223.577 73.0276 223.427 73.2422L221.005 76.6442Z" fill="#282828"/>
<path d="M36.9999 116.462C38.723 116.462 40.1199 115.065 40.1199 113.342C40.1199 111.619 38.723 110.222 36.9999 110.222C35.2768 110.222 33.8799 111.619 33.8799 113.342C33.8799 115.065 35.2768 116.462 36.9999 116.462Z" stroke="#A0A0A0" stroke-width="1.5"/>
<path d="M28.6197 111.522C30.5897 102.862 43.4197 102.872 45.3797 111.532C46.5297 116.612 43.3697 120.912 40.5997 123.572C38.5897 125.512 35.4097 125.512 33.3897 123.572C30.6297 120.912 27.4697 116.602 28.6197 111.522Z" stroke="#A0A0A0" stroke-width="1.5"/>
<path d="M65.2775 118.982V120.032H58.8655V110.792H59.9855V118.982H65.2775ZM72.8236 116.168C72.8236 116.43 72.805 116.691 72.7676 116.952H67.4896C67.555 117.662 67.7883 118.212 68.1896 118.604C68.6003 118.996 69.1276 119.192 69.7716 119.192C70.285 119.192 70.7096 119.104 71.0456 118.926C71.391 118.749 71.6243 118.492 71.7456 118.156L72.6836 118.646C72.4036 119.141 72.0303 119.519 71.5636 119.78C71.097 120.042 70.4996 120.172 69.7716 120.172C68.717 120.172 67.8863 119.85 67.2796 119.206C66.6823 118.562 66.3836 117.671 66.3836 116.532C66.3836 115.394 66.6683 114.502 67.2376 113.858C67.8163 113.214 68.633 112.892 69.6876 112.892C70.341 112.892 70.9056 113.037 71.3816 113.326C71.8576 113.616 72.217 114.008 72.4596 114.502C72.7023 114.997 72.8236 115.552 72.8236 116.168ZM69.6876 113.872C69.0716 113.872 68.5723 114.054 68.1896 114.418C67.8163 114.782 67.5876 115.296 67.5036 115.958H71.7456C71.671 115.305 71.4563 114.796 71.1016 114.432C70.747 114.059 70.2756 113.872 69.6876 113.872ZM77.5564 116.574L76.0724 118.058V120.032H74.9524V109.812H76.0724V116.658L79.6984 113.032H81.0984L78.3684 115.762L81.2664 120.032H79.9084L77.5564 116.574ZM85.4998 116.574L84.0158 118.058V120.032H82.8958V109.812H84.0158V116.658L87.6418 113.032H89.0418L86.3118 115.762L89.2098 120.032H87.8518L85.4998 116.574ZM91.3991 111.688C91.1471 111.688 90.9418 111.614 90.7831 111.464C90.6338 111.306 90.5591 111.1 90.5591 110.848C90.5591 110.596 90.6338 110.396 90.7831 110.246C90.9418 110.088 91.1471 110.008 91.3991 110.008C91.6511 110.008 91.8518 110.088 92.0011 110.246C92.1598 110.396 92.2391 110.596 92.2391 110.848C92.2391 111.1 92.1598 111.306 92.0011 111.464C91.8518 111.614 91.6511 111.688 91.3991 111.688ZM91.9591 120.032H90.8391V113.032H91.9591V120.032ZM95.1179 118.352C95.4445 118.352 95.7012 118.478 95.8879 118.73C96.0745 118.982 96.1679 119.309 96.1679 119.71C96.1679 120.205 96.0419 120.662 95.7899 121.082C95.5379 121.502 95.1552 121.834 94.6419 122.076L94.0539 121.53C94.4179 121.409 94.7212 121.218 94.9639 120.956C95.2065 120.695 95.3605 120.41 95.4259 120.102L95.3699 120.074C95.2859 120.14 95.1552 120.172 94.9779 120.172C94.7819 120.172 94.6045 120.098 94.4459 119.948C94.2872 119.79 94.2079 119.57 94.2079 119.29C94.2079 119.038 94.2965 118.819 94.4739 118.632C94.6512 118.446 94.8659 118.352 95.1179 118.352ZM110.51 120.032H109.124L105.26 113.844L104.28 112.024H104.266L104.322 113.508V120.032H103.258V110.792H104.644L108.494 116.952L109.488 118.8H109.502L109.446 117.316V110.792H110.51V120.032ZM113.889 111.688C113.637 111.688 113.432 111.614 113.273 111.464C113.124 111.306 113.049 111.1 113.049 110.848C113.049 110.596 113.124 110.396 113.273 110.246C113.432 110.088 113.637 110.008 113.889 110.008C114.141 110.008 114.342 110.088 114.491 110.246C114.65 110.396 114.729 110.596 114.729 110.848C114.729 111.1 114.65 111.306 114.491 111.464C114.342 111.614 114.141 111.688 113.889 111.688ZM114.449 120.032H113.329V113.032H114.449V120.032ZM120.954 119.136C121.617 119.136 122.135 119.286 122.508 119.584C122.881 119.883 123.068 120.289 123.068 120.802C123.068 121.25 122.914 121.642 122.606 121.978C122.298 122.324 121.878 122.585 121.346 122.762C120.823 122.949 120.245 123.042 119.61 123.042C118.546 123.042 117.743 122.87 117.202 122.524C116.661 122.188 116.39 121.745 116.39 121.194C116.39 120.877 116.497 120.597 116.712 120.354C116.936 120.112 117.239 119.939 117.622 119.836C117.333 119.696 117.099 119.519 116.922 119.304C116.754 119.09 116.67 118.838 116.67 118.548C116.67 118.203 116.763 117.918 116.95 117.694C117.137 117.461 117.393 117.288 117.72 117.176C117.384 116.971 117.127 116.705 116.95 116.378C116.782 116.042 116.698 115.669 116.698 115.258C116.698 114.801 116.819 114.395 117.062 114.04C117.305 113.676 117.645 113.396 118.084 113.2C118.523 112.995 119.017 112.892 119.568 112.892C120.091 112.892 120.567 112.986 120.996 113.172C121.257 112.22 121.915 111.744 122.97 111.744L123.222 112.724C122.307 112.724 121.752 112.981 121.556 113.494C121.836 113.709 122.051 113.966 122.2 114.264C122.359 114.563 122.438 114.894 122.438 115.258C122.438 115.716 122.317 116.126 122.074 116.49C121.831 116.845 121.491 117.125 121.052 117.33C120.613 117.526 120.119 117.624 119.568 117.624C119.157 117.624 118.798 117.582 118.49 117.498C118.21 117.564 118.009 117.666 117.888 117.806C117.767 117.946 117.706 118.138 117.706 118.38C117.706 118.623 117.79 118.81 117.958 118.94C118.126 119.071 118.35 119.136 118.63 119.136H120.954ZM119.568 113.802C119.083 113.802 118.677 113.938 118.35 114.208C118.023 114.479 117.86 114.829 117.86 115.258C117.86 115.688 118.023 116.038 118.35 116.308C118.677 116.579 119.083 116.714 119.568 116.714C120.053 116.714 120.459 116.579 120.786 116.308C121.113 116.038 121.276 115.688 121.276 115.258C121.276 114.829 121.113 114.479 120.786 114.208C120.459 113.938 120.053 113.802 119.568 113.802ZM119.736 122.104C120.445 122.104 121.005 121.988 121.416 121.754C121.827 121.53 122.032 121.255 122.032 120.928C122.032 120.658 121.925 120.452 121.71 120.312C121.505 120.172 121.15 120.102 120.646 120.102H118.77C118.341 120.102 118.009 120.177 117.776 120.326C117.543 120.485 117.426 120.7 117.426 120.97C117.426 121.325 117.622 121.6 118.014 121.796C118.406 122.002 118.98 122.104 119.736 122.104ZM130.738 116.168C130.738 116.43 130.719 116.691 130.682 116.952H125.404C125.469 117.662 125.702 118.212 126.104 118.604C126.514 118.996 127.042 119.192 127.686 119.192C128.199 119.192 128.624 119.104 128.96 118.926C129.305 118.749 129.538 118.492 129.66 118.156L130.598 118.646C130.318 119.141 129.944 119.519 129.478 119.78C129.011 120.042 128.414 120.172 127.686 120.172C126.631 120.172 125.8 119.85 125.194 119.206C124.596 118.562 124.298 117.671 124.298 116.532C124.298 115.394 124.582 114.502 125.152 113.858C125.73 113.214 126.547 112.892 127.602 112.892C128.255 112.892 128.82 113.037 129.296 113.326C129.772 113.616 130.131 114.008 130.374 114.502C130.616 114.997 130.738 115.552 130.738 116.168ZM127.602 113.872C126.986 113.872 126.486 114.054 126.104 114.418C125.73 114.782 125.502 115.296 125.418 115.958H129.66C129.585 115.305 129.37 114.796 129.016 114.432C128.661 114.059 128.19 113.872 127.602 113.872ZM136.17 112.892C136.506 112.892 136.763 112.939 136.94 113.032L136.716 114.124C136.492 114.003 136.198 113.942 135.834 113.942C135.536 113.942 135.242 114.031 134.952 114.208C134.672 114.376 134.439 114.638 134.252 114.992C134.075 115.338 133.986 115.758 133.986 116.252V120.032H132.866V113.032H133.776L133.93 114.18C134.322 113.322 135.069 112.892 136.17 112.892ZM139.141 111.688C138.889 111.688 138.684 111.614 138.525 111.464C138.376 111.306 138.301 111.1 138.301 110.848C138.301 110.596 138.376 110.396 138.525 110.246C138.684 110.088 138.889 110.008 139.141 110.008C139.393 110.008 139.594 110.088 139.743 110.246C139.902 110.396 139.981 110.596 139.981 110.848C139.981 111.1 139.902 111.306 139.743 111.464C139.594 111.614 139.393 111.688 139.141 111.688ZM139.701 120.032H138.581V113.032H139.701V120.032ZM148.04 119.22C148.227 119.22 148.413 119.197 148.6 119.15L148.53 120.032C148.269 120.126 147.989 120.172 147.69 120.172C147.326 120.172 147.037 120.093 146.822 119.934C146.617 119.776 146.486 119.51 146.43 119.136C146.215 119.463 145.898 119.72 145.478 119.906C145.067 120.084 144.633 120.172 144.176 120.172C143.485 120.172 142.916 120.014 142.468 119.696C142.02 119.37 141.796 118.903 141.796 118.296C141.796 117.764 142.029 117.307 142.496 116.924C142.963 116.532 143.639 116.262 144.526 116.112L146.388 115.804V115.412C146.388 114.946 146.243 114.572 145.954 114.292C145.665 114.012 145.263 113.872 144.75 113.872C144.283 113.872 143.877 113.984 143.532 114.208C143.196 114.432 142.935 114.764 142.748 115.202L141.922 114.6C142.109 114.078 142.454 113.662 142.958 113.354C143.471 113.046 144.069 112.892 144.75 112.892C145.581 112.892 146.248 113.093 146.752 113.494C147.256 113.896 147.508 114.488 147.508 115.272V118.716C147.508 118.884 147.55 119.01 147.634 119.094C147.718 119.178 147.853 119.22 148.04 119.22ZM144.232 119.192C144.82 119.192 145.324 119.052 145.744 118.772C146.173 118.492 146.388 118.128 146.388 117.68V116.714L144.82 117.008C144.195 117.12 143.728 117.284 143.42 117.498C143.112 117.704 142.958 117.97 142.958 118.296C142.958 118.586 143.07 118.81 143.294 118.968C143.518 119.118 143.831 119.192 144.232 119.192ZM150.79 118.352C151.06 118.352 151.28 118.436 151.448 118.604C151.616 118.772 151.7 118.992 151.7 119.262C151.7 119.533 151.616 119.752 151.448 119.92C151.28 120.088 151.06 120.172 150.79 120.172C150.519 120.172 150.3 120.088 150.132 119.92C149.964 119.752 149.88 119.533 149.88 119.262C149.88 118.992 149.964 118.772 150.132 118.604C150.3 118.436 150.519 118.352 150.79 118.352Z" fill="#282828"/>
<path d="M322 75.0322C322 80.5522 317.52 85.0322 312 85.0322C306.48 85.0322 302 80.5522 302 75.0322C302 69.5122 306.48 65.0322 312 65.0322C317.52 65.0322 322 69.5122 322 75.0322Z" stroke="#A0A0A0" stroke-width="1.5" stroke-linecap="round" stroke-linejoin="round"/>
<path d="M315.71 78.212L312.61 76.362C312.07 76.042 311.63 75.272 311.63 74.642V70.542" stroke="#A0A0A0" stroke-width="1.5" stroke-linecap="round" stroke-linejoin="round"/>
<path d="M336.945 70.6522C337.757 70.6522 338.457 70.8202 339.045 71.1562C339.633 71.4829 340.123 71.9682 340.515 72.6122L339.577 73.3402C339.232 72.7429 338.84 72.3229 338.401 72.0802C337.972 71.8282 337.449 71.7022 336.833 71.7022C336.338 71.7022 335.928 71.7722 335.601 71.9122C335.284 72.0522 335.05 72.2389 334.901 72.4722C334.752 72.6962 334.677 72.9529 334.677 73.2422C334.677 73.5689 334.78 73.8582 334.985 74.1102C335.19 74.3529 335.601 74.5442 336.217 74.6842L338.219 75.1322C339.106 75.3282 339.722 75.6269 340.067 76.0282C340.422 76.4202 340.599 76.9102 340.599 77.4982C340.599 78.0209 340.45 78.4876 340.151 78.8982C339.862 79.2996 339.451 79.6122 338.919 79.8362C338.387 80.0602 337.762 80.1722 337.043 80.1722C336.371 80.1722 335.778 80.0836 335.265 79.9062C334.761 79.7196 334.327 79.4722 333.963 79.1642C333.599 78.8562 333.3 78.5109 333.067 78.1282L334.047 77.3302C334.224 77.6849 334.453 77.9976 334.733 78.2682C335.013 78.5389 335.349 78.7489 335.741 78.8982C336.142 79.0476 336.6 79.1222 337.113 79.1222C337.589 79.1222 338 79.0662 338.345 78.9542C338.7 78.8329 338.97 78.6602 339.157 78.4362C339.344 78.2029 339.437 77.9229 339.437 77.5962C339.437 77.2976 339.339 77.0316 339.143 76.7982C338.947 76.5556 338.578 76.3736 338.037 76.2522L335.867 75.7622C335.298 75.6316 334.836 75.4542 334.481 75.2302C334.136 74.9969 333.884 74.7262 333.725 74.4182C333.576 74.1009 333.501 73.7602 333.501 73.3962C333.501 72.9016 333.636 72.4489 333.907 72.0382C334.187 71.6182 334.584 71.2822 335.097 71.0302C335.62 70.7782 336.236 70.6522 336.945 70.6522ZM344.388 71.0442V78.1002C344.388 78.4456 344.486 78.7022 344.682 78.8702C344.878 79.0382 345.13 79.1222 345.438 79.1222C345.708 79.1222 345.942 79.0756 346.138 78.9822C346.334 78.8889 346.511 78.7629 346.67 78.6042L347.062 79.5422C346.847 79.7382 346.59 79.8922 346.292 80.0042C346.002 80.1162 345.666 80.1722 345.284 80.1722C344.929 80.1722 344.598 80.1116 344.29 79.9902C343.982 79.8596 343.734 79.6589 343.548 79.3882C343.37 79.1082 343.277 78.7442 343.268 78.2962V71.3522L344.388 71.0442ZM346.936 73.0322V73.9982H341.868V73.0322H346.936ZM352.689 75.5102C352.689 74.9876 352.549 74.5862 352.269 74.3062C351.989 74.0169 351.592 73.8722 351.079 73.8722C350.593 73.8722 350.183 73.9796 349.847 74.1942C349.511 74.3996 349.263 74.7356 349.105 75.2022L348.195 74.6422C348.381 74.1196 348.727 73.6996 349.231 73.3822C349.735 73.0556 350.36 72.8922 351.107 72.8922C351.611 72.8922 352.068 72.9809 352.479 73.1582C352.889 73.3262 353.211 73.5876 353.445 73.9422C353.687 74.2876 353.809 74.7356 353.809 75.2862V78.6742C353.809 79.0102 353.986 79.1782 354.341 79.1782C354.518 79.1782 354.691 79.1549 354.859 79.1082L354.803 79.9902C354.616 80.0836 354.373 80.1302 354.075 80.1302C353.804 80.1302 353.561 80.0789 353.347 79.9762C353.132 79.8736 352.964 79.7196 352.843 79.5142C352.721 79.2996 352.661 79.0336 352.661 78.7162V78.5762L352.941 78.6182C352.829 78.9822 352.637 79.2809 352.367 79.5142C352.096 79.7382 351.793 79.9062 351.457 80.0182C351.121 80.1209 350.789 80.1722 350.463 80.1722C350.052 80.1722 349.669 80.1022 349.315 79.9622C348.96 79.8222 348.675 79.6122 348.461 79.3322C348.255 79.0429 348.153 78.6882 348.153 78.2682C348.153 77.7456 348.325 77.3162 348.671 76.9802C349.025 76.6349 349.515 76.4016 350.141 76.2802L352.913 75.7342V76.6582L350.659 77.1202C350.201 77.2136 349.861 77.3442 349.637 77.5122C349.413 77.6802 349.301 77.9136 349.301 78.2122C349.301 78.5016 349.413 78.7396 349.637 78.9262C349.87 79.1036 350.197 79.1922 350.617 79.1922C350.887 79.1922 351.144 79.1596 351.387 79.0942C351.639 79.0196 351.863 78.9122 352.059 78.7722C352.255 78.6229 352.409 78.4409 352.521 78.2262C352.633 78.0022 352.689 77.7409 352.689 77.4422V75.5102ZM356.531 80.0322V73.0322H357.441L357.595 74.1802C357.791 73.7509 358.075 73.4289 358.449 73.2142C358.831 72.9996 359.293 72.8922 359.835 72.8922C359.956 72.8922 360.087 72.9016 360.227 72.9202C360.376 72.9389 360.502 72.9762 360.605 73.0322L360.409 74.0542C360.306 74.0169 360.194 73.9889 360.073 73.9702C359.951 73.9516 359.779 73.9422 359.555 73.9422C359.265 73.9422 358.971 74.0262 358.673 74.1942C358.383 74.3622 358.141 74.6189 357.945 74.9642C357.749 75.3002 357.651 75.7296 357.651 76.2522V80.0322H356.531ZM363.474 71.0442V78.1002C363.474 78.4456 363.572 78.7022 363.768 78.8702C363.964 79.0382 364.216 79.1222 364.524 79.1222C364.794 79.1222 365.028 79.0756 365.224 78.9822C365.42 78.8889 365.597 78.7629 365.756 78.6042L366.148 79.5422C365.933 79.7382 365.676 79.8922 365.378 80.0042C365.088 80.1162 364.752 80.1722 364.37 80.1722C364.015 80.1722 363.684 80.1116 363.376 79.9902C363.068 79.8596 362.82 79.6589 362.634 79.3882C362.456 79.1082 362.363 78.7442 362.354 78.2962V71.3522L363.474 71.0442ZM366.022 73.0322V73.9982H360.954V73.0322H366.022ZM370.207 80.1722C369.525 80.1722 368.895 80.0276 368.317 79.7382C367.747 79.4489 367.309 79.0382 367.001 78.5062L367.953 77.8202C368.158 78.2496 368.457 78.5856 368.849 78.8282C369.25 79.0709 369.731 79.1922 370.291 79.1922C370.785 79.1922 371.173 79.0989 371.453 78.9122C371.733 78.7162 371.873 78.4642 371.873 78.1562C371.873 77.9602 371.807 77.7829 371.677 77.6242C371.555 77.4562 371.317 77.3349 370.963 77.2602L369.283 76.9102C368.601 76.7702 368.111 76.5369 367.813 76.2102C367.523 75.8836 367.379 75.4776 367.379 74.9922C367.379 74.6096 367.486 74.2596 367.701 73.9422C367.925 73.6249 368.237 73.3729 368.639 73.1862C369.049 72.9902 369.53 72.8922 370.081 72.8922C370.771 72.8922 371.355 73.0276 371.831 73.2982C372.307 73.5689 372.661 73.9516 372.895 74.4462L371.957 75.0622C371.798 74.6516 371.541 74.3529 371.187 74.1662C370.832 73.9702 370.463 73.8722 370.081 73.8722C369.745 73.8722 369.455 73.9189 369.213 74.0122C368.979 74.1056 368.797 74.2362 368.667 74.4042C368.545 74.5629 368.485 74.7449 368.485 74.9502C368.485 75.1556 368.555 75.3469 368.695 75.5242C368.835 75.6922 369.096 75.8136 369.479 75.8882L371.229 76.2522C371.882 76.3829 372.339 76.5976 372.601 76.8962C372.862 77.1949 372.993 77.5589 372.993 77.9882C372.993 78.4269 372.876 78.8142 372.643 79.1502C372.409 79.4769 372.083 79.7289 371.663 79.9062C371.243 80.0836 370.757 80.1722 370.207 80.1722ZM375.84 72.8922C376.11 72.8922 376.33 72.9762 376.498 73.1442C376.666 73.3122 376.75 73.5316 376.75 73.8022C376.75 74.0729 376.666 74.2922 376.498 74.4602C376.33 74.6282 376.11 74.7122 375.84 74.7122C375.569 74.7122 375.35 74.6282 375.182 74.4602C375.014 74.2922 374.93 74.0729 374.93 73.8022C374.93 73.5316 375.014 73.3122 375.182 73.1442C375.35 72.9762 375.569 72.8922 375.84 72.8922ZM375.84 78.3522C376.11 78.3522 376.33 78.4362 376.498 78.6042C376.666 78.7722 376.75 78.9916 376.75 79.2622C376.75 79.5329 376.666 79.7522 376.498 79.9202C376.33 80.0882 376.11 80.1722 375.84 80.1722C375.569 80.1722 375.35 80.0882 375.182 79.9202C375.014 79.7522 374.93 79.5329 374.93 79.2622C374.93 78.9916 375.014 78.7722 375.182 78.6042C375.35 78.4362 375.569 78.3522 375.84 78.3522ZM385.32 80.0322V73.2562C385.32 73.0976 385.32 72.9296 385.32 72.7522C385.33 72.5656 385.339 72.3742 385.348 72.1782C385.031 72.4862 384.662 72.7569 384.242 72.9902C383.822 73.2142 383.393 73.3776 382.954 73.4802L382.66 72.4582C382.828 72.4396 383.038 72.3789 383.29 72.2762C383.552 72.1642 383.822 72.0289 384.102 71.8702C384.392 71.7022 384.658 71.5249 384.9 71.3382C385.143 71.1516 385.33 70.9696 385.46 70.7922H386.44V80.0322H385.32ZM392.217 80.1722C391.172 80.1722 390.337 79.7662 389.711 78.9542C389.086 78.1422 388.773 76.9616 388.773 75.4122C388.773 73.8629 389.086 72.6822 389.711 71.8702C390.337 71.0582 391.172 70.6522 392.217 70.6522C393.272 70.6522 394.107 71.0582 394.723 71.8702C395.349 72.6822 395.661 73.8629 395.661 75.4122C395.661 76.9616 395.349 78.1422 394.723 78.9542C394.107 79.7662 393.272 80.1722 392.217 80.1722ZM392.217 79.1642C392.712 79.1642 393.127 79.0242 393.463 78.7442C393.809 78.4549 394.065 78.0302 394.233 77.4702C394.411 76.9102 394.499 76.2242 394.499 75.4122C394.499 74.6002 394.411 73.9142 394.233 73.3542C394.065 72.7942 393.809 72.3742 393.463 72.0942C393.127 71.8049 392.712 71.6602 392.217 71.6602C391.723 71.6602 391.303 71.8049 390.957 72.0942C390.621 72.3742 390.365 72.7942 390.187 73.3542C390.019 73.9142 389.935 74.6002 389.935 75.4122C389.935 76.2242 390.019 76.9102 390.187 77.4702C390.365 78.0302 390.621 78.4549 390.957 78.7442C391.303 79.0242 391.723 79.1642 392.217 79.1642ZM398.644 72.8922C398.915 72.8922 399.134 72.9762 399.302 73.1442C399.47 73.3122 399.554 73.5316 399.554 73.8022C399.554 74.0729 399.47 74.2922 399.302 74.4602C399.134 74.6282 398.915 74.7122 398.644 74.7122C398.374 74.7122 398.154 74.6282 397.986 74.4602C397.818 74.2922 397.734 74.0729 397.734 73.8022C397.734 73.5316 397.818 73.3122 397.986 73.1442C398.154 72.9762 398.374 72.8922 398.644 72.8922ZM398.644 78.3522C398.915 78.3522 399.134 78.4362 399.302 78.6042C399.47 78.7722 399.554 78.9916 399.554 79.2622C399.554 79.5329 399.47 79.7522 399.302 79.9202C399.134 80.0882 398.915 80.1722 398.644 80.1722C398.374 80.1722 398.154 80.0882 397.986 79.9202C397.818 79.7522 397.734 79.5329 397.734 79.2622C397.734 78.9916 397.818 78.7722 397.986 78.6042C398.154 78.4362 398.374 78.3522 398.644 78.3522ZM405.069 80.1722C404.024 80.1722 403.188 79.7662 402.563 78.9542C401.938 78.1422 401.625 76.9616 401.625 75.4122C401.625 73.8629 401.938 72.6822 402.563 71.8702C403.188 71.0582 404.024 70.6522 405.069 70.6522C406.124 70.6522 406.959 71.0582 407.575 71.8702C408.2 72.6822 408.513 73.8629 408.513 75.4122C408.513 76.9616 408.2 78.1422 407.575 78.9542C406.959 79.7662 406.124 80.1722 405.069 80.1722ZM405.069 79.1642C405.564 79.1642 405.979 79.0242 406.315 78.7442C406.66 78.4549 406.917 78.0302 407.085 77.4702C407.262 76.9102 407.351 76.2242 407.351 75.4122C407.351 74.6002 407.262 73.9142 407.085 73.3542C406.917 72.7942 406.66 72.3742 406.315 72.0942C405.979 71.8049 405.564 71.6602 405.069 71.6602C404.574 71.6602 404.154 71.8049 403.809 72.0942C403.473 72.3742 403.216 72.7942 403.039 73.3542C402.871 73.9142 402.787 74.6002 402.787 75.4122C402.787 76.2242 402.871 76.9102 403.039 77.4702C403.216 78.0302 403.473 78.4549 403.809 78.7442C404.154 79.0242 404.574 79.1642 405.069 79.1642ZM413.778 80.1722C412.732 80.1722 411.897 79.7662 411.272 78.9542C410.646 78.1422 410.334 76.9616 410.334 75.4122C410.334 73.8629 410.646 72.6822 411.272 71.8702C411.897 71.0582 412.732 70.6522 413.778 70.6522C414.832 70.6522 415.668 71.0582 416.284 71.8702C416.909 72.6822 417.222 73.8629 417.222 75.4122C417.222 76.9616 416.909 78.1422 416.284 78.9542C415.668 79.7662 414.832 80.1722 413.778 80.1722ZM413.778 79.1642C414.272 79.1642 414.688 79.0242 415.024 78.7442C415.369 78.4549 415.626 78.0302 415.794 77.4702C415.971 76.9102 416.06 76.2242 416.06 75.4122C416.06 74.6002 415.971 73.9142 415.794 73.3542C415.626 72.7942 415.369 72.3742 415.024 72.0942C414.688 71.8049 414.272 71.6602 413.778 71.6602C413.283 71.6602 412.863 71.8049 412.518 72.0942C412.182 72.3742 411.925 72.7942 411.748 73.3542C411.58 73.9142 411.496 74.6002 411.496 75.4122C411.496 76.2242 411.58 76.9102 411.748 77.4702C411.925 78.0302 412.182 78.4549 412.518 78.7442C412.863 79.0242 413.283 79.1642 413.778 79.1642ZM431.22 80.0322H430.03L429.05 77.4702H424.864L423.884 80.0322H422.708L426.306 70.7922H427.636L431.22 80.0322ZM425.27 76.4202H428.644L426.95 71.8702L425.27 76.4202ZM442.03 70.7922V80.0322H440.966V74.2222L441.092 71.7862H441.078L438.04 80.0322H437.088L434.05 71.7862H434.036L434.162 74.2222V80.0322H433.098V70.7922H434.82L436.85 76.4062L437.55 78.7162H437.578L438.292 76.4202L440.308 70.7922H442.03Z" fill="#282828"/>
<path d="M322 115.032C322 120.552 317.52 125.032 312 125.032C306.48 125.032 302 120.552 302 115.032C302 109.512 306.48 105.032 312 105.032C317.52 105.032 322 109.512 322 115.032Z" stroke="#A0A0A0" stroke-width="1.5" stroke-linecap="round" stroke-linejoin="round"/>
<path d="M315.71 118.212L312.61 116.362C312.07 116.042 311.63 115.272 311.63 114.642V110.542" stroke="#A0A0A0" stroke-width="1.5" stroke-linecap="round" stroke-linejoin="round"/>
<path d="M340.656 118.982V120.032H333.964V110.792H340.446V111.842H335.084V114.824H339.256V115.874H335.084V118.982H340.656ZM346.084 112.892C346.877 112.892 347.531 113.121 348.044 113.578C348.557 114.036 348.814 114.694 348.814 115.552V120.032H347.694V115.944C347.694 115.216 347.535 114.689 347.218 114.362C346.91 114.036 346.495 113.872 345.972 113.872C345.599 113.872 345.249 113.956 344.922 114.124C344.595 114.283 344.325 114.549 344.11 114.922C343.905 115.286 343.802 115.748 343.802 116.308V120.032H342.682V113.032H343.662L343.732 114.124C343.965 113.704 344.287 113.396 344.698 113.2C345.109 112.995 345.571 112.892 346.084 112.892ZM357.566 109.812V120.032H356.586L356.516 118.814C356.311 119.225 355.993 119.556 355.564 119.808C355.144 120.051 354.663 120.172 354.122 120.172C353.142 120.172 352.363 119.85 351.784 119.206C351.215 118.553 350.93 117.662 350.93 116.532C350.93 115.403 351.215 114.516 351.784 113.872C352.363 113.219 353.142 112.892 354.122 112.892C354.635 112.892 355.093 113.004 355.494 113.228C355.905 113.452 356.222 113.751 356.446 114.124V109.812H357.566ZM354.248 119.192C354.92 119.192 355.452 118.959 355.844 118.492C356.245 118.026 356.446 117.4 356.446 116.616V116.448C356.446 115.664 356.245 115.039 355.844 114.572C355.452 114.106 354.92 113.872 354.248 113.872C353.567 113.872 353.03 114.115 352.638 114.6C352.246 115.076 352.05 115.72 352.05 116.532C352.05 117.344 352.246 117.993 352.638 118.478C353.03 118.954 353.567 119.192 354.248 119.192ZM362.548 120.172C361.876 120.172 361.27 120.042 360.728 119.78C360.187 119.51 359.79 119.113 359.538 118.59L360.448 117.96C360.607 118.371 360.882 118.679 361.274 118.884C361.666 119.09 362.128 119.192 362.66 119.192C363.211 119.192 363.631 119.094 363.92 118.898C364.21 118.702 364.354 118.455 364.354 118.156C364.354 117.886 364.219 117.671 363.948 117.512C363.678 117.344 363.202 117.2 362.52 117.078C361.848 116.957 361.316 116.812 360.924 116.644C360.532 116.467 360.248 116.248 360.07 115.986C359.893 115.716 359.804 115.384 359.804 114.992C359.804 114.61 359.916 114.26 360.14 113.942C360.364 113.625 360.686 113.373 361.106 113.186C361.526 112.99 362.012 112.892 362.562 112.892C363.309 112.892 363.906 113.032 364.354 113.312C364.812 113.583 365.138 114.003 365.334 114.572L364.382 115.132C364.233 114.684 364.004 114.362 363.696 114.166C363.398 113.97 363.02 113.872 362.562 113.872C362.105 113.872 361.718 113.975 361.4 114.18C361.083 114.386 360.924 114.624 360.924 114.894C360.924 115.202 361.06 115.44 361.33 115.608C361.61 115.776 362.105 115.921 362.814 116.042C363.785 116.201 364.471 116.439 364.872 116.756C365.274 117.074 365.474 117.522 365.474 118.1C365.474 118.502 365.353 118.861 365.11 119.178C364.877 119.486 364.536 119.729 364.088 119.906C363.65 120.084 363.136 120.172 362.548 120.172ZM368.321 112.892C368.592 112.892 368.811 112.976 368.979 113.144C369.147 113.312 369.231 113.532 369.231 113.802C369.231 114.073 369.147 114.292 368.979 114.46C368.811 114.628 368.592 114.712 368.321 114.712C368.05 114.712 367.831 114.628 367.663 114.46C367.495 114.292 367.411 114.073 367.411 113.802C367.411 113.532 367.495 113.312 367.663 113.144C367.831 112.976 368.05 112.892 368.321 112.892ZM368.321 118.352C368.592 118.352 368.811 118.436 368.979 118.604C369.147 118.772 369.231 118.992 369.231 119.262C369.231 119.533 369.147 119.752 368.979 119.92C368.811 120.088 368.592 120.172 368.321 120.172C368.05 120.172 367.831 120.088 367.663 119.92C367.495 119.752 367.411 119.533 367.411 119.262C367.411 118.992 367.495 118.772 367.663 118.604C367.831 118.436 368.05 118.352 368.321 118.352ZM383.045 117.61H381.407V120.032H380.287V117.61H375.779V116.784L379.993 110.792H381.407V116.644H383.045V117.61ZM376.969 116.644H380.287V113.186L380.343 111.702H380.315C380.082 112.178 379.774 112.692 379.391 113.242L376.969 116.644ZM385.794 112.892C386.064 112.892 386.284 112.976 386.452 113.144C386.62 113.312 386.704 113.532 386.704 113.802C386.704 114.073 386.62 114.292 386.452 114.46C386.284 114.628 386.064 114.712 385.794 114.712C385.523 114.712 385.304 114.628 385.136 114.46C384.968 114.292 384.884 114.073 384.884 113.802C384.884 113.532 384.968 113.312 385.136 113.144C385.304 112.976 385.523 112.892 385.794 112.892ZM385.794 118.352C386.064 118.352 386.284 118.436 386.452 118.604C386.62 118.772 386.704 118.992 386.704 119.262C386.704 119.533 386.62 119.752 386.452 119.92C386.284 120.088 386.064 120.172 385.794 120.172C385.523 120.172 385.304 120.088 385.136 119.92C384.968 119.752 384.884 119.533 384.884 119.262C384.884 118.992 384.968 118.772 385.136 118.604C385.304 118.436 385.523 118.352 385.794 118.352ZM392.218 120.172C391.098 120.172 390.244 119.766 389.656 118.954C389.068 118.142 388.774 116.962 388.774 115.412C388.774 113.863 389.068 112.682 389.656 111.87C390.244 111.058 391.098 110.652 392.218 110.652C393.338 110.652 394.192 111.058 394.78 111.87C395.368 112.682 395.662 113.863 395.662 115.412C395.662 116.962 395.368 118.142 394.78 118.954C394.192 119.766 393.338 120.172 392.218 120.172ZM392.218 119.164C392.956 119.164 393.52 118.847 393.912 118.212C394.304 117.568 394.5 116.635 394.5 115.412C394.5 114.19 394.304 113.261 393.912 112.626C393.52 111.982 392.956 111.66 392.218 111.66C391.481 111.66 390.916 111.982 390.524 112.626C390.132 113.261 389.936 114.19 389.936 115.412C389.936 116.635 390.132 117.568 390.524 118.212C390.916 118.847 391.481 119.164 392.218 119.164ZM400.927 120.172C399.807 120.172 398.953 119.766 398.365 118.954C397.777 118.142 397.483 116.962 397.483 115.412C397.483 113.863 397.777 112.682 398.365 111.87C398.953 111.058 399.807 110.652 400.927 110.652C402.047 110.652 402.901 111.058 403.489 111.87C404.077 112.682 404.371 113.863 404.371 115.412C404.371 116.962 404.077 118.142 403.489 118.954C402.901 119.766 402.047 120.172 400.927 120.172ZM400.927 119.164C401.665 119.164 402.229 118.847 402.621 118.212C403.013 117.568 403.209 116.635 403.209 115.412C403.209 114.19 403.013 113.261 402.621 112.626C402.229 111.982 401.665 111.66 400.927 111.66C400.19 111.66 399.625 111.982 399.233 112.626C398.841 113.261 398.645 114.19 398.645 115.412C398.645 116.635 398.841 117.568 399.233 118.212C399.625 118.847 400.19 119.164 400.927 119.164ZM414.828 110.792C415.761 110.792 416.512 111.049 417.082 111.562C417.651 112.066 417.936 112.748 417.936 113.606C417.936 114.465 417.651 115.151 417.082 115.664C416.512 116.168 415.761 116.42 414.828 116.42H412.686V120.032H411.566V110.792H414.828ZM414.66 115.37C415.378 115.37 415.906 115.226 416.242 114.936C416.587 114.638 416.76 114.194 416.76 113.606C416.76 113.018 416.587 112.58 416.242 112.29C415.906 111.992 415.378 111.842 414.66 111.842H412.686V115.37H414.66ZM429.043 120.032H427.979V114.222L428.105 111.786H428.091L425.053 120.032H424.101L421.063 111.786H421.049L421.175 114.222V120.032H420.111V110.792H421.833L423.863 116.406L424.563 118.716H424.591L425.305 116.42L427.321 110.792H429.043V120.032Z" fill="#282828"/>
<rect x="524.5" y="0.532227" width="490" height="150" rx="4.5" fill="white"/>
<rect x="524.5" y="0.532227" width="490" height="150" rx="4.5" stroke="#CDCDCD"/>
<path d="M582.302 13.1922C584.094 13.1922 585.502 13.6242 586.526 14.4882C587.55 15.3522 588.062 16.5122 588.062 17.9682C588.062 19.5202 587.55 20.7122 586.526 21.5442C585.502 22.3602 584.102 22.7682 582.326 22.7682L581.99 22.9602H578.582V29.0322H575.318V13.1922H582.302ZM581.918 20.4402C582.846 20.4402 583.534 20.2562 583.982 19.8882C584.446 19.5042 584.678 18.9202 584.678 18.1362C584.678 17.3522 584.446 16.7762 583.982 16.4082C583.534 16.0242 582.846 15.8322 581.918 15.8322H578.582V20.4402H581.918ZM583.862 21.1362L588.998 29.0322H585.278L581.03 22.0962L583.862 21.1362ZM598.134 21.3762C598.134 20.6882 597.934 20.1522 597.534 19.7682C597.15 19.3842 596.638 19.1922 595.998 19.1922C595.406 19.1922 594.886 19.3442 594.438 19.6482C593.99 19.9522 593.662 20.4562 593.454 21.1602L590.646 20.2962C590.918 19.2402 591.51 18.3922 592.422 17.7522C593.35 17.1122 594.59 16.7922 596.142 16.7922C597.198 16.7922 598.118 16.9602 598.902 17.2962C599.686 17.6162 600.294 18.1042 600.726 18.7602C601.174 19.4162 601.398 20.2402 601.398 21.2322V26.1042C601.398 26.7122 601.686 27.0162 602.262 27.0162C602.534 27.0162 602.79 26.9762 603.03 26.8962L602.838 28.9362C602.422 29.1442 601.902 29.2482 601.278 29.2482C600.718 29.2482 600.214 29.1522 599.766 28.9602C599.318 28.7682 598.966 28.4802 598.71 28.0962C598.454 27.6962 598.326 27.2002 598.326 26.6082V26.5122L598.902 26.4162C598.806 27.0242 598.542 27.5442 598.11 27.9762C597.678 28.3922 597.15 28.7122 596.526 28.9362C595.918 29.1602 595.286 29.2722 594.63 29.2722C593.814 29.2722 593.11 29.1522 592.518 28.9122C591.926 28.6562 591.47 28.2882 591.15 27.8082C590.83 27.3282 590.67 26.7362 590.67 26.0322C590.67 25.1362 590.958 24.4082 591.534 23.8482C592.11 23.2722 592.934 22.8802 594.006 22.6722L598.518 21.7602L598.494 23.8002L595.614 24.3762C595.07 24.4882 594.654 24.6402 594.366 24.8322C594.094 25.0082 593.958 25.3042 593.958 25.7202C593.958 26.1202 594.102 26.4242 594.39 26.6322C594.694 26.8402 595.054 26.9442 595.47 26.9442C595.806 26.9442 596.134 26.9042 596.454 26.8242C596.774 26.7442 597.062 26.6162 597.318 26.4402C597.574 26.2642 597.774 26.0242 597.918 25.7202C598.062 25.4162 598.134 25.0482 598.134 24.6162V21.3762ZM608.855 13.3602V25.1202C608.855 25.6962 608.999 26.1202 609.287 26.3922C609.591 26.6482 609.999 26.7762 610.511 26.7762C610.911 26.7762 611.263 26.7202 611.567 26.6082C611.871 26.4802 612.143 26.3122 612.383 26.1042L612.911 28.2882C612.527 28.5922 612.047 28.8322 611.471 29.0082C610.895 29.1842 610.287 29.2722 609.647 29.2722C608.847 29.2722 608.135 29.1522 607.511 28.9122C606.903 28.6722 606.423 28.2882 606.071 27.7602C605.735 27.2322 605.567 26.5282 605.567 25.6482V14.2722L608.855 13.3602ZM612.695 17.0322V19.4802H603.359V17.0322H612.695ZM616.575 15.3042C615.887 15.3042 615.375 15.1602 615.039 14.8722C614.703 14.5682 614.535 14.1282 614.535 13.5522C614.535 12.9602 614.703 12.5202 615.039 12.2322C615.375 11.9282 615.887 11.7762 616.575 11.7762C617.263 11.7762 617.775 11.9282 618.111 12.2322C618.447 12.5202 618.615 12.9602 618.615 13.5522C618.615 14.1282 618.447 14.5682 618.111 14.8722C617.775 15.1602 617.263 15.3042 616.575 15.3042ZM618.207 17.0322V29.0322H614.919V17.0322H618.207ZM621.693 29.0322V17.0322H624.645L624.837 20.6322L624.429 20.2482C624.621 19.4642 624.925 18.8162 625.341 18.3042C625.757 17.7922 626.261 17.4162 626.853 17.1762C627.461 16.9202 628.125 16.7922 628.845 16.7922C629.677 16.7922 630.413 16.9522 631.053 17.2722C631.709 17.5922 632.221 18.0802 632.589 18.7362C632.973 19.3762 633.165 20.1842 633.165 21.1602V29.0322H629.877V22.0962C629.877 21.0722 629.677 20.3682 629.277 19.9842C628.877 19.5842 628.357 19.3842 627.717 19.3842C627.269 19.3842 626.829 19.4962 626.397 19.7202C625.981 19.9282 625.637 20.2722 625.365 20.7522C625.109 21.2322 624.981 21.8722 624.981 22.6722V29.0322H621.693ZM647.616 14.1762L648 16.5282C647.936 16.5282 647.864 16.5282 647.784 16.5282C647.72 16.5122 647.648 16.5042 647.568 16.5042C646.832 16.5042 646.28 16.6722 645.912 17.0082C645.544 17.3282 645.36 17.7762 645.36 18.3522L644.016 17.8002C644.016 17.1602 644.144 16.5682 644.4 16.0242C644.656 15.4642 645.032 15.0162 645.528 14.6802C646.04 14.3442 646.648 14.1762 647.352 14.1762C647.384 14.1762 647.424 14.1762 647.472 14.1762C647.52 14.1762 647.568 14.1762 647.616 14.1762ZM643.68 26.7762C644.976 26.7762 645.976 27.0562 646.68 27.6162C647.384 28.1762 647.736 28.9602 647.736 29.9682C647.736 30.8802 647.472 31.6482 646.944 32.2722C646.416 32.9122 645.672 33.3922 644.712 33.7122C643.768 34.0322 642.672 34.1922 641.424 34.1922C639.36 34.1922 637.848 33.9042 636.888 33.3282C635.944 32.7522 635.472 32.0002 635.472 31.0722C635.472 30.4162 635.72 29.8642 636.216 29.4162C636.728 28.9682 637.568 28.7202 638.736 28.6722L638.616 29.0562C637.784 28.9122 637.144 28.6402 636.696 28.2402C636.264 27.8242 636.048 27.2562 636.048 26.5362C636.048 25.8002 636.328 25.2002 636.888 24.7362C637.464 24.2562 638.24 23.9762 639.216 23.8962L640.656 24.5682H640.32C639.632 24.6162 639.144 24.7602 638.856 25.0002C638.584 25.2242 638.448 25.4802 638.448 25.7682C638.448 26.1042 638.576 26.3602 638.832 26.5362C639.104 26.6962 639.488 26.7762 639.984 26.7762H643.68ZM641.448 31.9362C642.28 31.9362 642.96 31.8642 643.488 31.7202C644.032 31.5762 644.432 31.3922 644.688 31.1682C644.96 30.9442 645.096 30.6962 645.096 30.4242C645.096 30.1202 644.976 29.8722 644.736 29.6802C644.496 29.5042 644.064 29.4162 643.44 29.4162H639.384C639 29.4162 638.68 29.5122 638.424 29.7042C638.184 29.8962 638.064 30.1602 638.064 30.4962C638.064 30.9442 638.36 31.2962 638.952 31.5522C639.56 31.8082 640.392 31.9362 641.448 31.9362ZM641.472 16.7922C642.592 16.7922 643.56 16.9602 644.376 17.2962C645.208 17.6162 645.84 18.0802 646.272 18.6882C646.72 19.2962 646.944 20.0242 646.944 20.8722C646.944 21.7042 646.72 22.4242 646.272 23.0322C645.84 23.6402 645.208 24.1122 644.376 24.4482C643.56 24.7682 642.592 24.9282 641.472 24.9282C639.696 24.9282 638.336 24.5682 637.392 23.8482C636.464 23.1122 636 22.1202 636 20.8722C636 20.0242 636.216 19.2962 636.648 18.6882C637.096 18.0802 637.728 17.6162 638.544 17.2962C639.36 16.9602 640.336 16.7922 641.472 16.7922ZM641.472 18.8562C640.832 18.8562 640.304 19.0322 639.888 19.3842C639.472 19.7362 639.264 20.2242 639.264 20.8482C639.264 21.4722 639.472 21.9682 639.888 22.3362C640.304 22.6882 640.832 22.8642 641.472 22.8642C642.112 22.8642 642.632 22.6882 643.032 22.3362C643.448 21.9682 643.656 21.4722 643.656 20.8482C643.656 20.2242 643.448 19.7362 643.032 19.3842C642.632 19.0322 642.112 18.8562 641.472 18.8562ZM654.524 29.2722C653.308 29.2722 652.196 29.0562 651.188 28.6242C650.196 28.1922 649.388 27.5842 648.764 26.8002L650.66 24.8802C651.044 25.4562 651.556 25.9282 652.196 26.2962C652.836 26.6642 653.596 26.8482 654.476 26.8482C655.1 26.8482 655.596 26.7602 655.964 26.5842C656.348 26.3922 656.54 26.0962 656.54 25.6962C656.54 25.4402 656.452 25.2242 656.276 25.0482C656.1 24.8562 655.748 24.7042 655.22 24.5922L653.108 24.1602C651.716 23.8722 650.724 23.4402 650.132 22.8642C649.556 22.2722 649.268 21.5122 649.268 20.5842C649.268 19.9282 649.46 19.3122 649.844 18.7362C650.244 18.1602 650.836 17.6962 651.62 17.3442C652.404 16.9762 653.38 16.7922 654.548 16.7922C655.748 16.7922 656.788 16.9842 657.668 17.3682C658.564 17.7362 659.268 18.2882 659.78 19.0242L657.812 20.9442C657.46 20.3842 656.996 19.9602 656.42 19.6722C655.86 19.3682 655.268 19.2162 654.644 19.2162C654.196 19.2162 653.812 19.2642 653.492 19.3602C653.172 19.4562 652.932 19.5922 652.772 19.7682C652.612 19.9282 652.532 20.1362 652.532 20.3922C652.532 20.6482 652.644 20.8722 652.868 21.0642C653.092 21.2402 653.5 21.3922 654.092 21.5202L656.54 22.0242C657.724 22.2642 658.572 22.6722 659.084 23.2482C659.596 23.8082 659.852 24.4882 659.852 25.2882C659.852 26.0562 659.644 26.7442 659.228 27.3522C658.828 27.9442 658.228 28.4162 657.428 28.7682C656.644 29.1042 655.676 29.2722 654.524 29.2722Z" fill="#282828"/>
<path d="M573.658 97.8906C590.889 97.8906 604.858 83.9216 604.858 66.6899C604.858 49.4583 590.889 35.4893 573.658 35.4893C556.426 35.4893 542.457 49.4583 542.457 66.6899C542.457 83.9216 556.426 97.8906 573.658 97.8906Z" fill="#F44336"/>
<path d="M573.659 47.375L579.453 59.1124L592.379 61.0439L583.019 70.1069L585.248 83.0329L573.659 76.9413L562.07 83.0329L564.299 70.1069L554.938 61.0439L567.864 59.1124L573.659 47.375Z" fill="#FFCA28"/>
<path d="M673.5 97.8906C690.732 97.8906 704.701 83.9216 704.701 66.6899C704.701 49.4583 690.732 35.4893 673.5 35.4893C656.269 35.4893 642.3 49.4583 642.3 66.6899C642.3 83.9216 656.269 97.8906 673.5 97.8906Z" fill="#F44336"/>
<path d="M673.501 47.3755L679.295 59.1129L692.221 61.0443L682.861 70.1074L685.089 83.0334L673.501 76.9418L661.912 83.0334L664.14 70.1074L654.78 61.0443L667.706 59.1129L673.501 47.3755Z" fill="#FFCA28"/>
<path d="M773.342 97.8906C790.574 97.8906 804.543 83.9216 804.543 66.6899C804.543 49.4583 790.574 35.4893 773.342 35.4893C756.111 35.4893 742.142 49.4583 742.142 66.6899C742.142 83.9216 756.111 97.8906 773.342 97.8906Z" fill="#F44336"/>
<path d="M773.343 47.3755L779.138 59.1129L792.064 61.0443L782.704 70.1074L784.932 83.0334L773.343 76.9418L761.755 83.0334L763.983 70.1074L754.623 61.0443L767.549 59.1129L773.343 47.3755Z" fill="#FFCA28"/>
</svg>
