<svg width="60" height="50" viewBox="0 0 60 50" fill="none" xmlns="http://www.w3.org/2000/svg">
<path d="M54.1976 14.0625C55.0764 14.605 55.8772 15.2669 56.5998 16.0482C57.3225 16.8294 57.9279 17.6975 58.4162 18.6523C58.9045 19.6072 59.2951 20.6163 59.588 21.6797C59.881 22.7431 60.0177 23.8498 59.9982 25H56.2483C56.2483 23.8715 56.053 22.7973 55.6624 21.7773C55.2718 20.7574 54.7347 19.8785 54.0511 19.1406C53.3675 18.4028 52.5668 17.806 51.6488 17.3503C50.7309 16.8945 49.7641 16.6667 48.7485 16.6667C47.7134 16.6667 46.7466 16.8837 45.8482 17.3177C44.9498 17.7517 44.1588 18.3485 43.4752 19.1081C42.7917 19.8676 42.2546 20.7574 41.864 21.7773C41.4733 22.7973 41.2683 23.8715 41.2487 25C41.2487 26.9748 40.8484 28.852 40.0476 30.6315C39.2468 32.411 38.1238 33.8867 36.6786 35.0586C37.9481 35.7747 39.0906 36.6536 40.1062 37.6953C41.1218 38.737 42.0007 39.9089 42.7428 41.2109C43.485 42.513 44.0416 43.9019 44.4127 45.3776C44.7838 46.8533 44.9791 48.3941 44.9986 50H41.2487C41.2487 48.2856 40.9558 46.6688 40.3699 45.1497C39.7839 43.6306 38.9734 42.3069 37.9383 41.1784C36.9032 40.0499 35.7118 39.1602 34.3642 38.5091C33.0166 37.8581 31.5615 37.5217 29.9991 37.5C28.4562 37.5 27.0011 37.8255 25.634 38.4766C24.2668 39.1276 23.0755 40.0282 22.0599 41.1784C21.0443 42.3286 20.2435 43.6523 19.6576 45.1497C19.0717 46.6471 18.769 48.2639 18.7494 50H14.9995C14.9995 48.4158 15.1948 46.8858 15.5855 45.4102C15.9761 43.9345 16.5327 42.5456 17.2553 41.2435C17.978 39.9414 18.8471 38.7695 19.8627 37.7279C20.8783 36.6862 22.0306 35.7964 23.3196 35.0586C21.8939 33.8867 20.7806 32.411 19.9799 30.6315C19.1791 28.852 18.769 26.9748 18.7494 25C18.7494 23.8715 18.5541 22.7973 18.1635 21.7773C17.7729 20.7574 17.2358 19.8785 16.5522 19.1406C15.8687 18.4028 15.0679 17.806 14.15 17.3503C13.232 16.8945 12.2653 16.6667 11.2497 16.6667C10.2145 16.6667 9.24776 16.8837 8.34935 17.3177C7.45094 17.7517 6.65995 18.3485 5.97638 19.1081C5.29281 19.8676 4.75571 20.7574 4.3651 21.7773C3.97449 22.7973 3.76942 23.8715 3.74989 25H0C0 23.8715 0.136715 22.7756 0.410144 21.7122C0.683573 20.6489 1.06442 19.6398 1.55269 18.6849C2.04095 17.73 2.65617 16.862 3.39833 16.0807C4.1405 15.2995 4.94126 14.6267 5.8006 14.0625C5.15609 13.303 4.65806 12.424 4.30651 11.4258C3.95496 10.4275 3.76942 9.3967 3.74989 8.33333C3.74989 7.20486 3.94519 6.13064 4.3358 5.11068C4.72642 4.09071 5.26351 3.21181 5.94708 2.47396C6.63066 1.73611 7.42165 1.13932 8.32006 0.683594C9.21847 0.227865 10.195 0 11.2497 0C12.2653 0 13.232 0.217014 14.15 0.651042C15.0679 1.08507 15.8589 1.68186 16.5229 2.44141C17.187 3.20095 17.7241 4.09071 18.1342 5.11068C18.5444 6.13064 18.7494 7.20486 18.7494 8.33333C18.7494 9.3967 18.5737 10.4275 18.2221 11.4258C17.8705 12.424 17.3628 13.303 16.6987 14.0625C18.3002 15.0391 19.6088 16.3845 20.6244 18.099C21.679 16.3628 23.0266 14.9957 24.6672 13.9974C26.3078 12.9991 28.0851 12.5 29.9991 12.5C31.8936 12.5 33.6611 12.9991 35.3017 13.9974C36.9422 14.9957 38.2996 16.3628 39.3738 18.099C40.3894 16.3845 41.6979 15.0391 43.2995 14.0625C42.6549 13.303 42.1569 12.424 41.8054 11.4258C41.4538 10.4275 41.2683 9.3967 41.2487 8.33333C41.2487 7.20486 41.444 6.13064 41.8347 5.11068C42.2253 4.09071 42.7624 3.21181 43.4459 2.47396C44.1295 1.73611 44.9205 1.13932 45.8189 0.683594C46.7173 0.227865 47.6939 0 48.7485 0C49.7641 0 50.7309 0.217014 51.6488 0.651042C52.5668 1.08507 53.3577 1.68186 54.0218 2.44141C54.6858 3.20095 55.2229 4.09071 55.6331 5.11068C56.0432 6.13064 56.2483 7.20486 56.2483 8.33333C56.2483 9.3967 56.0725 10.4275 55.721 11.4258C55.3694 12.424 54.8616 13.303 54.1976 14.0625ZM7.49977 8.33333C7.49977 8.91927 7.59742 9.46181 7.79273 9.96094C7.98804 10.4601 8.2517 10.8941 8.58372 11.263C8.91574 11.6319 9.31612 11.9358 9.78486 12.1745C10.2536 12.4132 10.7419 12.5217 11.2497 12.5C11.777 12.5 12.2653 12.3915 12.7145 12.1745C13.1637 11.9575 13.5543 11.6645 13.8863 11.2956C14.2183 10.9266 14.4917 10.4818 14.7066 9.96094C14.9214 9.4401 15.0191 8.89757 14.9995 8.33333C14.9995 7.7474 14.9019 7.20486 14.7066 6.70573C14.5113 6.2066 14.2476 5.77257 13.9156 5.40365C13.5836 5.03472 13.1832 4.7309 12.7145 4.49219C12.2457 4.25347 11.7575 4.14497 11.2497 4.16667C10.7223 4.16667 10.2341 4.27517 9.78486 4.49219C9.33565 4.7092 8.94504 5.00217 8.61302 5.37109C8.281 5.74002 8.00757 6.1849 7.79273 6.70573C7.57789 7.22656 7.48024 7.7691 7.49977 8.33333ZM29.9991 33.3333C31.0147 33.3333 31.9814 33.1163 32.8994 32.6823C33.8173 32.2483 34.6083 31.6515 35.2724 30.8919C35.9364 30.1324 36.4735 29.2535 36.8836 28.2552C37.2938 27.2569 37.4989 26.1719 37.4989 25C37.4989 23.8715 37.3036 22.7973 36.9129 21.7773C36.5223 20.7574 35.9852 19.8785 35.3017 19.1406C34.6181 18.4028 33.8173 17.806 32.8994 17.3503C31.9814 16.8945 31.0147 16.6667 29.9991 16.6667C28.964 16.6667 27.9972 16.8837 27.0988 17.3177C26.2004 17.7517 25.4094 18.3485 24.7258 19.1081C24.0422 19.8676 23.5051 20.7574 23.1145 21.7773C22.7239 22.7973 22.5188 23.8715 22.4993 25C22.4993 26.1502 22.6946 27.2244 23.0852 28.2227C23.4758 29.2209 24.0129 30.0998 24.6965 30.8594C25.3801 31.6189 26.1711 32.2157 27.0695 32.6497C27.9679 33.0838 28.9444 33.3116 29.9991 33.3333ZM44.9986 8.33333C44.9986 8.91927 45.0963 9.46181 45.2916 9.96094C45.4869 10.4601 45.7506 10.8941 46.0826 11.263C46.4146 11.6319 46.815 11.9358 47.2837 12.1745C47.7524 12.4132 48.2407 12.5217 48.7485 12.5C49.2758 12.5 49.7641 12.3915 50.2133 12.1745C50.6625 11.9575 51.0531 11.6645 51.3852 11.2956C51.7172 10.9266 51.9906 10.4818 52.2054 9.96094C52.4203 9.4401 52.5179 8.89757 52.4984 8.33333C52.4984 7.7474 52.4007 7.20486 52.2054 6.70573C52.0101 6.2066 51.7465 5.77257 51.4144 5.40365C51.0824 5.03472 50.682 4.7309 50.2133 4.49219C49.7446 4.25347 49.2563 4.14497 48.7485 4.16667C48.2212 4.16667 47.7329 4.27517 47.2837 4.49219C46.8345 4.7092 46.4439 5.00217 46.1119 5.37109C45.7799 5.74002 45.5064 6.1849 45.2916 6.70573C45.0767 7.22656 44.9791 7.7691 44.9986 8.33333Z" fill="black"/>
</svg>
