<svg width="24" height="24" viewBox="0 0 24 24" fill="none" xmlns="http://www.w3.org/2000/svg">
<path d="M19.9697 9.99316H3.96973V17.9932C3.96973 20.9932 4.96973 21.9932 7.96973 21.9932H15.9697C18.9697 21.9932 19.9697 20.9932 19.9697 17.9932V9.99316Z" stroke="#292D32" stroke-width="1.5" stroke-miterlimit="10" stroke-linecap="round" stroke-linejoin="round"/>
<path d="M21.5 6.99316V7.99316C21.5 9.09316 20.97 9.99316 19.5 9.99316H4.5C2.97 9.99316 2.5 9.09316 2.5 7.99316V6.99316C2.5 5.89316 2.97 4.99316 4.5 4.99316H19.5C20.97 4.99316 21.5 5.89316 21.5 6.99316Z" stroke="#292D32" stroke-width="1.5" stroke-miterlimit="10" stroke-linecap="round" stroke-linejoin="round"/>
<path d="M11.6398 4.99311H6.11978C5.77978 4.62311 5.78978 4.05311 6.14978 3.69311L7.56978 2.27311C7.93978 1.90311 8.54978 1.90311 8.91978 2.27311L11.6398 4.99311Z" stroke="#292D32" stroke-width="1.5" stroke-miterlimit="10" stroke-linecap="round" stroke-linejoin="round"/>
<path d="M17.8696 4.99311H12.3496L15.0696 2.27311C15.4396 1.90311 16.0496 1.90311 16.4196 2.27311L17.8396 3.69311C18.1996 4.05311 18.2096 4.62311 17.8696 4.99311Z" stroke="#292D32" stroke-width="1.5" stroke-miterlimit="10" stroke-linecap="round" stroke-linejoin="round"/>
<path d="M8.94043 9.99316V15.1332C8.94043 15.9332 9.82043 16.4032 10.4904 15.9732L11.4304 15.3532C11.7704 15.1332 12.2004 15.1332 12.5304 15.3532L13.4204 15.9532C14.0804 16.3932 14.9704 15.9232 14.9704 15.1232V9.99316H8.94043Z" stroke="#292D32" stroke-width="1.5" stroke-miterlimit="10" stroke-linecap="round" stroke-linejoin="round"/>
</svg>
