<svg width="92" height="92" viewBox="0 0 92 92" fill="none" xmlns="http://www.w3.org/2000/svg">
<path d="M71.4797 23.4212C71.4409 23.8093 71.4179 24.2521 71.4078 24.7322L65.8964 27.3642C65.1245 27.2377 61.2964 27.4606 55.5867 24.6431C54.1391 23.9286 52.7246 23.5491 51.3662 23.5491C50.1368 23.5503 48.9253 23.8434 47.8314 24.4044C46.3896 24.0925 44.3124 23.2932 43.0977 23.2961C40.3492 23.3105 34.1004 25.5487 32.3696 25.7399C30.6763 25.9253 28.9326 26.3911 27.1774 27.1328C23.9876 26.2042 19.9884 24.6876 17.8466 23.8496L2.875 12.9375V48.0269L13.8776 53.2622C14.0372 53.0754 14.2197 52.7879 14.4181 52.4314L14.7588 52.5895C14.9256 53.0207 15.1096 53.4501 15.3108 53.8775C14.1033 55.9101 13.9596 58.2001 14.9241 60.191C15.7507 61.8944 17.2902 63.0904 19.0052 63.4254C19.0986 64.4863 19.4551 65.5126 20.056 66.4024C21.1341 67.9938 22.8476 68.9439 24.6431 68.9439C24.806 68.9439 24.9679 68.9353 25.1289 68.9181C25.3848 69.6095 25.76 70.2535 26.2473 70.8112C27.3312 72.0576 28.8492 72.772 30.4103 72.772C30.5253 72.772 30.6389 72.7682 30.751 72.7605C30.9494 73.5138 31.2872 74.2267 31.7587 74.8621C32.844 76.3284 34.5187 77.2009 36.2408 77.2009C37.3103 77.2009 38.3324 76.8732 39.2337 76.2594C40.9759 77.3777 42.4911 78.1641 43.8351 78.6471C44.5093 78.9216 45.2108 79.0625 45.9267 79.0625C47.6201 79.0625 49.2631 78.2719 50.4361 76.889C50.8717 76.3744 51.2253 75.7994 51.4841 75.1841C51.9909 75.3371 52.5172 75.4155 53.0466 75.417C54.8464 75.417 56.5527 74.5358 57.7329 72.9948C58.294 72.2648 58.7 71.4278 58.926 70.5353C59.0496 70.5439 59.1723 70.5482 59.294 70.5482C61.3741 70.5482 63.365 69.3278 64.4848 67.3627C65.0716 66.3404 65.3831 65.1834 65.389 64.0047C67.4446 63.6985 69.2544 62.2366 70.1356 60.1048C71.0039 58.0046 70.7681 55.6873 69.5563 53.7553L75.1554 50.6C75.2991 51.0916 75.44 51.5444 75.5766 51.9124L89.125 44.7034V15.2979L71.4797 23.4212ZM71.4782 27.7869C71.5674 29.3423 71.7298 31.1003 71.9397 32.936C70.7897 31.004 69.3378 30.1228 67.5352 29.6844L71.4782 27.7869ZM63.963 61.9361C60.8752 60.8738 54.4482 53.3183 54.4482 53.3183H54.5747C55.2288 53.2723 56.6418 52.5837 58.2274 52.9129C55.7376 50.7739 52.9992 52.5837 51.1347 51.4754C51.5674 52.8626 53.6475 53.2996 54.1808 53.3169L60.3391 60.4785C63.1278 63.7201 61.1857 67.7307 58.3898 68.3689C56.5139 67.4561 51.2167 61.1556 51.2167 61.1556C51.3978 61.1225 52.4716 60.7861 53.5656 60.9299C51.0399 59.041 48.1764 60.6798 46.4772 59.4938C47.4404 61.8729 50.6129 61.2634 50.945 61.2059L54.2397 65.412C56.8761 68.7758 54.8047 72.6613 52.0044 73.1874C49.5219 72.3149 47.9104 69.2099 47.9104 69.2099C48.1606 69.1696 48.9972 68.7973 50.1874 68.9698C48.07 67.114 45.6047 68.7973 44.1226 67.7407C45.0383 69.736 47.3211 69.2817 47.449 69.2674C49.7318 72.8626 47.3642 76.6116 44.5352 76.7237H44.5323L44.5294 76.7251C42.8303 76.4304 41.0507 75.072 39.0411 73.6776C39.7311 72.9129 40.3406 71.5688 40.3406 71.5688C42.3588 67.9147 39.7397 64.6832 37.0358 64.9606C39.2294 65.5601 40.8739 68.3603 39.1618 71.4696L38.41 72.7346C37.5935 74.2224 36.3184 75.1209 35.3812 75.0102C33.9379 74.8348 31.9039 72.7274 32.7592 69.7547C33.0898 69.4528 36.2782 64.5754 36.2782 64.5754C38.4704 61.0449 36.0094 57.6653 33.2983 57.7803C35.4574 58.5091 36.9711 61.4043 35.1095 64.4086L32.5177 68.4494C31.6336 69.8783 30.4894 70.6876 29.3983 70.5381C27.7049 70.3081 26.5176 68.2424 26.7892 66.1106C26.7749 66.1236 28.6551 64.0205 28.6551 64.0205C31.1535 60.7559 29.0145 57.1104 26.3077 56.9193C28.3878 57.8881 29.6269 60.9414 27.5037 63.7201L26.5866 64.8442C25.5803 66.1638 24.3685 66.8351 23.3076 66.5706C21.4561 66.1063 20.493 62.6419 21.3684 61.6975C22.057 60.9543 23.9904 58.6011 23.9904 58.6011C26.4874 55.3351 24.3512 51.6911 21.6416 51.497C23.7231 52.4688 24.9622 55.522 22.839 58.3021L21.9219 59.4234C20.9099 60.7545 19.6938 61.4229 18.6257 61.1513C16.4004 60.5877 15.2892 57.1521 17.4182 54.3634C17.4182 54.3634 16.6951 52.0662 16.3688 51.0844L15.2964 50.5871C17.8106 44.7293 21.6085 31.8004 21.7839 27.5051C23.6354 28.1649 28.5229 29.5708 29.0418 29.5737L29.0389 29.5766C34.3002 27.9234 39.8144 28.106 42.3301 27.1342C43.1451 26.8237 44.7666 26.8036 46.4859 27.7869C45.4121 28.7284 44.3972 29.8497 43.3435 30.8948C40.825 33.3946 31.4611 37.2931 33.2666 41.3928C34.8249 44.9305 39.2136 48.5501 46.575 42.8677L50.715 42.2984L57.1536 45.4753L65.4048 53.9494C68.3474 56.9652 66.6813 61.0592 63.963 61.9361ZM66.033 52.5996C65.0871 50.8314 62.1388 47.932 59.3558 45.5616L59.3386 45.5443C60.6222 45.5961 61.9692 43.5289 63.71 43.3694C62.4939 42.4408 60.4785 43.5131 59.8503 43.6828C56.3874 44.6143 51.0054 40.2572 51.0054 40.2572L45.8563 40.9989C45.8563 40.9989 39.7325 48.4725 34.5733 42.3157C31.7716 38.9721 41.9247 34.6049 44.4259 32.1195C47.6301 28.9354 50.485 25.0398 55.7563 27.6934C60.1349 29.9014 61.8599 29.7649 67.7336 30.7869C69.4844 31.0931 70.6977 31.8953 71.9986 33.4607C72.611 38.6127 73.6014 44.3268 74.5516 48.3029C74.0614 48.7154 69.8596 51.5416 66.033 52.5996Z" fill="black"/>
</svg>
