<svg width="24" height="24" viewBox="0 0 24 24" fill="none" xmlns="http://www.w3.org/2000/svg">
<path d="M12.0196 2.90332C8.7096 2.90332 6.0196 5.59332 6.0196 8.90332V11.7933C6.0196 12.4033 5.7596 13.3333 5.4496 13.8533L4.2996 15.7633C3.5896 16.9433 4.0796 18.2533 5.3796 18.6933C9.6896 20.1333 14.3396 20.1333 18.6496 18.6933C19.8596 18.2933 20.3896 16.8633 19.7296 15.7633L18.5796 13.8533C18.2796 13.3333 18.0196 12.4033 18.0196 11.7933V8.90332C18.0196 5.60332 15.3196 2.90332 12.0196 2.90332Z" stroke="#292D32" stroke-width="1.5" stroke-miterlimit="10" stroke-linecap="round"/>
<path d="M13.8699 3.19311C13.5599 3.10311 13.2399 3.03311 12.9099 2.99311C11.9499 2.87311 11.0299 2.94311 10.1699 3.19311C10.4599 2.45311 11.1799 1.93311 12.0199 1.93311C12.8599 1.93311 13.5799 2.45311 13.8699 3.19311Z" stroke="#292D32" stroke-width="1.5" stroke-miterlimit="10" stroke-linecap="round" stroke-linejoin="round"/>
<path d="M15.0195 19.0532C15.0195 20.7032 13.6695 22.0532 12.0195 22.0532C11.1995 22.0532 10.4395 21.7132 9.89953 21.1732C9.35953 20.6332 9.01953 19.8732 9.01953 19.0532" stroke="#292D32" stroke-width="1.5" stroke-miterlimit="10"/>
</svg>
