<svg width="24" height="24" viewBox="0 0 24 24" fill="none" xmlns="http://www.w3.org/2000/svg">
<path d="M18.0001 7.15317C17.9401 7.14317 17.8701 7.14317 17.8101 7.15317C16.4301 7.10317 15.3301 5.97317 15.3301 4.57317C15.3301 3.14317 16.4801 1.99316 17.9101 1.99316C19.3401 1.99316 20.4901 3.15317 20.4901 4.57317C20.4801 5.97317 19.3801 7.10317 18.0001 7.15317Z" stroke="#292D32" stroke-width="1.5" stroke-linecap="round" stroke-linejoin="round"/>
<path d="M16.9704 14.4333C18.3404 14.6633 19.8504 14.4233 20.9104 13.7133C22.3204 12.7733 22.3204 11.2333 20.9104 10.2933C19.8404 9.58333 18.3104 9.34332 16.9404 9.58332" stroke="#292D32" stroke-width="1.5" stroke-linecap="round" stroke-linejoin="round"/>
<path d="M5.97047 7.15317C6.03047 7.14317 6.10047 7.14317 6.16047 7.15317C7.54047 7.10317 8.64047 5.97317 8.64047 4.57317C8.64047 3.14317 7.49047 1.99316 6.06047 1.99316C4.63047 1.99316 3.48047 3.15317 3.48047 4.57317C3.49047 5.97317 4.59047 7.10317 5.97047 7.15317Z" stroke="#292D32" stroke-width="1.5" stroke-linecap="round" stroke-linejoin="round"/>
<path d="M7.00043 14.4333C5.63043 14.6633 4.12043 14.4233 3.06043 13.7133C1.65043 12.7733 1.65043 11.2333 3.06043 10.2933C4.13043 9.58333 5.66043 9.34332 7.03043 9.58332" stroke="#292D32" stroke-width="1.5" stroke-linecap="round" stroke-linejoin="round"/>
<path d="M12.0001 14.6234C11.9401 14.6134 11.8701 14.6134 11.8101 14.6234C10.4301 14.5734 9.33008 13.4434 9.33008 12.0434C9.33008 10.6134 10.4801 9.46338 11.9101 9.46338C13.3401 9.46338 14.4901 10.6234 14.4901 12.0434C14.4801 13.4434 13.3801 14.5834 12.0001 14.6234Z" stroke="#292D32" stroke-width="1.5" stroke-linecap="round" stroke-linejoin="round"/>
<path d="M9.08973 17.7735C7.67973 18.7135 7.67973 20.2535 9.08973 21.1935C10.6897 22.2635 13.3097 22.2635 14.9097 21.1935C16.3197 20.2535 16.3197 18.7135 14.9097 17.7735C13.3197 16.7135 10.6897 16.7135 9.08973 17.7735Z" stroke="#292D32" stroke-width="1.5" stroke-linecap="round" stroke-linejoin="round"/>
</svg>
