<svg width="24" height="24" viewBox="0 0 24 24" fill="none" xmlns="http://www.w3.org/2000/svg">
<path d="M12 14.9932C13.6569 14.9932 15 13.65 15 11.9932C15 10.3363 13.6569 8.99316 12 8.99316C10.3431 8.99316 9 10.3363 9 11.9932C9 13.65 10.3431 14.9932 12 14.9932Z" stroke="#292D32" stroke-width="1.5" stroke-miterlimit="10" stroke-linecap="round" stroke-linejoin="round"/>
<path d="M2 12.8731V11.1131C2 10.0731 2.85 9.2131 3.9 9.2131C5.71 9.2131 6.45 7.9331 5.54 6.3631C5.02 5.4631 5.33 4.2931 6.24 3.7731L7.97 2.7831C8.76 2.3131 9.78 2.5931 10.25 3.3831L10.36 3.5731C11.26 5.1431 12.74 5.1431 13.65 3.5731L13.76 3.3831C14.23 2.5931 15.25 2.3131 16.04 2.7831L17.77 3.7731C18.68 4.2931 18.99 5.4631 18.47 6.3631C17.56 7.9331 18.3 9.2131 20.11 9.2131C21.15 9.2131 22.01 10.0631 22.01 11.1131V12.8731C22.01 13.9131 21.16 14.7731 20.11 14.7731C18.3 14.7731 17.56 16.0531 18.47 17.6231C18.99 18.5331 18.68 19.6931 17.77 20.2131L16.04 21.2031C15.25 21.6731 14.23 21.3931 13.76 20.6031L13.65 20.4131C12.75 18.8431 11.27 18.8431 10.36 20.4131L10.25 20.6031C9.78 21.3931 8.76 21.6731 7.97 21.2031L6.24 20.2131C5.33 19.6931 5.02 18.5231 5.54 17.6231C6.45 16.0531 5.71 14.7731 3.9 14.7731C2.85 14.7731 2 13.9131 2 12.8731Z" stroke="#292D32" stroke-width="1.5" stroke-miterlimit="10" stroke-linecap="round" stroke-linejoin="round"/>
</svg>
