<svg width="103" height="96" viewBox="0 0 103 96" fill="none" xmlns="http://www.w3.org/2000/svg">
<g filter="url(#filter0_d_622_2592)">
<ellipse cx="50.3718" cy="9.54179" rx="9.98559" ry="9.54179" fill="#F2E8C5"/>
</g>
<ellipse cx="86.3198" cy="26.1844" rx="6.87896" ry="7.10087" fill="#992B1C"/>
<ellipse cx="16.1988" cy="26.1844" rx="6.87896" ry="7.10087" fill="#992B1C"/>
<path d="M0 48.1526L-1.56908 46.5835L-2.21902 47.2335V48.1526H0ZM5.76945 42.3832V40.1642H4.85031L4.20037 40.8141L5.76945 42.3832ZM31.5101 42.3832L32.9914 40.731L32.3592 40.1642H31.5101V42.3832ZM37.9453 48.1526H40.1643V47.1618L39.4265 46.5004L37.9453 48.1526ZM37.9453 72.5619V74.7809H40.1643V72.5619H37.9453ZM31.5101 72.5619H29.2911V74.7809H31.5101V72.5619ZM31.5101 31.51L30.0953 29.8005L29.2911 30.466V31.51H31.5101ZM37.9453 26.1843V23.9653H37.1461L36.5305 24.4748L37.9453 26.1843ZM67.0144 26.1843L68.6165 24.649L67.9613 23.9653H67.0144V26.1843ZM72.1182 31.51H74.3372V30.6184L73.7203 29.9746L72.1182 31.51ZM72.1182 72.5619V74.7809H74.3372V72.5619H72.1182ZM63.6859 72.5619H61.4669V74.7809H63.6859V72.5619ZM63.6859 48.1526L61.7638 47.0437L61.4669 47.5584V48.1526H63.6859ZM67.0144 42.3832V40.1642H65.7328L65.0923 41.2743L67.0144 42.3832ZM95.4179 42.3832L97.0799 40.9129L96.4176 40.1642H95.4179V42.3832ZM100.522 48.1526H102.741V47.312L102.184 46.6824L100.522 48.1526ZM98.3026 84.3227C98.3026 85.5482 99.2961 86.5417 100.522 86.5417C101.747 86.5417 102.741 85.5482 102.741 84.3227H98.3026ZM2.21902 84.3227V48.1526H-2.21902V84.3227H2.21902ZM1.56908 49.7217L7.33854 43.9523L4.20037 40.8141L-1.56908 46.5835L1.56908 49.7217ZM5.76945 44.6022H31.5101V40.1642H5.76945V44.6022ZM30.0288 44.0354L36.464 49.8048L39.4265 46.5004L32.9914 40.731L30.0288 44.0354ZM35.7262 48.1526V72.5619H40.1643V48.1526H35.7262ZM37.9453 70.3428H31.5101V74.7809H37.9453V70.3428ZM33.7291 72.5619V31.51H29.2911V72.5619H33.7291ZM32.9249 33.2195L39.36 27.8938L36.5305 24.4748L30.0953 29.8005L32.9249 33.2195ZM37.9453 28.4033H67.0144V23.9653H37.9453V28.4033ZM65.4123 27.7197L70.5161 33.0453L73.7203 29.9746L68.6165 24.649L65.4123 27.7197ZM69.8991 31.51V72.5619H74.3372V31.51H69.8991ZM72.1182 70.3428H63.6859V74.7809H72.1182V70.3428ZM65.9049 72.5619V48.1526H61.4669V72.5619H65.9049ZM65.608 49.2615L68.9365 43.4921L65.0923 41.2743L61.7638 47.0437L65.608 49.2615ZM67.0144 44.6022H95.4179V40.1642H67.0144V44.6022ZM93.7558 43.8534L98.8596 49.6229L102.184 46.6824L97.0799 40.9129L93.7558 43.8534ZM98.3026 48.1526V84.3227H102.741V48.1526H98.3026Z" fill="#992B1C"/>
<path d="M22.5018 79.859C22.5018 79.859 21.7959 79.859 20.384 79.859L18.1942 88.4598C18.1366 88.6759 17.9877 88.7839 17.7476 88.7839H16.4942C16.3742 88.7839 16.2878 88.7407 16.2349 88.6543C16.1821 88.563 16.1701 88.455 16.1989 88.3301L18.3599 79.859H16.1125C15.9636 79.859 15.8676 79.8182 15.8243 79.7366C15.7811 79.6549 15.7835 79.5181 15.8315 79.326L16.0693 78.3968C16.0981 78.2719 16.1413 78.1927 16.1989 78.159C16.2613 78.1206 16.3646 78.1014 16.5087 78.1014H19.1667H20.4201H22.8548C23.1525 78.1014 23.2654 78.2599 23.1933 78.5768L23.006 79.4484C22.9868 79.5589 22.9244 79.6549 22.8188 79.7366C22.7179 79.8182 22.6123 79.859 22.5018 79.859ZM25.0114 82.1569C25.1987 81.8832 25.3956 81.619 25.6021 81.3645C25.6117 81.3501 25.6309 81.3261 25.6597 81.2925C25.6933 81.2541 25.7125 81.2301 25.7173 81.2205C25.7269 81.2109 25.7437 81.1916 25.7678 81.1628C25.7918 81.134 25.8062 81.1172 25.811 81.1124C25.8206 81.1028 25.835 81.0884 25.8542 81.0692C25.8782 81.0452 25.895 81.0284 25.9046 81.0188C25.919 81.0044 25.9358 80.99 25.955 80.9755C25.9742 80.9563 25.9935 80.9419 26.0127 80.9323C26.0319 80.9179 26.0511 80.9035 26.0703 80.8891C26.1807 80.8123 26.3872 80.7739 26.6898 80.7739H27.5037C27.6286 80.7739 27.7198 80.8003 27.7775 80.8531C27.8399 80.9011 27.8471 80.9851 27.7991 81.1052C27.7559 81.2205 27.643 81.3597 27.4605 81.523C27.2636 81.7007 26.9587 82.0464 26.5457 82.5603C26.2912 82.8868 26.1639 83.1125 26.1639 83.2374C26.1639 83.4919 26.2864 83.732 26.5313 83.9577C26.5649 83.9961 26.5769 84.0346 26.5673 84.073C26.5577 84.1114 26.5217 84.1474 26.4593 84.181C26.4016 84.2146 26.332 84.2338 26.2504 84.2386L25.1987 84.3323C25.0306 84.3467 24.8986 84.3155 24.8025 84.2386C24.7449 84.1954 24.6632 84.0778 24.5576 83.8857L23.3546 88.4598C23.297 88.6759 23.1505 88.7839 22.9152 88.7839H21.7195C21.4506 88.7839 21.3425 88.6711 21.3953 88.4454L23.3114 81.1412C23.369 80.9251 23.5179 80.8171 23.758 80.8171H24.9538C25.2227 80.8171 25.3307 80.9299 25.2779 81.1556L25.0114 82.1569ZM29.8229 88.6975C29.8229 88.6975 29.6933 88.3878 29.434 87.7683H29.4412L29.4124 87.7034L29.2755 87.8691C28.973 88.2293 28.7352 88.479 28.5624 88.6183C28.3943 88.7575 28.2238 88.8272 28.0509 88.8272H27.9429C27.7748 88.8272 27.5299 88.6663 27.2081 88.3445C26.7807 87.9171 26.5935 87.4393 26.6463 86.9111C26.7519 85.845 27.0305 84.7117 27.4819 83.5111C27.9333 82.3058 28.3679 81.5446 28.7857 81.2277C29.117 80.9731 29.5108 80.8459 29.967 80.8459C30.3944 80.8459 30.7978 80.9827 31.1772 81.2565L31.1916 81.1844C31.2108 81.1028 31.23 81.038 31.2492 80.99C31.2684 80.9419 31.3044 80.8963 31.3573 80.8531C31.4101 80.8099 31.4773 80.7883 31.5589 80.7883L32.5026 80.7739C32.8675 80.7739 33.0068 80.9371 32.9204 81.2637L31.2996 86.6806C31.4389 86.5317 31.5445 86.3972 31.6166 86.2772C31.7126 86.1187 31.8375 86.0851 31.9911 86.1763L32.6394 86.6013C32.7931 86.707 32.8267 86.8198 32.7403 86.9399C32.3945 87.4441 31.9911 87.8763 31.5301 88.2365C31.0691 88.5966 30.5865 88.8031 30.0823 88.856C29.967 88.8704 29.8806 88.8176 29.8229 88.6975ZM30.8746 82.4882C30.4905 82.3634 30.2263 82.3514 30.0823 82.4522C29.8806 82.6059 29.6213 83.1077 29.3043 83.9577C28.9922 84.8077 28.7809 85.5352 28.6704 86.1403C28.6368 86.3228 28.6224 86.4429 28.6272 86.5005C28.6368 86.5581 28.6752 86.5869 28.7425 86.5869C28.8193 86.5869 28.9321 86.5005 29.081 86.3276C29.2347 86.1499 29.4076 85.8978 29.5996 85.5713C30.0414 84.8125 30.4664 83.7848 30.8746 82.4882ZM36.0711 88.6975C36.0711 88.6975 36.0567 88.6615 36.0279 88.5894L35.9415 88.3878L35.6822 87.7683H35.6894L35.6606 87.7034L35.5237 87.8691C35.2212 88.2293 34.9834 88.479 34.8106 88.6183C34.6425 88.7575 34.472 88.8272 34.2991 88.8272H34.1983C34.0062 88.8272 33.8021 88.7263 33.586 88.5246C33.3699 88.3229 33.1922 88.0708 33.053 87.7683C32.9185 87.4609 32.8657 87.1752 32.8945 86.9111C33.0001 85.845 33.2787 84.7117 33.7301 83.5111C34.1815 82.3058 34.6161 81.5446 35.0339 81.2277C35.3652 80.9731 35.759 80.8459 36.2152 80.8459C36.6618 80.8459 37.0748 80.9876 37.4542 81.2709L38.3546 77.9141C38.4122 77.698 38.5611 77.59 38.8012 77.59H39.8745C40.1434 77.59 40.2515 77.7028 40.1986 77.9285L37.7423 86.5869C37.8624 86.4669 37.9536 86.3588 38.016 86.2628C38.1217 86.1043 38.2441 86.0803 38.3834 86.1907L39.0029 86.6446C39.1518 86.7598 39.183 86.8775 39.0965 86.9975C38.7076 87.4873 38.2754 87.9075 37.7999 88.2581C37.3245 88.6039 36.8371 88.8031 36.3377 88.856C36.2032 88.8704 36.1144 88.8176 36.0711 88.6975ZM37.1228 82.4882C36.7387 82.3634 36.4769 82.3514 36.3377 82.4522C36.136 82.6059 35.8767 83.1077 35.5597 83.9577C35.2428 84.8077 35.0291 85.5352 34.9186 86.1403C34.885 86.3228 34.8706 86.4429 34.8754 86.5005C34.885 86.5581 34.9234 86.5869 34.9906 86.5869C35.1779 86.5869 35.4781 86.1907 35.8911 85.3984C36.3089 84.606 36.693 83.708 37.0436 82.7043L37.1228 82.4882ZM41.8666 85.0094C42.2075 84.7933 42.5005 84.4523 42.7454 83.9865C42.9951 83.5207 43.1199 83.0933 43.1199 82.7043C43.1199 82.5507 43.1055 82.4474 43.0767 82.3946C43.0527 82.337 43.0047 82.3082 42.9327 82.3082C42.8606 82.3082 42.7766 82.385 42.6805 82.5387C42.5893 82.6923 42.5149 82.846 42.4572 82.9997C42.2651 83.4991 42.0683 84.169 41.8666 85.0094ZM41.5208 86.6157C41.4776 86.8414 41.4656 86.9879 41.4848 87.0551C41.5088 87.1176 41.5784 87.168 41.6937 87.2064C41.857 87.1728 42.1859 86.8919 42.6805 86.3636C42.719 86.3252 42.767 86.3036 42.8246 86.2988C42.8822 86.294 42.9327 86.306 42.9759 86.3348L43.6962 86.7742C43.7538 86.8078 43.7946 86.8607 43.8187 86.9327C43.8475 87.0047 43.8499 87.0623 43.8259 87.1056C43.653 87.4417 43.2544 87.8643 42.6301 88.3733C42.0058 88.8824 41.5736 89.1129 41.3335 89.0649C40.3923 88.8584 39.8568 88.455 39.7272 87.8547C39.6407 87.4321 39.672 86.7886 39.8208 85.9242C39.9697 85.0598 40.2002 84.2074 40.5123 83.367C40.8293 82.5267 41.1534 81.9528 41.4848 81.6455C41.7057 81.4342 41.9362 81.2637 42.1763 81.134C42.4212 80.9996 42.6733 80.9155 42.9327 80.8819C43.1968 80.8435 43.4465 80.8771 43.6818 80.9827C44.3685 81.2757 44.7119 81.7823 44.7119 82.5026C44.7119 82.9925 44.5582 83.5231 44.2509 84.0946C43.9435 84.6612 43.5425 85.1751 43.0479 85.6361C42.5533 86.0923 42.0442 86.4188 41.5208 86.6157ZM54.3415 80.8315C54.3751 81.0668 54.2767 81.2253 54.0462 81.3069L52.7496 81.6887C52.6391 81.7175 52.5335 81.6983 52.4327 81.631C52.3366 81.5638 52.2862 81.4702 52.2814 81.3501C52.2526 81.014 52.2166 80.757 52.1733 80.5794C52.1301 80.3969 52.0629 80.1904 51.9716 79.9599C51.914 79.9407 51.854 79.9311 51.7916 79.9311C51.1865 79.9311 50.5958 81.0332 50.0195 83.2374C49.765 84.2026 49.633 85.0694 49.6234 85.8378C49.6138 86.6013 49.741 87.0239 50.0051 87.1056C50.106 87.0719 50.1996 87.0239 50.2861 86.9615C50.3773 86.8943 50.4517 86.8318 50.5094 86.7742C50.567 86.7166 50.6414 86.6109 50.7327 86.4573C50.8239 86.3036 50.8935 86.1811 50.9416 86.0899C50.9944 85.9987 51.0856 85.8258 51.2153 85.5713C51.3161 85.384 51.4026 85.2711 51.4746 85.2327C51.5466 85.1895 51.6619 85.1991 51.8204 85.2615L53.0305 85.7874C53.1266 85.821 53.177 85.8978 53.1818 86.0179C53.1866 86.1379 53.1506 86.258 53.0737 86.378C52.6896 86.9927 52.3414 87.4729 52.0293 87.8187C51.7219 88.1596 51.3714 88.4262 50.9776 88.6183C50.5838 88.8055 50.1324 88.8992 49.6234 88.8992C49.3256 88.8992 49.0111 88.7959 48.6797 88.5894C48.2331 88.3157 47.9162 87.8763 47.7289 87.2712C47.5416 86.6662 47.4696 85.9891 47.5128 85.2399C47.5608 84.4908 47.6977 83.6648 47.9234 82.762C48.1491 81.8495 48.4516 81.038 48.831 80.3272C49.2152 79.6165 49.6738 79.0499 50.2068 78.6273C50.7447 78.1999 51.3113 77.9862 51.9068 77.9862C52.1325 77.9862 52.3942 78.0246 52.692 78.1014C53.1722 78.2167 53.5372 78.4856 53.7869 78.9082C54.0366 79.3308 54.2215 79.9719 54.3415 80.8315ZM56.8716 86.3924C57.0252 86.0995 57.1621 85.7778 57.2822 85.4272C57.4022 85.0766 57.4814 84.8029 57.5199 84.606C57.5727 84.4331 57.6207 84.1858 57.6639 83.8641C57.7072 83.5423 57.7072 83.2206 57.6639 82.8988C57.6207 82.5723 57.5079 82.409 57.3254 82.409C57.1237 82.409 56.946 82.5123 56.7923 82.7187C56.6387 82.9252 56.4826 83.2302 56.3241 83.6336C56.3193 83.6432 56.2929 83.7104 56.2449 83.8353C56.1969 83.9601 56.1512 84.0778 56.108 84.1882C56.0696 84.2987 56.0192 84.4475 55.9567 84.6348C55.8991 84.8221 55.8487 84.9974 55.8055 85.1607C55.7671 85.3191 55.7334 85.4944 55.7046 85.6865C55.6758 85.8786 55.6614 86.0515 55.6614 86.2051C55.6614 86.5317 55.683 86.7598 55.7262 86.8895C55.7743 87.0191 55.8847 87.1008 56.0576 87.1344C56.2257 87.1104 56.3673 87.0479 56.4826 86.9471C56.5978 86.8462 56.7275 86.6614 56.8716 86.3924ZM54.7322 82.7187C54.9867 82.1377 55.3445 81.6551 55.8055 81.2709C56.2713 80.8819 56.8235 80.6874 57.4622 80.6874C57.832 80.6874 58.1538 80.757 58.4275 80.8963C58.706 81.0356 58.9389 81.2949 59.1262 81.6743C59.2078 81.8279 59.2679 82.0176 59.3063 82.2433C59.3495 82.4642 59.3711 82.6395 59.3711 82.7692C59.3759 82.8988 59.3783 83.1197 59.3783 83.4319C59.3783 84.0418 59.2823 84.6708 59.0902 85.3191C58.8981 85.9674 58.6412 86.5629 58.3194 87.1056C57.9881 87.6578 57.6183 88.0948 57.2101 88.4166C56.8067 88.7383 56.3889 88.8992 55.9567 88.8992C55.6398 88.8992 55.3733 88.8632 55.1572 88.7911C54.9411 88.7239 54.7202 88.5702 54.4945 88.3301C54.2736 88.0948 54.1103 87.7851 54.0046 87.4009C53.899 87.0119 53.8462 86.6133 53.8462 86.2051C53.8462 85.1295 54.1415 83.9673 54.7322 82.7187ZM62.3168 82.9997L63.3973 81.4942C63.5702 81.2637 63.7407 81.0932 63.9087 80.9827C64.0816 80.8723 64.2809 80.8171 64.5066 80.8171H65.2269C65.4526 80.8171 65.6351 80.8867 65.7744 81.026C65.9137 81.1652 65.9377 81.4101 65.8464 81.7607L64.0456 88.575C64.0024 88.7239 63.8799 88.7983 63.6782 88.7983L62.4825 88.7839C62.4297 88.7839 62.3816 88.7551 62.3384 88.6975C62.3 88.6351 62.2976 88.5462 62.3312 88.431L63.246 85.067C63.2556 85.0238 63.2724 84.9614 63.2965 84.8797C63.3253 84.7933 63.3469 84.7213 63.3613 84.6636C63.3805 84.606 63.3997 84.5364 63.4189 84.4547C63.4429 84.3731 63.4573 84.3059 63.4621 84.2531C63.4717 84.2002 63.4789 84.1498 63.4837 84.1018C63.4885 84.049 63.4837 84.0105 63.4693 83.9865C63.4597 83.9577 63.4405 83.9433 63.4117 83.9433C63.3829 83.9433 63.3541 83.9529 63.3253 83.9721C63.3013 83.9913 63.27 84.0249 63.2316 84.073C63.198 84.121 63.1692 84.1642 63.1452 84.2026C63.1212 84.241 63.0852 84.3011 63.0371 84.3827C62.9891 84.4643 62.9507 84.5292 62.9219 84.5772C62.653 85.0142 62.264 85.7345 61.7549 86.7382C61.2507 87.7419 60.9386 88.3301 60.8185 88.503C60.6793 88.6903 60.5256 88.7839 60.3575 88.7839H59.4571C59.3707 88.7839 59.3034 88.7479 59.2554 88.6759C59.2026 88.5991 59.1906 88.5078 59.2194 88.4022L61.1427 81.2277C61.2051 80.9539 61.3516 80.8171 61.5821 80.8171H62.5257C62.713 80.8171 62.8354 80.8531 62.8931 80.9251C62.9507 80.9924 62.9507 81.11 62.8931 81.2781L62.3168 82.9997ZM68.6046 82.9997L69.6851 81.4942C69.858 81.2637 70.0285 81.0932 70.1965 80.9827C70.3694 80.8723 70.5687 80.8171 70.7944 80.8171H71.5147C71.7405 80.8171 71.9229 80.8867 72.0622 81.026C72.2015 81.1652 72.2255 81.4101 72.1342 81.7607L70.3334 88.575C70.2902 88.7239 70.1677 88.7983 69.966 88.7983L68.7703 88.7839C68.7175 88.7839 68.6694 88.7551 68.6262 88.6975C68.5878 88.6351 68.5854 88.5462 68.619 88.431L69.5338 85.067C69.5434 85.0238 69.5603 84.9614 69.5843 84.8797C69.6131 84.7933 69.6347 84.7213 69.6491 84.6636C69.6683 84.606 69.6875 84.5364 69.7067 84.4547C69.7307 84.3731 69.7451 84.3059 69.7499 84.2531C69.7595 84.2002 69.7667 84.1498 69.7715 84.1018C69.7764 84.049 69.7715 84.0105 69.7571 83.9865C69.7475 83.9577 69.7283 83.9433 69.6995 83.9433C69.6707 83.9433 69.6419 83.9529 69.6131 83.9721C69.5891 83.9913 69.5578 84.0249 69.5194 84.073C69.4858 84.121 69.457 84.1642 69.433 84.2026C69.409 84.241 69.373 84.3011 69.3249 84.3827C69.2769 84.4643 69.2385 84.5292 69.2097 84.5772C68.9408 85.0142 68.5518 85.7345 68.0428 86.7382C67.5385 87.7419 67.2264 88.3301 67.1063 88.503C66.9671 88.6903 66.8134 88.7839 66.6453 88.7839H65.7449C65.6585 88.7839 65.5912 88.7479 65.5432 88.6759C65.4904 88.5991 65.4784 88.5078 65.5072 88.4022L67.4305 81.2277C67.4929 80.9539 67.6394 80.8171 67.8699 80.8171H68.8135C69.0008 80.8171 69.1232 80.8531 69.1809 80.9251C69.2385 80.9924 69.2385 81.11 69.1809 81.2781L68.6046 82.9997ZM74.2729 85.0094C74.6139 84.7933 74.9068 84.4523 75.1517 83.9865C75.4014 83.5207 75.5263 83.0933 75.5263 82.7043C75.5263 82.5507 75.5119 82.4474 75.4831 82.3946C75.4591 82.337 75.4111 82.3082 75.339 82.3082C75.267 82.3082 75.1829 82.385 75.0869 82.5387C74.9957 82.6923 74.9212 82.846 74.8636 82.9997C74.6715 83.4991 74.4746 84.169 74.2729 85.0094ZM73.9272 86.6157C73.884 86.8414 73.8719 86.9879 73.8912 87.0551C73.9152 87.1176 73.9848 87.168 74.1001 87.2064C74.2633 87.1728 74.5923 86.8919 75.0869 86.3636C75.1253 86.3252 75.1733 86.3036 75.231 86.2988C75.2886 86.294 75.339 86.306 75.3822 86.3348L76.1026 86.7742C76.1602 86.8078 76.201 86.8607 76.225 86.9327C76.2538 87.0047 76.2562 87.0623 76.2322 87.1056C76.0594 87.4417 75.6608 87.8643 75.0365 88.3733C74.4122 88.8824 73.98 89.1129 73.7399 89.0649C72.7987 88.8584 72.2632 88.455 72.1335 87.8547C72.0471 87.4321 72.0783 86.7886 72.2272 85.9242C72.3761 85.0598 72.6066 84.2074 72.9187 83.367C73.2357 82.5267 73.5598 81.9528 73.8912 81.6455C74.1121 81.4342 74.3426 81.2637 74.5827 81.134C74.8276 80.9996 75.0797 80.9155 75.339 80.8819C75.6031 80.8435 75.8529 80.8771 76.0882 80.9827C76.7749 81.2757 77.1182 81.7823 77.1182 82.5026C77.1182 82.9925 76.9646 83.5231 76.6572 84.0946C76.3499 84.6612 75.9489 85.1751 75.4543 85.6361C74.9596 86.0923 74.4506 86.4188 73.9272 86.6157ZM80.5215 80.7594C80.8769 80.7979 81.2106 80.8963 81.5228 81.0548C81.8349 81.2085 82.051 81.3501 82.1711 81.4798C82.2479 81.5662 82.2887 81.6623 82.2935 81.7679C82.3031 81.8688 82.2815 81.9456 82.2287 81.9984L81.5516 82.7187C81.47 82.8004 81.4027 82.8508 81.3499 82.87C81.2971 82.8844 81.2226 82.87 81.1266 82.8268C80.6704 82.5723 80.3847 82.4594 80.2694 82.4882C80.1397 82.5219 79.9741 82.7187 79.7724 83.0789C79.5707 83.4343 79.3954 83.7896 79.2465 84.145C79.1025 84.5004 79.0016 84.7789 78.944 84.9806C78.8768 85.1871 78.8023 85.5112 78.7207 85.953C78.6439 86.39 78.6054 86.6902 78.6054 86.8534C78.6054 87.132 78.6439 87.2784 78.7207 87.2928C79.2201 86.8751 79.5059 86.6301 79.5779 86.5581C79.7123 86.4237 79.8828 86.4237 80.0893 86.5581L80.7088 86.9687C80.7952 87.0215 80.8433 87.1032 80.8529 87.2136C80.8625 87.3241 80.8457 87.4009 80.8025 87.4441C80.6248 87.713 80.3174 88.0204 79.8804 88.3661C79.4482 88.7119 79.1457 88.8992 78.9728 88.928C78.6943 88.976 78.3221 88.8848 77.8563 88.6543C77.3953 88.419 77.112 88.1813 77.0063 87.9411C76.8718 87.6242 76.7998 87.252 76.7902 86.8246C76.7806 86.3924 76.8214 85.9698 76.9127 85.5569C77.0039 85.1439 77.1216 84.7309 77.2656 84.3179C77.4097 83.9001 77.5538 83.5399 77.6978 83.2374C77.8467 82.93 77.986 82.6803 78.1156 82.4882C78.9512 81.2493 79.7532 80.673 80.5215 80.7594ZM85.7162 79.0162C85.7162 79.0162 85.5649 79.6165 85.2624 80.8171H86.0547C86.17 80.8171 86.2444 80.8435 86.278 80.8963C86.3117 80.9443 86.3117 81.026 86.278 81.1412L86.0259 81.9696C85.9635 82.1857 85.8362 82.2938 85.6441 82.2938H84.8806L83.3103 88.4598C83.2526 88.6759 83.1062 88.7839 82.8709 88.7839H81.7327C81.5743 88.7839 81.4638 88.7383 81.4014 88.6471C81.339 88.5558 81.3222 88.443 81.351 88.3085L82.8853 82.2938H82.3234C82.2226 82.2938 82.1553 82.2697 82.1217 82.2217C82.0929 82.1689 82.0953 82.0753 82.1289 81.9408L82.3666 81.098C82.4003 80.9827 82.4411 80.9083 82.4891 80.8747C82.5419 80.8363 82.6092 80.8171 82.6908 80.8171H83.2598L83.7281 79.0018C83.7857 78.7857 83.9322 78.6777 84.1675 78.6777H85.392C85.661 78.6777 85.769 78.7905 85.7162 79.0162Z" fill="black"/>
<defs>
<filter id="filter0_d_622_2592" x="38.611" y="0" width="23.5216" height="22.6339" filterUnits="userSpaceOnUse" color-interpolation-filters="sRGB">
<feFlood flood-opacity="0" result="BackgroundImageFix"/>
<feColorMatrix in="SourceAlpha" type="matrix" values="0 0 0 0 0 0 0 0 0 0 0 0 0 0 0 0 0 0 127 0" result="hardAlpha"/>
<feOffset dy="1.77522"/>
<feGaussianBlur stdDeviation="0.887608"/>
<feComposite in2="hardAlpha" operator="out"/>
<feColorMatrix type="matrix" values="0 0 0 0 0 0 0 0 0 0 0 0 0 0 0 0 0 0 0.25 0"/>
<feBlend mode="normal" in2="BackgroundImageFix" result="effect1_dropShadow_622_2592"/>
<feBlend mode="normal" in="SourceGraphic" in2="effect1_dropShadow_622_2592" result="shape"/>
</filter>
</defs>
</svg>
