<svg width="33" height="33" viewBox="0 0 33 33" fill="none" xmlns="http://www.w3.org/2000/svg">
<g clip-path="url(#clip0_109_94)">
<path d="M33 4.01851C31.7643 4.68914 30.4536 5.12929 29.1114 5.3243C30.5094 4.29799 31.5828 2.67278 32.0882 0.736356C30.7593 1.70229 29.3053 2.38287 27.7891 2.74872C26.554 1.13709 24.7946 0.129883 22.8472 0.129883C19.1082 0.129883 16.0767 3.84294 16.0767 8.42251C16.0767 9.07257 16.1366 9.70541 16.252 10.3125C10.6252 9.96657 5.63655 6.66515 2.29724 1.64788C1.71458 2.87267 1.38071 4.29736 1.38071 5.81694C1.38071 8.69409 2.57606 11.2323 4.39261 12.7195C3.31746 12.6783 2.26595 12.3226 1.32593 11.6821C1.32559 11.7168 1.32546 11.7516 1.32554 11.7865C1.32554 15.8044 3.65926 19.1562 6.75636 19.918C5.75938 20.2501 4.71363 20.2987 3.69896 20.0601C4.56045 23.3548 7.06084 25.7523 10.0234 25.8194C7.70627 28.0435 4.78693 29.3693 1.61507 29.3693C1.0685 29.3693 0.529676 29.33 0 29.2534C2.99617 31.6064 6.55488 32.9792 10.3782 32.9792C22.8315 32.9792 29.6412 20.3428 29.6412 9.38425C29.6412 9.02457 29.6347 8.66693 29.6216 8.31136C30.947 7.13757 32.091 5.6839 33 4.01851Z" fill="#55ACEE"/>
</g>
<defs>
<clipPath id="clip0_109_94">
<rect width="33" height="33" fill="white"/>
</clipPath>
</defs>
</svg>
