<svg width="24" height="24" viewBox="0 0 24 24" fill="none" xmlns="http://www.w3.org/2000/svg">
<path d="M10.7516 16.8535V18.8835C10.7516 20.6035 9.15158 21.9935 7.18158 21.9935C5.21158 21.9935 3.60156 20.6035 3.60156 18.8835V16.8535C3.60156 18.5735 5.20158 19.7935 7.18158 19.7935C9.15158 19.7935 10.7516 18.5635 10.7516 16.8535Z" stroke="#292D32" stroke-width="1.5" stroke-linecap="round" stroke-linejoin="round"/>
<path d="M10.7498 14.1029C10.7498 14.6029 10.6098 15.0629 10.3698 15.4629C9.77981 16.4329 8.5698 17.0429 7.1698 17.0429C5.7698 17.0429 4.55979 16.4229 3.96979 15.4629C3.72979 15.0629 3.58984 14.6029 3.58984 14.1029C3.58984 13.2429 3.98982 12.4729 4.62982 11.9129C5.27982 11.3429 6.16979 11.0029 7.15979 11.0029C8.14979 11.0029 9.03982 11.3529 9.68982 11.9129C10.3498 12.4629 10.7498 13.2429 10.7498 14.1029Z" stroke="#292D32" stroke-width="1.5" stroke-linecap="round" stroke-linejoin="round"/>
<path d="M10.7516 14.1031V16.8531C10.7516 18.5731 9.15158 19.7932 7.18158 19.7932C5.21158 19.7932 3.60156 18.5631 3.60156 16.8531V14.1031C3.60156 12.3831 5.20158 10.9932 7.18158 10.9932C8.17158 10.9932 9.06161 11.3431 9.71161 11.9031C10.3516 12.4631 10.7516 13.2431 10.7516 14.1031Z" stroke="#292D32" stroke-width="1.5" stroke-linecap="round" stroke-linejoin="round"/>
<path d="M22.0002 10.9633V13.0234C22.0002 13.5734 21.5602 14.0233 21.0002 14.0433H19.0402C17.9602 14.0433 16.9702 13.2533 16.8802 12.1733C16.8202 11.5433 17.0602 10.9533 17.4802 10.5433C17.8502 10.1633 18.3602 9.94336 18.9202 9.94336H21.0002C21.5602 9.96336 22.0002 10.4133 22.0002 10.9633Z" stroke="#292D32" stroke-width="1.5" stroke-linecap="round" stroke-linejoin="round"/>
<path d="M2 10.4932V8.49316C2 5.77316 3.64 3.87316 6.19 3.55316C6.45 3.51316 6.72 3.49316 7 3.49316H16C16.26 3.49316 16.51 3.50315 16.75 3.54315C19.33 3.84315 21 5.75316 21 8.49316V9.94318H18.92C18.36 9.94318 17.85 10.1632 17.48 10.5432C17.06 10.9532 16.82 11.5432 16.88 12.1732C16.97 13.2532 17.96 14.0432 19.04 14.0432H21V15.4932C21 18.4932 19 20.4932 16 20.4932H13.5" stroke="#292D32" stroke-width="1.5" stroke-linecap="round" stroke-linejoin="round"/>
</svg>
